<?xml version="1.0" encoding="UTF-8"?>
<svg id="Layer_2" data-name="Layer 2" xmlns="http://www.w3.org/2000/svg" viewBox="0 0 2161.6 2161.6">
  <defs>
    <style>
      .cls-1 {
        fill: #333;
      }
    </style>
  </defs>
  <g id="Layer_1-2" data-name="Layer 1">
    <path class="cls-1" d="m912.92,0c-21.95,0-36.56,17.88-39.62,39.62l-36.52,259.05c-47.1,14.7-92.78,33.62-136.48,56.53l-209-157.35c-8.77-6.6-18.89-10.48-28.77-10.77-9.88-.29-19.49,3.01-27.25,10.77l-73.78,73.78-89.86,89.86-73.78,73.78c-15.52,15.52-13.2,38.49,0,56.02l157.35,209c-22.91,43.7-41.83,89.37-56.53,136.47l-259.05,36.52c-21.73,3.06-39.62,17.67-39.62,39.62v335.76c0,21.95,17.88,36.55,39.62,39.62l259.05,36.53c14.69,47.1,33.61,92.77,56.53,136.47l-157.35,209c-13.2,17.53-15.52,40.51,0,56.03l73.78,73.78,89.86,89.86,73.78,73.78c15.52,15.52,38.49,13.2,56.02,0l209-157.35c43.7,22.91,89.37,41.83,136.47,56.53l36.52,259.05c3.06,21.73,17.67,39.62,39.62,39.62h335.76c21.95,0,36.55-17.88,39.62-39.62l36.53-259.05c47.1-14.69,92.77-33.61,136.47-56.53l209,157.35c17.53,13.2,40.51,15.52,56.03,0l73.78-73.78,89.86-89.86,73.78-73.78c15.52-15.52,13.2-38.5,0-56.03l-157.35-209c22.91-43.7,41.83-89.37,56.53-136.47l259.05-36.53c21.73-3.06,39.62-17.67,39.62-39.62v-335.76c0-21.95-17.88-36.56-39.62-39.62l-259.05-36.52c-14.7-47.1-33.62-92.78-56.53-136.48l157.36-209c13.2-17.53,15.52-40.5,0-56.02l-73.78-73.78-89.86-89.86-73.78-73.78c-7.76-7.76-17.39-11.06-27.26-10.77-9.88.29-20,4.17-28.77,10.77l-209,157.35c-43.69-22.91-89.37-41.83-136.47-56.53l-36.53-259.05c-3.06-21.73-17.67-39.62-39.62-39.62h-335.76Zm166.76,549.12c.37,0,.75,0,1.12,0,293.64,0,531.68,238.04,531.68,531.68,0,293.64-238.04,531.68-531.68,531.68-293.64,0-531.68-238.04-531.68-531.68,0-293.2,237.36-531.06,530.56-531.68Z"/>
  </g>
</svg>