<?xml version="1.0" encoding="UTF-8"?>
<svg id="Layer_2" data-name="Layer 2" xmlns="http://www.w3.org/2000/svg" viewBox="0 0 988.02 781.07">
  <g id="Layer_1-2" data-name="Layer 1">
    <g id="Design">
      <path d="m113.16,110.62h662.39c5.52,0,10-4.48,10-10s-4.48-10-10-10H113.16c-5.52,0-10,4.48-10,10s4.48,10,10,10Z"/>
      <path d="m950.04,382.48v-188.53l-.04-7.96c-.04-11.01-8.98-19.92-19.99-19.93h-3.16c-15.62,0-31.23-.01-46.85-.01V20c0-11.05-8.95-20-20-20H103.02C46.21,0,0,46.21,0,103.02c0,3.7.2,7.35.58,10.95-.38,1.55-.58,3.15-.58,4.75v567.92c0,2.39.09,4.79.27,7.14,1.77,23.7,12.36,45.7,29.79,61.95,17.53,16.34,40.39,25.34,64.36,25.34h834.12c11.86,0,21.5-9.64,21.5-21.5v-198.03c21.78-5.4,37.98-25.1,37.98-48.53v-82c0-23.43-16.2-43.13-37.98-48.53ZM103.02,40h736.98v126.04H103.02c-34.75,0-63.02-28.27-63.02-63.02s28.27-63.02,63.02-63.02Zm-8.6,701.07c-27.82,0-51.29-21.31-54.12-48.78h.16s-.16,0-.16,0c-.05-.5-.11-.99-.15-1.49-.1-1.36-.15-2.76-.15-4.16V184.46c17.43,13.52,39.3,21.58,63.02,21.58h756.98c16.68,0,33.36,0,50.04.01v174.96h-65.02c-50.18,0-91,40.82-91,91s40.82,91,91,91h65.02v178.06H94.42Zm873.6-228.06c0,16.54-13.46,30-30,30h-93c-39.15,0-71-31.85-71-71s31.85-71,71-71h93c16.54,0,30,13.46,30,30v82Z"/>
      <path d="m845.52,427.51c-24.54,0-44.5,19.96-44.5,44.5s19.96,44.5,44.5,44.5,44.5-19.96,44.5-44.5-19.96-44.5-44.5-44.5Zm0,69c-13.51,0-24.5-10.99-24.5-24.5s10.99-24.5,24.5-24.5,24.5,10.99,24.5,24.5-10.99,24.5-24.5,24.5Z"/>
    </g>
  </g>
</svg>