<?xml version="1.0" encoding="UTF-8"?>
<svg id="Layer_2" data-name="Layer 2" xmlns="http://www.w3.org/2000/svg" viewBox="0 0 1000 928.32">
  <defs>
    <style>
      .cls-1 {
        fill: #333;
      }
    </style>
  </defs>
  <g id="Layer_1-2" data-name="Layer 1">
    <path class="cls-1" d="m999.68,908.16c-16.59-77.99-59.9-148.93-121.94-199.74-62.91-51.53-142.42-79.91-223.89-79.91h-23.23v-20.28c12.56-8.64,23.75-18.79,33.52-30.48,31.45-37.59,41.23-82.91,43.9-114.31.15-1.73.34-3.44.55-5.15,42.92-20.58,70.76-48.43,82.71-82.77,15.15-43.51,1.4-87.14-12.81-116.09-8.84-18-15.03-37.2-18.4-57.04-14.31-84.2-67.9-146.8-154.99-181.04-81.19-31.92-171.42-27.9-247.55,11.03-73.84,37.75-118.54,98.59-129.27,175.95-2.45,17.68-8.05,34.86-16.64,51.07-28.78,54.29-24.7,94.7-16.21,119.04,11.88,34.07,40.2,61.11,84.18,80.36.06.66.13,1.32.18,1.98,2.35,31.58,11.67,77.23,42.76,115.36,13.7,16.8,30.24,30.54,49.51,41.18v11.21h-25.4c-81.94,0-161.82,28.67-224.91,80.74C59.53,760.63,16.38,832.22.3,910.84c-.88,4.29.22,8.75,3,12.14,2.77,3.38,6.9,5.34,11.27,5.34h.04l970.87-2.57c4.39-.01,8.54-2,11.29-5.41,2.76-3.41,3.83-7.89,2.91-12.18ZM222.96,368.84c-6.58-18.87-9.41-50.8,14.44-95.81,10.19-19.22,16.83-39.65,19.75-60.7,9.5-68.49,47.75-120.31,113.68-154.02,68.7-35.12,150.21-38.71,223.63-9.85,78.17,30.73,124.24,84.16,136.93,158.81,3.84,22.61,10.89,44.48,20.96,65,11.76,23.96,23.29,59.67,11.45,93.68-6.93,19.89-21.33,37.28-42.92,51.92,1.81-3.54,3.79-6.98,5.95-10.27,15.55-23.73,36.61-74.14,2.91-145.1,0,0,0,0,0-.01,0-.02-.02-.03-.02-.05l-.97-2.05c-4.94-10.46-8.07-22.04-9.29-34.41-.03-.29-.07-.57-.1-.86-.25-2.48-.55-4.93-.89-7.36-.14-1.05-.3-2.08-.46-3.12-.25-1.66-.53-3.3-.82-4.93-.21-1.17-.4-2.34-.63-3.5-.38-1.92-.79-3.81-1.21-5.7-.44-1.97-.93-3.91-1.43-5.84-.19-.74-.38-1.47-.58-2.2-.48-1.78-.99-3.55-1.52-5.3-.05-.17-.11-.34-.16-.52-6.13-19.92-15.41-37.86-27.82-53.72-.42-.54-.84-1.07-1.27-1.6-1.01-1.25-2.02-2.51-3.06-3.73-.78-.91-1.58-1.8-2.38-2.7-1.34-1.51-2.71-2.99-4.11-4.46-1.01-1.06-2.03-2.11-3.07-3.14-.4-.4-.78-.82-1.18-1.21-2.25-2.19-4.55-4.29-6.89-6.32-.01-.01-.03-.02-.04-.03-1.55-1.35-3.13-2.67-4.71-3.96-.05-.04-.1-.09-.16-.13-1.62-1.31-3.26-2.59-4.91-3.84-.06-.04-.12-.09-.18-.13-64.11-48.27-150.04-47.55-157.85-47.38-7.49-.16-87.03-.83-150.11,41.85-.21.14-.42.29-.63.43-1.68,1.15-3.35,2.31-5,3.52-.1.08-.21.16-.31.23-1.43,1.05-2.86,2.14-4.27,3.24-.41.32-.82.63-1.22.96-1.4,1.11-2.79,2.25-4.17,3.41-.38.32-.75.65-1.13.97-1.13.97-2.25,1.95-3.36,2.96-.35.32-.71.63-1.06.96-1.17,1.07-2.33,2.16-3.47,3.27-.12.12-.23.24-.35.35-1.81,1.77-3.57,3.57-5.28,5.4-.61.65-1.2,1.33-1.8,1.99-1.06,1.17-2.1,2.35-3.13,3.55-.8.94-1.6,1.88-2.38,2.84-.72.88-1.42,1.78-2.12,2.68-3.27,4.18-6.32,8.5-9.16,12.96-.2.32-.41.64-.61.97-7.7,12.31-13.77,25.7-18.18,40.12-.02.07-.04.14-.06.2-.56,1.85-1.09,3.72-1.6,5.6-.16.6-.32,1.2-.47,1.8-.46,1.77-.91,3.53-1.32,5.33-.09.38-.16.77-.24,1.15-.68,3.03-1.28,6.11-1.82,9.23-.26,1.48-.51,2.96-.74,4.45-.18,1.18-.35,2.36-.51,3.55-.26,1.89-.48,3.8-.69,5.72-.09.84-.2,1.67-.28,2.52-.25,2.54-.46,5.11-.62,7.7-.46,7.3-2.36,14.16-5.67,20.4l-.17.33c-7.52,14.26-17.18,36.84-20.53,63.38-4.21,33.33,2.57,63.63,20.15,90.06,2.59,3.9,4.92,7.94,6.99,12.1-23.34-14.14-38.72-31.43-45.76-51.61Zm73.64-119.17c0-5.6.22-11.07.63-16.41.03-.45.07-.91.1-1.36,3.24-38.87,17.37-70.71,42.15-94.82,49.98-48.65,129.64-53.29,149.52-53.66.09,0,.17,0,.26,0,.25,0,.49,0,.72-.01.75,0,1.41-.01,1.93-.01,1.06,0,1.65.01,1.7.01.27,0,.56,0,.84,0,.97-.03,96.96-1.97,154.15,53.68,28.45,27.69,42.88,65.57,42.88,112.59,0,2.68.75,5.33,2.15,7.61-77.8,9.27-134.93-6.04-170.11-21.29-41.41-17.95-62.3-39.72-62.48-39.9-2.77-2.97-6.63-4.63-10.64-4.63-.48,0-.97.02-1.45.07-4.52.45-8.57,2.99-10.95,6.86-38.07,61.86-119.93,55.53-141.45,52.66.04-.46.07-.92.07-1.38Zm48.55,308.05c-26.3-32.26-34.25-71.71-36.29-99.12-1.75-23.56-9.67-46.52-22.88-66.39-27.78-41.76-14.21-88.54-2.86-113.93l2.28.48c1.24.25,30.84,6.07,67.12,1.33,42.78-5.6,77.13-23.59,100.35-52.38,11.51,9.24,30.6,22.46,57.43,34.28,30.79,13.57,76.72,27.22,136.89,27.22,18.8,0,39-1.35,60.54-4.43,10.65,26.54,19.81,68.61-5.24,106.84-7.93,12.09-14,25.57-18.07,39.87-27.68,55.09-82.12,56.92-100.82,55.78-7.46-13.38-21.74-22.43-38.14-22.43-24.11,0-43.65,19.54-43.65,43.65s19.54,43.65,43.65,43.65c21.37,0,39.14-15.36,42.9-35.64.48,0,.96,0,1.46,0,9.7,0,22.69-.93,36.87-4.49,14.54-3.65,31.86-10.5,48.17-23.27-4.96,22.69-14.6,48.27-33.04,70.31-8.96,10.71-19.44,19.91-31.39,27.59-.68.28-1.34.61-1.98,1-.75.46-68.22,40.63-177.65,20.98-36.42-8.71-65.1-25.73-85.63-50.91Zm148.89,86.87c41.47,0,77.37-6.75,107.47-20.11l-.04,53.77c0,4.75-2.38,9.25-6.36,12.05-34.89,24.53-67.3,33-95.44,32.99-43.21,0-76.34-19.97-92.76-32.41-3.57-2.71-5.7-7.04-5.7-11.58v-47.16c8.19,2.01,16.17,3.7,23.98,5.12,20.9,4.87,43.86,7.33,68.85,7.33Zm-353.72,87.13c57.89-47.77,131.17-74.08,206.37-74.08h25.4v21.66c0,13.61,6.45,26.62,17.24,34.8,14.32,10.85,44.24,30,83.68,36.31,4.27.68,8.53,1.19,12.79,1.55-.05.51-.09,1.03-.09,1.56v143.41c0,.35.03.68.05,1.02l-452.82,1.2c17.23-65.19,54.91-124.13,107.37-167.42Zm374.47,166.15c.02-.31.05-.63.05-.95v-143.41c0-.54-.03-1.07-.09-1.6,32.93-2.9,65.46-15.53,97.12-37.8,11.72-8.24,18.72-21.65,18.73-35.85v-20.62h23.27c74.76,0,147.71,26.04,205.43,73.31,52.25,42.79,90.02,101.12,107.65,165.73l-452.15,1.19Z"/>
  </g>
</svg>