<?xml version="1.0" encoding="UTF-8"?>
<svg id="Layer_2" data-name="Layer 2" xmlns="http://www.w3.org/2000/svg" viewBox="0 0 358.16 368.64">
  <g id="Layer_1-2" data-name="Layer 1">
    <path d="m65.72,142.98c-.3,8.66-.25,18.44-.19,28.9.17,30.48.37,66.56-7.83,96.6-3.74,13.73-9.23,26.18-17.24,36.28-3.27,4.12-6.94,7.84-11.07,11.1h299.3c-36.69-28.75-36.34-93.79-36.06-143.98.06-10.46.11-20.24-.19-28.9-5.08-43.38-29.32-72.55-60.2-87.53-16.44-7.98-34.78-11.96-53.16-11.96s-36.72,3.99-53.16,11.96c-30.88,14.98-55.12,44.15-60.2,87.53h0Zm-11.67,28.94c-.06-10.62-.11-20.55.19-29.25-.01-.31,0-.62.03-.93h0c5.58-47.82,32.43-80.04,66.64-96.64,18.05-8.76,38.11-13.13,58.15-13.13s40.11,4.38,58.15,13.13c34.13,16.56,60.93,48.66,66.6,96.29.05.26.08.53.09.81l-5.76.21,5.74-.2c.32,8.81.26,18.91.2,29.72-.3,54.95-.7,128.87,49.62,144.09,2.54.6,4.43,2.88,4.43,5.61,0,3.18-2.58,5.76-5.76,5.76H5.87c-2.53.05-4.88-1.58-5.63-4.12-.9-3.05.83-6.26,3.88-7.16l1.64,5.52-1.62-5.51c11.64-3.45,20.53-9.94,27.32-18.5,6.98-8.81,11.82-19.86,15.17-32.14,7.78-28.53,7.59-63.77,7.42-93.55Z"/>
    <path d="m210.19,41.55c-.28-8.35-3.86-15.87-9.48-21.3-5.59-5.41-13.22-8.73-21.64-8.73s-16.04,3.33-21.64,8.73c-5.62,5.43-9.2,12.95-9.48,21.3l-11.48-.36c.39-11.46,5.29-21.78,12.99-29.22,7.67-7.41,18.11-11.97,29.6-11.97s21.93,4.56,29.6,11.97c7.7,7.44,12.6,17.75,12.99,29.22l-11.47.36Z"/>
    <path d="m222.04,321.05c-.31-3.16-3.12-5.46-6.28-5.15-3.16.31-5.46,3.12-5.15,6.28.05.53.09,1.07.12,1.62.02.34.03.89.03,1.65,0,8.75-3.54,16.67-9.28,22.4-5.73,5.73-13.65,9.28-22.4,9.28s-16.67-3.55-22.4-9.28c-5.73-5.73-9.28-13.65-9.28-22.4,0-.76,0-1.31.03-1.65.03-.55.07-1.09.12-1.62.31-3.16-2-5.97-5.15-6.28-3.16-.31-5.97,2-6.28,5.15-.07.73-.13,1.47-.17,2.2-.05.93-.07,1.66-.07,2.19,0,11.93,4.83,22.73,12.65,30.54,7.82,7.82,18.62,12.65,30.54,12.65s22.73-4.83,30.54-12.65c7.82-7.82,12.65-18.62,12.65-30.54,0-.53-.02-1.26-.07-2.19-.04-.73-.09-1.47-.17-2.2Z"/>
    <path d="m303.42,268.17c3.18,0,5.76-2.58,5.76-5.76s-2.58-5.76-5.76-5.76H54.42c-3.18,0-5.76,2.58-5.76,5.76s2.58,5.76,5.76,5.76h249Z"/>
  </g>
</svg>