<?xml version="1.0" encoding="UTF-8"?>
<svg xmlns="http://www.w3.org/2000/svg" viewBox="0 0 624 624">
  <defs>
    <style>
      .cls-1 {
        fill-rule: evenodd;
      }
    </style>
  </defs>
  <g id="Master_Layer_7" data-name="Master Layer 7">
    <path class="cls-1" d="m312,0h0c171.6,0,312,140.4,312,312h0c0,171.6-140.4,312-312,312h0C140.4,624,0,483.6,0,312h0C0,140.4,140.4,0,312,0h0Zm0,34.56c-152.59,0-277.44,124.85-277.44,277.44h0c0,152.59,124.85,277.44,277.44,277.44h0c152.59,0,277.44-124.85,277.44-277.44h0c0-152.59-124.85-277.44-277.44-277.44h0Z"/>
  </g>
  <g id="Layer_1" data-name="Layer 1">
    <g>
      <path d="m353.48,272.14v182.71c0,11.41-4.66,21.78-12.18,29.3-7.51,7.51-17.89,12.18-29.3,12.18h0c-11.41,0-21.78-4.66-29.3-12.18-7.51-7.52-12.18-17.89-12.18-29.3v-182.71c0-11.41,4.66-21.78,12.18-29.3,7.52-7.52,17.89-12.18,29.3-12.18h0c11.41,0,21.78,4.66,29.3,12.18,7.51,7.51,12.18,17.89,12.18,29.3Z"/>
      <path d="m312,127.68c11.76,0,22.42,4.77,30.13,12.48,7.71,7.71,12.48,18.36,12.48,30.13s-4.77,22.42-12.48,30.13c-7.71,7.71-18.36,12.48-30.13,12.48s-22.42-4.77-30.13-12.48c-7.71-7.71-12.48-18.36-12.48-30.13s4.77-22.42,12.48-30.13c7.71-7.71,18.36-12.48,30.13-12.48Z"/>
    </g>
  </g>
</svg>