<?xml version="1.0" encoding="UTF-8"?>
<svg id="Layer_2" data-name="Layer 2" xmlns="http://www.w3.org/2000/svg" viewBox="0 0 1376.2 1320.86">
  <defs>
    <style>
      .cls-1 {
        fill: #414042;
      }
    </style>
  </defs>
  <g id="Layer_1-2" data-name="Layer 1">
    <g>
      <path class="cls-1" d="m1253.35,141.21h-163.43V39.34c0-21.73-17.62-39.34-39.3-39.34s-39.34,17.61-39.34,39.34v101.87H364.94V39.34c0-21.73-17.62-39.34-39.3-39.34s-39.34,17.61-39.34,39.34v101.87H122.87C55.02,141.21,0,196.28,0,264.13v983c0,40.7,32.98,73.73,73.69,73.73h1228.82c40.71,0,73.69-33.03,73.69-73.73V264.13c.01-67.85-55-122.91-122.85-122.91Zm-242.08,112.82v50.71c0,21.68,17.61,39.3,39.34,39.3s39.3-17.62,39.3-39.3v-50.72c27.71,14.28,46.7,43.08,46.7,76.42,0,47.53-38.52,86.05-86,86.05s-86.03-38.52-86.03-86.05c0-33.33,18.96-62.16,46.68-76.41Zm-724.98-.02v50.72c0,21.68,17.62,39.3,39.34,39.3s39.3-17.62,39.3-39.3v-50.71c27.72,14.27,46.68,43.08,46.68,76.41,0,47.53-38.5,86.05-86.03,86.05s-86-38.52-86-86.05c0-33.35,18.98-62.16,46.7-76.42Zm1016.23,989.93H73.69V508.4h1228.82v735.54h.02Z"/>
      <rect class="cls-1" x="450.17" y="599.68" width="191.56" height="132.73"/>
      <rect class="cls-1" x="734.47" y="599.68" width="191.6" height="132.73"/>
      <rect class="cls-1" x="1018.75" y="599.68" width="191.6" height="132.73"/>
      <rect class="cls-1" x="165.87" y="809.79" width="191.6" height="132.73"/>
      <rect class="cls-1" x="450.17" y="809.79" width="191.56" height="132.73"/>
      <rect class="cls-1" x="734.47" y="809.79" width="191.6" height="132.73"/>
      <rect class="cls-1" x="1018.75" y="809.79" width="191.6" height="132.73"/>
      <rect class="cls-1" x="165.87" y="1019.96" width="191.6" height="132.68"/>
      <rect class="cls-1" x="450.17" y="1019.96" width="191.56" height="132.68"/>
      <rect class="cls-1" x="734.47" y="1019.96" width="191.6" height="132.68"/>
    </g>
  </g>
</svg>