<svg version="1.1" id="Layer_1" xmlns="http://www.w3.org/2000/svg" xmlns:xlink="http://www.w3.org/1999/xlink" x="0px" y="0px"
	 width="100%" viewBox="0 0 640 640" enable-background="new 0 0 640 640" xml:space="preserve">
<path fill="#FFFFFF" opacity="1.000000" stroke="none" 
	d="
M365.000000,641.000000 
	C243.333359,641.000000 122.166710,641.000000 1.000049,641.000000 
	C1.000033,427.666718 1.000033,214.333450 1.000016,1.000135 
	C214.333237,1.000090 427.666473,1.000090 640.999756,1.000045 
	C640.999878,214.333191 640.999878,427.666382 640.999939,640.999756 
	C549.166687,641.000000 457.333344,641.000000 365.000000,641.000000 
M227.250504,350.871094 
	C212.061386,354.692719 196.872269,358.514374 180.434662,362.650146 
	C181.856247,363.429382 182.254593,363.692352 182.686234,363.877899 
	C196.873093,369.975983 211.051880,376.093262 225.271515,382.114044 
	C226.582733,382.669220 228.167236,382.848328 229.607910,382.789246 
	C272.556427,381.027802 315.500885,379.165497 358.452454,377.484619 
	C362.691742,377.318726 367.108368,377.670532 371.213104,378.698517 
	C414.135132,389.447845 457.047577,400.347290 501.260925,404.327362 
	C512.943054,405.378967 524.863953,404.669830 536.610535,403.846375 
	C546.934937,403.122650 552.910889,396.149078 555.847168,386.738922 
	C558.743896,377.455322 553.703552,370.926758 546.957458,365.711334 
	C541.051514,361.145355 534.386169,357.564362 528.456604,353.025269 
	C520.707520,347.093262 512.802368,341.192474 505.955322,334.294525 
	C495.357788,323.618225 484.005768,314.010803 469.603210,309.547272 
	C456.011688,305.335083 442.015381,302.064392 427.971619,299.745056 
	C387.917755,293.130096 347.751251,287.195923 307.624817,281.021576 
	C269.799622,275.201324 231.975098,269.376129 194.130508,263.684509 
	C190.730133,263.173096 189.154236,261.646393 187.875885,258.529449 
	C175.968552,229.496780 163.910812,200.525436 151.752029,171.597107 
	C150.980728,169.762024 149.204376,167.346008 147.556763,167.043045 
	C135.537598,164.833069 123.431648,163.095139 110.873734,161.133224 
	C113.611778,198.410385 116.311531,235.166245 119.012955,271.944916 
	C111.910118,270.101562 105.395393,268.111603 98.749222,266.775391 
	C92.836380,265.586670 89.299751,267.438629 87.474525,271.673370 
	C85.227417,276.886932 86.102165,281.514557 91.029312,284.868988 
	C95.659714,288.021393 100.630859,291.012543 105.879005,292.865387 
	C152.692429,309.392609 199.600464,325.651825 246.480789,341.989563 
	C248.259979,342.609619 250.040512,343.225861 252.973755,344.244354 
	C243.749039,346.620789 235.900131,348.642761 227.250504,350.871094 
M248.500000,440.960083 
	C196.718689,440.960083 144.937378,440.960083 93.101364,440.960083 
	C93.101364,454.671051 93.101364,467.904663 93.101364,481.146118 
	C248.108215,481.146118 402.837799,481.146118 557.565491,481.146118 
	C557.565491,467.657867 557.565491,454.543488 557.565491,440.960083 
	C454.731445,440.960083 352.115723,440.960083 248.500000,440.960083 
z"/>
<path fill="#010101" opacity="1.000000" stroke="none" 
	d="
M227.650864,350.767944 
	C235.900131,348.642761 243.749039,346.620789 252.973755,344.244354 
	C250.040512,343.225861 248.259979,342.609619 246.480789,341.989563 
	C199.600464,325.651825 152.692429,309.392609 105.879005,292.865387 
	C100.630859,291.012543 95.659714,288.021393 91.029312,284.868988 
	C86.102165,281.514557 85.227417,276.886932 87.474525,271.673370 
	C89.299751,267.438629 92.836380,265.586670 98.749222,266.775391 
	C105.395393,268.111603 111.910118,270.101562 119.012955,271.944916 
	C116.311531,235.166245 113.611778,198.410385 110.873734,161.133224 
	C123.431648,163.095139 135.537598,164.833069 147.556763,167.043045 
	C149.204376,167.346008 150.980728,169.762024 151.752029,171.597107 
	C163.910812,200.525436 175.968552,229.496780 187.875885,258.529449 
	C189.154236,261.646393 190.730133,263.173096 194.130508,263.684509 
	C231.975098,269.376129 269.799622,275.201324 307.624817,281.021576 
	C347.751251,287.195923 387.917755,293.130096 427.971619,299.745056 
	C442.015381,302.064392 456.011688,305.335083 469.603210,309.547272 
	C484.005768,314.010803 495.357788,323.618225 505.955322,334.294525 
	C512.802368,341.192474 520.707520,347.093262 528.456604,353.025269 
	C534.386169,357.564362 541.051514,361.145355 546.957458,365.711334 
	C553.703552,370.926758 558.743896,377.455322 555.847168,386.738922 
	C552.910889,396.149078 546.934937,403.122650 536.610535,403.846375 
	C524.863953,404.669830 512.943054,405.378967 501.260925,404.327362 
	C457.047577,400.347290 414.135132,389.447845 371.213104,378.698517 
	C367.108368,377.670532 362.691742,377.318726 358.452454,377.484619 
	C315.500885,379.165497 272.556427,381.027802 229.607910,382.789246 
	C228.167236,382.848328 226.582733,382.669220 225.271515,382.114044 
	C211.051880,376.093262 196.873093,369.975983 182.686234,363.877899 
	C182.254593,363.692352 181.856247,363.429382 180.434662,362.650146 
	C196.872269,358.514374 212.061386,354.692719 227.650864,350.767944 
z"/>
<path fill="#030303" opacity="1.000000" stroke="none" 
	d="
M249.000000,440.960083 
	C352.115723,440.960083 454.731445,440.960083 557.565491,440.960083 
	C557.565491,454.543488 557.565491,467.657867 557.565491,481.146118 
	C402.837799,481.146118 248.108215,481.146118 93.101364,481.146118 
	C93.101364,467.904663 93.101364,454.671051 93.101364,440.960083 
	C144.937378,440.960083 196.718689,440.960083 249.000000,440.960083 
z"/>
</svg>