<svg version="1.1" id="Layer_1" xmlns="http://www.w3.org/2000/svg" xmlns:xlink="http://www.w3.org/1999/xlink" x="0px" y="0px"
	 width="100%" viewBox="0 0 640 640" enable-background="new 0 0 640 640" xml:space="preserve">
<path fill="#FFFFFF" opacity="1.000000" stroke="none" 
	d="
M284.000000,641.000000 
	C189.333344,641.000000 95.166702,641.000000 1.000038,641.000000 
	C1.000025,427.666718 1.000025,214.333450 1.000013,1.000124 
	C214.333237,1.000082 427.666473,1.000082 640.999756,1.000041 
	C640.999878,214.333206 640.999878,427.666412 640.999939,640.999817 
	C522.166687,641.000000 403.333344,641.000000 284.000000,641.000000 
M239.671509,403.613068 
	C254.114578,399.785065 268.590698,396.074707 282.974274,392.034912 
	C286.039673,391.173981 289.181824,389.597534 291.590088,387.535095 
	C324.109650,359.684967 356.480713,331.661499 388.977478,303.784607 
	C391.699493,301.449554 394.902069,299.525299 398.152100,297.979309 
	C420.046112,287.564728 442.187988,277.656769 463.909546,266.898163 
	C487.605591,255.161575 511.014587,242.757477 531.728210,226.083588 
	C537.490662,221.444962 543.079895,216.050400 547.123962,209.929306 
	C555.741699,196.885345 547.395752,180.189056 531.931763,178.921127 
	C525.354370,178.381851 518.621948,178.904633 512.026794,179.589111 
	C499.574890,180.881470 487.239532,182.041855 474.746704,179.435898 
	C468.941254,178.224884 462.807678,178.070358 456.843933,178.229370 
	C437.189850,178.753448 419.551361,186.035782 402.778503,195.554321 
	C331.368591,236.079208 260.014862,276.703217 188.718979,317.428223 
	C185.402634,319.322571 183.100845,319.328613 179.819046,317.488342 
	C152.424088,302.126495 124.928558,286.943573 97.412498,271.799164 
	C95.849815,270.939087 93.333664,269.951965 92.119148,270.609222 
	C81.187149,276.525177 70.447159,282.795898 59.278770,289.174988 
	C84.568192,316.681946 109.516464,343.817841 134.384308,370.866272 
	C127.177422,374.154480 120.292046,376.701874 114.026352,380.321838 
	C107.755005,383.945068 107.251457,391.397461 112.933960,395.762360 
	C115.413567,397.667053 119.510590,398.711884 122.624504,398.294128 
	C129.830917,397.327332 137.103546,395.860840 143.966599,393.489380 
	C187.909256,378.305267 231.746735,362.816803 275.627411,347.453003 
	C277.612793,346.757874 279.681335,346.300140 281.711182,345.731842 
	C281.682159,347.639526 281.240326,348.494293 280.665710,349.247833 
	C267.339203,366.724182 254.001755,384.192200 240.641098,401.642456 
	C240.284500,402.108185 239.646851,402.358734 239.499298,403.180725 
	C239.593430,403.308044 239.674255,403.451172 239.792099,403.550293 
	C239.817764,403.571869 239.975906,403.435944 240.073013,403.372559 
	C239.756500,403.155090 239.439987,402.937592 239.671509,403.613068 
M257.499725,498.518280 
	C352.926208,498.518280 448.352722,498.518280 543.723877,498.518280 
	C543.723877,484.694672 543.723877,471.439972 543.723877,458.228821 
	C388.733948,458.228821 234.025955,458.228821 79.320541,458.228821 
	C79.320541,471.723572 79.320541,484.947601 79.320541,498.518250 
	C138.576813,498.518250 197.538254,498.518250 257.499725,498.518280 
z"/>
<path fill="#010101" opacity="1.000000" stroke="none" 
	d="
M239.140259,402.709656 
	C239.646851,402.358734 240.284500,402.108185 240.641098,401.642456 
	C254.001755,384.192200 267.339203,366.724182 280.665710,349.247833 
	C281.240326,348.494293 281.682159,347.639526 281.711182,345.731842 
	C279.681335,346.300140 277.612793,346.757874 275.627411,347.453003 
	C231.746735,362.816803 187.909256,378.305267 143.966599,393.489380 
	C137.103546,395.860840 129.830917,397.327332 122.624504,398.294128 
	C119.510590,398.711884 115.413567,397.667053 112.933960,395.762360 
	C107.251457,391.397461 107.755005,383.945068 114.026352,380.321838 
	C120.292046,376.701874 127.177422,374.154480 134.384308,370.866272 
	C109.516464,343.817841 84.568192,316.681946 59.278770,289.174988 
	C70.447159,282.795898 81.187149,276.525177 92.119148,270.609222 
	C93.333664,269.951965 95.849815,270.939087 97.412498,271.799164 
	C124.928558,286.943573 152.424088,302.126495 179.819046,317.488342 
	C183.100845,319.328613 185.402634,319.322571 188.718979,317.428223 
	C260.014862,276.703217 331.368591,236.079208 402.778503,195.554321 
	C419.551361,186.035782 437.189850,178.753448 456.843933,178.229370 
	C462.807678,178.070358 468.941254,178.224884 474.746704,179.435898 
	C487.239532,182.041855 499.574890,180.881470 512.026794,179.589111 
	C518.621948,178.904633 525.354370,178.381851 531.931763,178.921127 
	C547.395752,180.189056 555.741699,196.885345 547.123962,209.929306 
	C543.079895,216.050400 537.490662,221.444962 531.728210,226.083588 
	C511.014587,242.757477 487.605591,255.161575 463.909546,266.898163 
	C442.187988,277.656769 420.046112,287.564728 398.152100,297.979309 
	C394.902069,299.525299 391.699493,301.449554 388.977478,303.784607 
	C356.480713,331.661499 324.109650,359.684967 291.590088,387.535095 
	C289.181824,389.597534 286.039673,391.173981 282.974274,392.034912 
	C268.590698,396.074707 254.114578,399.785065 239.448715,403.180664 
	C239.225922,402.748260 239.140259,402.709625 239.140259,402.709656 
z"/>
<path fill="#030303" opacity="1.000000" stroke="none" 
	d="
M256.999695,498.518250 
	C197.538254,498.518250 138.576813,498.518250 79.320541,498.518250 
	C79.320541,484.947601 79.320541,471.723572 79.320541,458.228821 
	C234.025955,458.228821 388.733948,458.228821 543.723877,458.228821 
	C543.723877,471.439972 543.723877,484.694672 543.723877,498.518280 
	C448.352722,498.518280 352.926208,498.518280 256.999695,498.518250 
z"/>
<path fill="#010101" opacity="1.000000" stroke="none" 
	d="
M239.174698,402.734192 
	C239.439987,402.937592 239.756500,403.155090 240.073013,403.372559 
	C239.975906,403.435944 239.817764,403.571869 239.792099,403.550293 
	C239.674255,403.451172 239.593430,403.308044 239.319778,402.945190 
	C239.140259,402.709625 239.225922,402.748260 239.174698,402.734192 
z"/>
</svg>