<?xml version="1.0" encoding="UTF-8"?>
<svg id="Layer_2" data-name="Layer 2" xmlns="http://www.w3.org/2000/svg" viewBox="0 0 404.27 193.31">
  <defs>
    <style>
      .cls-1 {
        fill: #010101;
      }
    </style>
  </defs>
  <g id="Layer_1-2" data-name="Layer 1">
    <path class="cls-1" d="m80.57,24.04c5.25-6.37,8.8-15.22,7.83-24.04-7.59.31-16.77,5.07-22.17,11.42-4.9,5.63-9.13,14.65-7.96,23.3,8.44.65,17.05-4.3,22.3-10.67Zm21.81,55.98c-.17-19.08,15.56-28.26,16.29-28.71-8.87-12.91-22.64-14.7-27.54-14.89-11.73-1.16-22.91,6.91-28.84,6.91s-15.11-6.73-24.85-6.52c-12.78.18-24.57,7.43-31.16,18.87-13.25,23.1-3.36,57.22,9.57,75.9,6.33,9.15,13.86,19.43,23.78,19.05,9.55-.37,13.13-6.18,24.67-6.18,11.52-.02,14.77,6.16,24.83,5.99,10.26-.22,16.78-9.34,23.07-18.53,7.23-10.59,10.23-20.88,10.39-21.39-.2-.14-19.99-7.68-20.22-30.5h0Zm122.19-55.99c-3.83-3.69-8.76-6.56-14.67-8.53-5.85-1.95-12.88-2.94-20.89-2.94-5.13-.02-10.26.24-15.36.8-4.25.47-8.49,1.07-12.71,1.78l-1.24.21v134.12h12.25v-56.5c4.12.71,8.84,1.08,14.05,1.08,6.93,0,13.42-.89,19.3-2.63,5.65-1.61,10.92-4.35,15.47-8.07,4.39-3.67,7.91-8.25,10.33-13.43,2.51-5.31,3.78-11.56,3.78-18.59,0-5.82-.92-11.05-2.71-15.55-1.73-4.38-4.32-8.38-7.61-11.75h0Zm-11.25,51.23c-6.29,5.27-15.18,7.94-26.47,7.94-3.1,0-6.04-.14-8.74-.39-2.07-.19-4.13-.53-6.15-1.03V24.75c1.62-.3,3.62-.58,5.97-.83,2.98-.32,6.57-.48,10.69-.48,4.73-.05,9.43.56,13.99,1.81,3.88,1.07,7.53,2.86,10.76,5.27,2.94,2.28,5.25,5.24,6.85,8.81,1.62,3.61,2.43,7.93,2.43,12.81,0,10.13-3.15,17.92-9.33,23.12h0Zm94.76,61.66c-.14-3.8-.19-7.61-.19-11.4v-37.28c0-4.42-.45-8.93-1.32-13.41-.84-4.46-2.57-8.7-5.07-12.48-2.49-3.74-5.97-6.82-10.33-9.17-4.36-2.35-10.02-3.53-16.85-3.53-4.98,0-9.85.65-14.44,1.93-4.82,1.39-9.39,3.56-13.51,6.42l-.99.69,4.14,9.68,1.5-1.01c3.27-2.19,6.84-3.89,10.6-5.04,3.8-1.19,7.76-1.8,11.74-1.81,5.1,0,9.18.93,12.09,2.75,2.95,1.84,5.18,4.13,6.61,6.8,1.5,2.76,2.47,5.69,2.91,8.73.46,3.17.68,6,.68,8.43v1.08c-18.15-.08-32.32,2.94-41.74,9-9.88,6.36-14.89,15.42-14.89,26.91,0,3.31.59,6.64,1.76,9.94,1.18,3.33,2.98,6.32,5.34,8.87,2.37,2.58,5.43,4.68,9.09,6.26,3.64,1.59,7.93,2.38,12.72,2.38,6.78.11,13.46-1.71,19.24-5.26,2.52-1.56,4.76-3.33,6.67-5.23.82-.82,1.59-1.68,2.33-2.57h.47l1.12,10.89h11.8l-.33-1.75c-.65-3.57-1.04-7.19-1.16-10.82h0Zm-12.43-19.1c0,1.31-.31,3.1-.9,5.25-.79,2.32-1.9,4.53-3.29,6.55-3.1,4.54-7.61,7.94-12.82,9.68-3.17,1.04-6.48,1.55-9.82,1.5-2.2,0-4.38-.37-6.45-1.1-2.01-.7-3.86-1.81-5.43-3.25-1.64-1.55-2.94-3.43-3.81-5.52-.96-2.22-1.45-4.98-1.45-8.18,0-5.25,1.41-9.5,4.18-12.62,2.98-3.32,6.73-5.86,10.92-7.4,4.74-1.78,9.7-2.91,14.75-3.36,4.7-.45,9.41-.66,14.13-.61v19.08h0Zm95.54-65.99l-22.85,62.12c-1.43,3.75-2.76,7.53-3.97,11.21-.59,1.84-1.15,3.58-1.71,5.23h-.43c-.57-1.81-1.15-3.62-1.75-5.43-1.18-3.64-2.46-7.22-3.77-10.63l-24.44-62.51h-13.07l34.96,89.87c.92,2.16,1.06,3.16,1.06,3.56,0,.12-.05.86-1.07,3.59-1.91,4.88-4.4,9.51-7.42,13.79-2.8,3.81-5.37,6.91-7.65,9.19-2.66,2.66-5.4,4.84-8.18,6.48-2.85,1.68-5.44,3.04-7.74,4.06l-1.32.59,4.26,10.35,1.35-.5c1.11-.42,3.19-1.37,6.35-2.91,3.19-1.57,6.72-4.06,10.48-7.43,3.34-2.94,6.3-6.28,8.82-9.94,2.58-3.7,5.16-8.05,7.7-12.88,2.51-4.82,5.01-10.3,7.45-16.31,2.44-6.04,5.07-12.78,7.78-20.03l28.23-71.48h-13.08Z"/>
  </g>
</svg>