<?xml version="1.0" encoding="UTF-8"?>
<svg id="Layer_2" data-name="Layer 2" xmlns="http://www.w3.org/2000/svg" viewBox="0 0 3587.24 2895.9">
  <defs>
    <style>
      .cls-1 {
        fill: #231916;
        fill-rule: evenodd;
      }
    </style>
  </defs>
  <g id="Layer_1-2" data-name="Layer 1">
    <g>
      <path class="cls-1" d="m0,1344.2h22.72c74.59,202.66,508.41,358.22,1032.51,358.22,230.27,0,443.07-30.04,615.69-80.89-43.33,113.51-67.05,235.45-67.05,362.61,0,39.87,2.39,79.17,6.92,117.93C1030.22,2266.59,221.25,2144.56,0,1796.05v-451.85Z"/>
      <path class="cls-1" d="m0,678.61h22.72c74.59,202.73,508.41,358.22,1032.51,358.22s957.87-155.49,1032.46-358.22h14.17l3.01,413.17c-112.77,73.95-210.89,165.39-289.69,269.9C1240.4,1627.95,248.74,1522.31,0,1130.47v-451.85Z"/>
      <path class="cls-1" d="m1069.17,0c576.65,0,1043.97,188.08,1043.97,420.24s-467.32,420.35-1043.97,420.35S25.29,652.48,25.29,420.24,492.7,0,1069.17,0Z"/>
      <path class="cls-1" d="m7.06,2009.79h22.72c74.5,202.66,508.41,358.15,1032.42,358.15,219.15,0,422.45-27.23,590.3-73.57,44.62,138.88,118.45,266.32,214.95,376.35-566.39,293.72-1605.06,193.21-1860.38-209.08v-451.85Z"/>
      <path class="cls-1" d="m2697.66,1116.72c491.41,0,889.58,398.26,889.58,889.58s-398.16,889.6-889.58,889.6-889.48-398.26-889.48-889.6,398.07-889.58,889.48-889.58h0Zm396.87,560.4c-21.24-42.69-46.53-76.76-76.6-102.61-30.02-26.01-63.38-45.79-99.65-59.54-36.32-13.74-74.02-23.46-113.82-29.04v-121.41h-177.15v121.41c-32.64,3.75-64.52,10.43-95.83,19.79-31.35,9.07-60.66,21.33-88.15,36.75-27.11,15.01-51.3,33.69-72.21,55.5-21.05,21.62-37.56,47.01-49.44,75.86-11.74,28.78-17.99,61.56-17.99,98.12,0,46.01,7.54,84.85,21.62,116.73,14.51,31.88,34.27,58.08,59.75,78.51,25.49,20.52,54.79,36.84,88.34,48.82,33.31,12.19,68.87,21.71,107.33,28.42,38.32,6.49,77.36,12.07,117.64,16.3,32.83,3.67,63.76,8.8,93.11,15.49,29.3,6.59,55.31,15.39,78.22,26.11,23.1,11,40.85,24.36,54.26,40.68,12.98,16.04,19.76,35.55,19.95,58.63-.19,27.2-6.97,50.49-19.95,69.73-13.03,19.33-30.97,34.91-53.5,47.17-22.91,12.1-48.39,20.9-77.17,26.75-28.92,5.61-58.99,8.35-90.68,8.35-29.16,0-58.08-3.48-87.05-10.26-28.97-6.97-55.69-16.68-80.99-29.52-25.49-12.72-47.63-28.01-66.72-46.17-19.04-17.94-33.17-38.2-42.86-60.47l-164.55,69.72c16.51,38.39,37.56,71.66,62.85,99.96,25.49,28.4,54.26,52.31,86.48,71.63,32.07,19.33,66.53,34.46,103.56,45.36,36.6,10.91,74.74,18.14,113.96,21.62v132.48h177.15v-139.55c43.62-3.2,85.04-12,124.61-26.65,39.42-14.65,74.59-34.91,105.38-60.92,31.16-25.84,55.5-56.98,73.3-93.73,17.75-36.46,26.73-78.34,27.3-125.51-.19-48.82-8.26-90.25-24.01-123.77-16.13-33.72-37.75-61.37-65.62-83.18-27.82-21.62-59.37-39.04-95.45-51.85-35.75-12.84-73.83-23-114.16-30.23-40.33-7.25-80.99-13.2-122.03-17.97-29.68-3.2-57.89-7.42-85.04-12-27.11-4.94-51.3-11.45-72.54-20.07-21.62-8.52-38.47-19.97-50.78-34.53-12.6-14.75-18.85-33.26-19.23-56.08.38-24.46,6.44-44.88,18.52-61.66,12.07-16.94,28.4-30.4,48.92-40.66,20.9-10.26,44.53-17.42,71.11-22.1,26.39-4.65,54.21-6.94,83.57-6.78,24,0,48.15,2.84,72.16,8.16,24,5.39,46.72,12.81,68.2,22.36,21.24,9.43,40.14,20.88,56.79,33.72,16.46,12.72,29.3,26.75,38.47,41.85l150.62-69.72Z"/>
    </g>
  </g>
</svg>