<?xml version="1.0" standalone="no"?>
<!DOCTYPE svg PUBLIC "-//W3C//DTD SVG 20010904//EN"
 "http://www.w3.org/TR/2001/REC-SVG-20010904/DTD/svg10.dtd">
<svg version="1.0" xmlns="http://www.w3.org/2000/svg"
 width="640.000000pt" height="640.000000pt" viewBox="0 0 640.000000 640.000000"
 preserveAspectRatio="xMidYMid meet">

<g transform="translate(0.000000,640.000000) scale(0.100000,-0.100000)"
fill="#000000" stroke="none">
<path d="M1418 3839 c-283 -37 -556 -244 -679 -514 -91 -201 -96 -465 -13
-677 101 -259 333 -460 612 -531 l87 -22 1725 0 c1620 0 1729 1 1795 18 232
59 417 186 540 372 101 153 145 299 145 485 0 189 -43 333 -145 486 -118 177
-294 303 -511 366 l-79 23 -1705 1 c-938 1 -1735 -2 -1772 -7z m3454 -250
c244 -50 442 -239 499 -479 17 -71 17 -209 0 -280 -54 -227 -237 -411 -467
-470 -75 -20 -117 -20 -1753 -20 -1779 1 -1724 -1 -1847 47 -166 65 -315 232
-370 418 -25 82 -25 248 0 330 66 221 256 404 468 450 52 11 357 14 1740 14
1166 1 1693 -2 1730 -10z"/>
<path d="M1441 3484 c-122 -33 -218 -97 -294 -196 -78 -104 -113 -221 -104
-353 14 -214 149 -392 353 -467 49 -18 87 -22 227 -26 l167 -4 0 531 0 531
-147 -1 c-96 0 -167 -5 -202 -15z"/>
<path d="M1880 2970 l0 -530 295 0 295 0 0 530 0 530 -295 0 -295 0 0 -530z"/>
<path d="M2560 2970 l0 -530 295 0 295 0 0 530 0 530 -295 0 -295 0 0 -530z"/>
</g>
</svg>
