<svg version="1.1" id="Layer_1" xmlns="http://www.w3.org/2000/svg" xmlns:xlink="http://www.w3.org/1999/xlink" x="0px" y="0px"
	 width="100%" viewBox="0 0 640 640" enable-background="new 0 0 640 640" xml:space="preserve">
<path fill="#FEFEFE" opacity="1.000000" stroke="none" 
	d="
M349.000000,641.000000 
	C232.666687,641.000000 116.833374,641.000000 1.000047,641.000000 
	C1.000031,427.666718 1.000031,214.333450 1.000015,1.000133 
	C214.333237,1.000088 427.666473,1.000088 640.999756,1.000044 
	C640.999878,214.333191 640.999878,427.666382 640.999939,640.999756 
	C543.833313,641.000000 446.666656,641.000000 349.000000,641.000000 
M110.485550,273.499695 
	C110.485542,347.645355 110.476875,421.790985 110.489990,495.936646 
	C110.494919,523.831909 129.683975,543.160767 157.419037,543.165405 
	C261.389587,543.182861 365.360168,543.181458 469.330719,543.166199 
	C497.182129,543.162170 516.299988,523.972595 516.303772,496.048035 
	C516.315186,411.738586 516.307861,327.429108 516.307861,243.119644 
	C516.307861,241.372635 516.307861,239.625641 516.307861,237.866547 
	C380.706451,237.866547 245.813797,237.866547 110.485580,237.866547 
	C110.485580,249.585861 110.485580,261.042755 110.485550,273.499695 
M515.258301,177.361084 
	C511.588409,158.743637 495.351013,141.981491 478.017212,139.196136 
	C478.017212,146.887299 477.767395,154.541641 478.098022,162.170807 
	C478.352600,168.045593 479.138611,173.919754 480.048553,179.737839 
	C481.108887,186.517456 479.822296,192.408936 474.200104,196.673767 
	C468.700439,200.845673 462.629669,201.462921 456.485962,198.106888 
	C450.150238,194.645950 447.286865,189.094498 448.070343,181.966705 
	C448.370728,179.234024 450.272247,176.619629 450.329071,173.927795 
	C450.584991,161.804230 450.440704,149.672195 450.440704,137.318970 
	C427.398315,137.318970 404.844604,137.318970 381.999115,137.318970 
	C381.999115,146.723495 381.791779,155.868835 382.082855,164.998276 
	C382.238281,169.872772 382.972260,174.777328 383.949127,179.565506 
	C385.335205,186.359451 382.993439,193.180771 377.366089,197.178436 
	C371.849182,201.097672 364.229248,201.115494 358.736206,197.222046 
	C353.114563,193.237457 350.715454,186.301270 352.099701,179.623474 
	C353.092041,174.836227 353.831146,169.927185 353.985474,165.050400 
	C354.278168,155.798950 354.070190,146.531647 354.070190,137.294098 
	C331.006378,137.294098 308.579315,137.294098 285.739380,137.294098 
	C285.739380,148.494217 285.655212,159.457382 285.801575,170.417480 
	C285.835999,172.995529 286.345825,175.663712 287.161072,178.116226 
	C289.337646,184.664215 287.864868,191.199982 282.825470,195.862228 
	C278.146820,200.190750 270.964874,201.388153 265.199188,198.800964 
	C259.116791,196.071686 255.260361,190.041153 255.778961,183.204025 
	C255.998337,180.311829 257.803223,177.506119 257.858887,174.641113 
	C258.100372,162.209671 257.962463,149.770844 257.962463,137.196854 
	C234.979050,137.196854 212.525452,137.196854 189.441025,137.196854 
	C189.441025,138.954208 189.441055,140.574768 189.441040,142.195343 
	C189.440948,151.695160 189.360580,161.196167 189.500046,170.693939 
	C189.532822,172.925781 190.021759,175.251862 190.793808,177.353485 
	C193.405807,184.463608 191.756836,191.629730 186.169724,196.353745 
	C180.906937,200.803558 173.024979,201.378021 167.107849,197.742996 
	C161.035690,194.012711 158.452881,186.881546 159.888168,179.566330 
	C160.955963,174.124222 161.672104,168.554321 161.881683,163.016235 
	C162.206879,154.423172 161.967545,145.808746 161.967545,137.239487 
	C139.165787,136.592026 116.462463,152.798172 112.453873,174.981140 
	C109.474220,191.470078 110.219795,208.632202 109.293648,225.725082 
	C245.844757,225.725082 381.066620,225.725082 517.195496,225.725082 
	C516.653931,209.667038 516.122375,193.905899 515.258301,177.361084 
M168.357437,121.850616 
	C168.357437,140.154846 168.344177,158.459091 168.364105,176.763306 
	C168.371841,183.853180 170.666229,187.097061 175.596344,187.153107 
	C180.578110,187.209763 182.976440,183.921692 182.982544,176.980011 
	C182.991760,166.496674 182.985901,156.013351 182.984695,145.530014 
	C182.983673,136.710709 183.261536,127.876366 182.791519,119.082062 
	C182.664703,116.709396 180.773849,113.568649 178.757874,112.417267 
	C176.969177,111.395683 173.038162,111.746689 171.581421,113.116913 
	C169.708572,114.878540 169.361832,118.262627 168.357437,121.850616 
M456.998779,135.500671 
	C456.999146,150.123718 456.951172,164.747025 457.027252,179.369690 
	C457.052368,184.195938 459.931610,187.135529 464.208679,187.126022 
	C468.399811,187.116699 471.273132,184.499344 471.303101,179.828339 
	C471.433075,159.556580 471.429688,139.283264 471.327667,119.011253 
	C471.303986,114.310226 468.017059,111.233261 463.919983,111.415077 
	C459.918732,111.592651 457.134796,114.542740 457.028046,119.047951 
	C456.906067,124.196373 456.999146,129.349884 456.998779,135.500671 
M360.882690,121.731003 
	C360.885590,141.012955 360.841705,160.295090 360.924194,179.576706 
	C360.944916,184.418945 363.891205,187.242401 368.263184,187.120636 
	C372.438629,187.004349 375.106995,184.312347 375.125153,179.612991 
	C375.203613,159.334076 375.206726,139.054459 375.119049,118.775620 
	C375.099976,114.356628 371.998413,111.224594 368.016296,111.458382 
	C363.850983,111.702911 361.254852,113.934570 360.918884,118.309853 
	C360.855377,119.136673 360.892548,119.971207 360.882690,121.731003 
M279.073334,148.500015 
	C279.073029,139.000076 279.113617,129.499908 279.056366,120.000313 
	C279.024384,114.697197 276.381470,111.546997 272.066284,111.410072 
	C267.644135,111.269768 264.732513,114.584274 264.717957,120.128708 
	C264.666718,139.628448 264.662323,159.128494 264.720825,178.628189 
	C264.737488,184.192734 267.195251,187.027222 271.690460,187.127121 
	C276.358948,187.230881 279.025116,184.194321 279.057587,178.499741 
	C279.112671,168.833466 279.073090,159.166626 279.073334,148.500015 
z"/>
<path fill="#030303" opacity="1.000000" stroke="none" 
	d="
M110.485565,272.999695 
	C110.485580,261.042755 110.485580,249.585861 110.485580,237.866547 
	C245.813797,237.866547 380.706451,237.866547 516.307861,237.866547 
	C516.307861,239.625641 516.307861,241.372635 516.307861,243.119644 
	C516.307861,327.429108 516.315186,411.738586 516.303772,496.048035 
	C516.299988,523.972595 497.182129,543.162170 469.330719,543.166199 
	C365.360168,543.181458 261.389587,543.182861 157.419037,543.165405 
	C129.683975,543.160767 110.494919,523.831909 110.489990,495.936646 
	C110.476875,421.790985 110.485542,347.645355 110.485565,272.999695 
M336.845276,449.356140 
	C336.845276,439.106049 336.845276,428.855927 336.845276,418.532837 
	C324.019653,418.532837 311.812134,418.532837 299.533875,418.532837 
	C299.533875,431.063629 299.533875,443.273499 299.533875,455.527771 
	C312.065887,455.527771 324.275970,455.527771 336.845276,455.527771 
	C336.845276,453.579742 336.845276,451.946228 336.845276,449.356140 
M336.845276,280.609161 
	C336.845276,278.196136 336.845276,275.783112 336.845276,273.544708 
	C323.867218,273.544708 311.659546,273.544708 299.611267,273.544708 
	C299.611267,286.145569 299.611267,298.352722 299.611267,310.391418 
	C312.224274,310.391418 324.436981,310.391418 336.845276,310.391418 
	C336.845276,300.525787 336.845276,291.053253 336.845276,280.609161 
M196.627625,431.520599 
	C196.627625,427.234894 196.627625,422.949188 196.627625,418.548065 
	C183.830841,418.548065 171.616211,418.548065 159.455505,418.548065 
	C159.455505,431.115448 159.455505,443.345123 159.455505,455.609985 
	C171.903976,455.609985 183.998917,455.609985 196.627594,455.609985 
	C196.627594,447.761597 196.627594,440.138214 196.627625,431.520599 
M459.498932,418.223694 
	C453.030609,418.223694 446.562317,418.223694 439.904724,418.223694 
	C439.904724,430.942291 439.904724,443.295685 439.904724,455.563110 
	C452.416504,455.563110 464.516083,455.563110 476.680878,455.563110 
	C476.680878,443.054108 476.680878,430.820923 476.680878,418.223694 
	C471.099152,418.223694 465.798401,418.223694 459.498932,418.223694 
M346.030884,453.216522 
	C346.530792,454.077576 346.854218,455.431885 347.570557,455.688232 
	C348.752106,456.111053 350.187592,455.834808 351.516052,455.835175 
	C362.061646,455.838135 372.607239,455.836853 383.177917,455.836853 
	C383.177917,442.935791 383.177917,430.721405 383.177917,418.562378 
	C370.644562,418.562378 358.441833,418.562378 346.030029,418.562378 
	C346.030029,430.020111 346.030029,441.140472 346.030884,453.216522 
M350.690796,273.163177 
	C349.248596,273.239929 347.806427,273.316681 346.276855,273.398071 
	C346.276855,285.923706 346.276855,298.130981 346.276855,310.483337 
	C358.703461,310.483337 370.881470,310.483337 383.223999,310.483337 
	C383.223999,297.974060 383.223999,285.758850 383.223999,273.163147 
	C372.516815,273.163147 362.086761,273.163147 350.690796,273.163177 
M469.400024,310.776306 
	C471.836853,310.776306 474.273682,310.776306 476.637878,310.776306 
	C476.637878,297.903839 476.637878,285.665375 476.637878,273.384644 
	C464.208374,273.384644 452.112244,273.384644 439.774628,273.384644 
	C439.774628,285.855072 439.774628,298.103546 439.774628,310.776306 
	C449.507751,310.776306 458.966919,310.776306 469.400024,310.776306 
M424.368042,455.835724 
	C426.147919,455.835724 427.927795,455.835724 429.883789,455.835724 
	C429.883789,443.124878 429.883789,430.907410 429.883789,418.565186 
	C417.468292,418.565186 405.287567,418.565186 393.218445,418.565186 
	C393.218445,431.124969 393.218445,443.341766 393.218445,455.835724 
	C403.499451,455.835724 413.448639,455.835724 424.368042,455.835724 
M332.330261,504.033661 
	C333.758392,503.938293 335.186523,503.842896 336.581604,503.749695 
	C336.581604,491.283752 336.581604,479.205780 336.581604,466.979126 
	C324.103943,466.979126 311.881805,466.979126 299.574677,466.979126 
	C299.574677,479.457062 299.574677,491.652466 299.574677,504.033752 
	C310.402527,504.033752 320.881409,504.033752 332.330261,504.033661 
M159.111938,495.446014 
	C159.111938,498.214539 159.111938,500.983032 159.111938,503.736969 
	C171.872299,503.736969 184.072586,503.736969 196.392029,503.736969 
	C196.392029,491.370667 196.392029,479.303009 196.392029,466.967468 
	C183.969788,466.967468 171.769775,466.967468 159.111938,466.967468 
	C159.111938,476.258911 159.111938,485.358154 159.111938,495.446014 
M252.699692,437.499786 
	C252.699692,443.450684 252.699692,449.401611 252.699692,455.537811 
	C265.359192,455.537811 277.559631,455.537811 289.738647,455.537811 
	C289.738647,443.011841 289.738647,430.786102 289.738647,418.454041 
	C277.370239,418.454041 265.297974,418.454041 252.699692,418.454041 
	C252.699692,424.613739 252.699692,430.556946 252.699692,437.499786 
M243.227783,436.500275 
	C243.227783,430.559143 243.227783,424.618011 243.227783,418.556641 
	C230.526321,418.556641 218.332153,418.556641 206.257294,418.556641 
	C206.257294,431.115906 206.257294,443.340942 206.257294,455.589203 
	C218.656036,455.589203 230.723938,455.589203 243.227783,455.589203 
	C243.227783,449.398865 243.227783,443.449371 243.227783,436.500275 
M325.477264,369.966248 
	C316.871002,369.966248 308.264709,369.966248 299.569977,369.966248 
	C299.569977,382.629089 299.569977,394.819946 299.569977,406.930908 
	C312.130127,406.930908 324.341522,406.930908 336.587860,406.930908 
	C336.587860,394.491211 336.587860,382.422424 336.587860,369.966248 
	C333.053009,369.966248 329.760773,369.966248 325.477264,369.966248 
M178.499542,369.965393 
	C172.095779,369.965393 165.692017,369.965393 159.352264,369.965393 
	C159.352264,382.733826 159.352264,394.802002 159.352264,407.016174 
	C171.792770,407.016174 183.991440,407.016174 196.270493,407.016174 
	C196.270493,394.543427 196.270493,382.359192 196.270493,369.965393 
	C190.451385,369.965393 184.974899,369.965393 178.499542,369.965393 
M299.224915,343.495392 
	C299.224915,348.594299 299.224915,353.693207 299.224915,358.687805 
	C312.096100,358.687805 324.331085,358.687805 336.601929,358.687805 
	C336.601929,346.286591 336.601929,334.201294 336.601929,321.877075 
	C324.143982,321.877075 311.920166,321.877075 299.224915,321.877075 
	C299.224915,328.920746 299.224915,335.709106 299.224915,343.495392 
M234.443390,310.775085 
	C237.226242,310.775085 240.009109,310.775085 242.977814,310.775085 
	C242.977814,298.050781 242.977814,285.830750 242.977814,273.490112 
	C230.530838,273.490112 218.336334,273.490112 206.258972,273.490112 
	C206.258972,286.041290 206.258972,298.264038 206.258972,310.775085 
	C215.543060,310.775085 224.499237,310.775085 234.443390,310.775085 
M252.699692,285.510742 
	C252.699692,293.783112 252.699692,302.055481 252.699692,310.445496 
	C265.430817,310.445496 277.631989,310.445496 289.706879,310.445496 
	C289.706879,297.883118 289.706879,285.652771 289.706879,273.410431 
	C277.302521,273.410431 265.226654,273.410431 252.699692,273.410431 
	C252.699692,277.272583 252.699692,280.894714 252.699692,285.510742 
M429.881378,310.134979 
	C429.881378,297.912048 429.881378,285.689148 429.881378,273.409729 
	C417.415314,273.409729 405.357117,273.409729 393.117310,273.409729 
	C393.117310,285.874390 393.117310,298.093079 393.117310,310.708344 
	C405.272156,310.708344 417.199097,310.708344 429.881378,310.134979 
M196.615234,333.524536 
	C196.615234,329.732300 196.615234,325.940094 196.615234,321.882874 
	C183.953720,321.882874 171.750443,321.882874 159.399277,321.882874 
	C159.399277,334.323547 159.399277,346.522644 159.399277,358.692230 
	C171.893341,358.692230 184.097534,358.692230 196.615234,358.692230 
	C196.615234,350.428894 196.615234,342.472565 196.615234,333.524536 
M423.437622,358.994995 
	C425.554626,358.994995 427.671631,358.994995 429.811066,358.994995 
	C429.811066,346.285095 429.811066,334.048157 429.811066,321.876770 
	C417.426758,321.876770 405.339813,321.876770 393.202393,321.876770 
	C393.202393,334.348907 393.202393,346.566376 393.202393,358.994995 
	C403.156128,358.994995 412.802124,358.994995 423.437622,358.994995 
M252.711472,477.504974 
	C252.711472,486.241760 252.711472,494.978546 252.711472,503.727173 
	C265.438110,503.727173 277.631134,503.727173 289.695679,503.727173 
	C289.695679,491.221802 289.695679,479.017487 289.695679,466.944092 
	C277.287659,466.944092 265.210968,466.944092 252.711472,466.944092 
	C252.711472,470.276794 252.711472,473.392303 252.711472,477.504974 
M226.499512,466.711487 
	C219.739380,466.711487 212.979263,466.711487 206.294525,466.711487 
	C206.294525,479.499481 206.294525,491.713287 206.294525,503.759399 
	C218.758545,503.759399 230.863373,503.759399 242.851135,503.759399 
	C242.851135,491.267334 242.851135,479.044617 242.851135,466.711487 
	C237.490005,466.711487 232.494370,466.711487 226.499512,466.711487 
M205.936584,325.549316 
	C205.936584,336.616272 205.936584,347.683228 205.936584,358.674500 
	C218.708038,358.674500 230.915512,358.674500 242.834015,358.674500 
	C242.834015,346.143555 242.834015,333.934875 242.834015,321.625336 
	C231.317017,321.625336 220.182281,321.679443 209.048920,321.580353 
	C206.778717,321.560120 205.485565,321.996490 205.936584,325.549316 
M476.962097,377.564972 
	C476.962097,375.128571 476.962097,372.692139 476.962097,370.225891 
	C464.195709,370.225891 451.956451,370.225891 439.714203,370.225891 
	C439.714203,382.570129 439.714203,394.660614 439.714203,407.019440 
	C452.119690,407.019440 464.327698,407.019440 476.962097,407.019440 
	C476.962097,397.434784 476.962097,387.991119 476.962097,377.564972 
M430.106750,390.499115 
	C430.106750,383.741638 430.106750,376.984192 430.106750,370.181976 
	C417.455750,370.181976 405.372375,370.181976 393.173828,370.181976 
	C393.173828,382.607117 393.173828,394.822815 393.173828,407.073364 
	C405.534027,407.073364 417.612457,407.073364 430.106750,407.073364 
	C430.106750,401.745392 430.106750,396.621765 430.106750,390.499115 
M350.628052,369.973267 
	C349.193024,369.973267 347.758026,369.973267 346.360046,369.973267 
	C346.360046,382.723389 346.360046,394.933350 346.360046,406.897583 
	C358.903412,406.897583 371.121918,406.897583 383.227844,406.897583 
	C383.227844,394.435089 383.227844,382.366394 383.227844,369.973236 
	C372.517639,369.973236 362.062134,369.973236 350.628052,369.973267 
M252.711472,327.504150 
	C252.711472,337.903687 252.711472,348.303223 252.711472,358.681885 
	C265.465515,358.681885 277.666718,358.681885 289.686920,358.681885 
	C289.686920,346.156372 289.686920,333.946167 289.686920,321.880249 
	C277.269989,321.880249 265.193329,321.880249 252.711487,321.880249 
	C252.711487,323.586884 252.711487,325.043396 252.711472,327.504150 
M270.500549,369.974152 
	C264.597290,369.974152 258.694031,369.974152 252.960175,369.974152 
	C252.960175,382.754059 252.960175,394.826721 252.960175,407.004761 
	C265.385468,407.004761 277.560242,407.004761 289.711548,407.004761 
	C289.711548,394.526764 289.711548,382.335083 289.711548,369.974152 
	C283.432098,369.974152 277.465973,369.974152 270.500549,369.974152 
M234.470963,369.974152 
	C225.035110,369.974152 215.599258,369.974152 206.303497,369.974152 
	C206.303497,382.759094 206.303497,394.977295 206.303497,406.983093 
	C218.763031,406.983093 230.854279,406.983093 243.023087,406.983093 
	C243.023087,394.584747 243.023087,382.492645 243.023087,369.974152 
	C240.377487,369.974152 237.918747,369.974152 234.470963,369.974152 
M439.514923,343.498169 
	C439.514923,348.577271 439.514923,353.656403 439.514923,358.688171 
	C452.319519,358.688171 464.540192,358.688171 476.598755,358.688171 
	C476.598755,346.175385 476.598755,333.973022 476.598755,321.894684 
	C464.142670,321.894684 452.051392,321.894684 439.514862,321.894684 
	C439.514862,328.937866 439.514862,335.718445 439.514923,343.498169 
M346.041473,323.611237 
	C346.041473,335.352448 346.041473,347.093628 346.041473,358.668518 
	C358.906647,358.668518 371.130371,358.668518 383.211487,358.668518 
	C383.211487,346.251068 383.211487,334.162476 383.211487,321.718079 
	C371.003479,321.718079 359.064301,321.710388 347.125366,321.756195 
	C346.777283,321.757538 346.431335,322.323822 346.041473,323.611237 
z"/>
<path fill="#010101" opacity="1.000000" stroke="none" 
	d="
M515.424561,177.752930 
	C516.122375,193.905899 516.653931,209.667038 517.195496,225.725082 
	C381.066620,225.725082 245.844757,225.725082 109.293648,225.725082 
	C110.219795,208.632202 109.474220,191.470078 112.453873,174.981140 
	C116.462463,152.798172 139.165787,136.592026 161.967545,137.239487 
	C161.967545,145.808746 162.206879,154.423172 161.881683,163.016235 
	C161.672104,168.554321 160.955963,174.124222 159.888168,179.566330 
	C158.452881,186.881546 161.035690,194.012711 167.107849,197.742996 
	C173.024979,201.378021 180.906937,200.803558 186.169724,196.353745 
	C191.756836,191.629730 193.405807,184.463608 190.793808,177.353485 
	C190.021759,175.251862 189.532822,172.925781 189.500046,170.693939 
	C189.360580,161.196167 189.440948,151.695160 189.441040,142.195343 
	C189.441055,140.574768 189.441025,138.954208 189.441025,137.196854 
	C212.525452,137.196854 234.979050,137.196854 257.962463,137.196854 
	C257.962463,149.770844 258.100372,162.209671 257.858887,174.641113 
	C257.803223,177.506119 255.998337,180.311829 255.778961,183.204025 
	C255.260361,190.041153 259.116791,196.071686 265.199188,198.800964 
	C270.964874,201.388153 278.146820,200.190750 282.825470,195.862228 
	C287.864868,191.199982 289.337646,184.664215 287.161072,178.116226 
	C286.345825,175.663712 285.835999,172.995529 285.801575,170.417480 
	C285.655212,159.457382 285.739380,148.494217 285.739380,137.294098 
	C308.579315,137.294098 331.006378,137.294098 354.070190,137.294098 
	C354.070190,146.531647 354.278168,155.798950 353.985474,165.050400 
	C353.831146,169.927185 353.092041,174.836227 352.099701,179.623474 
	C350.715454,186.301270 353.114563,193.237457 358.736206,197.222046 
	C364.229248,201.115494 371.849182,201.097672 377.366089,197.178436 
	C382.993439,193.180771 385.335205,186.359451 383.949127,179.565506 
	C382.972260,174.777328 382.238281,169.872772 382.082855,164.998276 
	C381.791779,155.868835 381.999115,146.723495 381.999115,137.318970 
	C404.844604,137.318970 427.398315,137.318970 450.440704,137.318970 
	C450.440704,149.672195 450.584991,161.804230 450.329071,173.927795 
	C450.272247,176.619629 448.370728,179.234024 448.070343,181.966705 
	C447.286865,189.094498 450.150238,194.645950 456.485962,198.106888 
	C462.629669,201.462921 468.700439,200.845673 474.200104,196.673767 
	C479.822296,192.408936 481.108887,186.517456 480.048553,179.737839 
	C479.138611,173.919754 478.352600,168.045593 478.098022,162.170807 
	C477.767395,154.541641 478.017212,146.887299 478.017212,139.196136 
	C495.351013,141.981491 511.588409,158.743637 515.424561,177.752930 
z"/>
<path fill="#080808" opacity="1.000000" stroke="none" 
	d="
M168.357574,121.399208 
	C169.361832,118.262627 169.708572,114.878540 171.581421,113.116913 
	C173.038162,111.746689 176.969177,111.395683 178.757874,112.417267 
	C180.773849,113.568649 182.664703,116.709396 182.791519,119.082062 
	C183.261536,127.876366 182.983673,136.710709 182.984695,145.530014 
	C182.985901,156.013351 182.991760,166.496674 182.982544,176.980011 
	C182.976440,183.921692 180.578110,187.209763 175.596344,187.153107 
	C170.666229,187.097061 168.371841,183.853180 168.364105,176.763306 
	C168.344177,158.459091 168.357437,140.154846 168.357574,121.399208 
z"/>
<path fill="#010101" opacity="1.000000" stroke="none" 
	d="
M456.998779,135.000931 
	C456.999146,129.349884 456.906067,124.196373 457.028046,119.047951 
	C457.134796,114.542740 459.918732,111.592651 463.919983,111.415077 
	C468.017059,111.233261 471.303986,114.310226 471.327667,119.011253 
	C471.429688,139.283264 471.433075,159.556580 471.303101,179.828339 
	C471.273132,184.499344 468.399811,187.116699 464.208679,187.126022 
	C459.931610,187.135529 457.052368,184.195938 457.027252,179.369690 
	C456.951172,164.747025 456.999146,150.123718 456.998779,135.000931 
z"/>
<path fill="#010101" opacity="1.000000" stroke="none" 
	d="
M360.882996,121.266594 
	C360.892548,119.971207 360.855377,119.136673 360.918884,118.309853 
	C361.254852,113.934570 363.850983,111.702911 368.016296,111.458382 
	C371.998413,111.224594 375.099976,114.356628 375.119049,118.775620 
	C375.206726,139.054459 375.203613,159.334076 375.125153,179.612991 
	C375.106995,184.312347 372.438629,187.004349 368.263184,187.120636 
	C363.891205,187.242401 360.944916,184.418945 360.924194,179.576706 
	C360.841705,160.295090 360.885590,141.012955 360.882996,121.266594 
z"/>
<path fill="#010101" opacity="1.000000" stroke="none" 
	d="
M279.073334,149.000031 
	C279.073090,159.166626 279.112671,168.833466 279.057587,178.499741 
	C279.025116,184.194321 276.358948,187.230881 271.690460,187.127121 
	C267.195251,187.027222 264.737488,184.192734 264.720825,178.628189 
	C264.662323,159.128494 264.666718,139.628448 264.717957,120.128708 
	C264.732513,114.584274 267.644135,111.269768 272.066284,111.410072 
	C276.381470,111.546997 279.024384,114.697197 279.056366,120.000313 
	C279.113617,129.499908 279.073029,139.000076 279.073334,149.000031 
z"/>
<path fill="#F8F8F8" opacity="1.000000" stroke="none" 
	d="
M336.845276,449.834442 
	C336.845276,451.946228 336.845276,453.579742 336.845276,455.527771 
	C324.275970,455.527771 312.065887,455.527771 299.533875,455.527771 
	C299.533875,443.273499 299.533875,431.063629 299.533875,418.532837 
	C311.812134,418.532837 324.019653,418.532837 336.845276,418.532837 
	C336.845276,428.855927 336.845276,439.106049 336.845276,449.834442 
z"/>
<path fill="#F8F8F8" opacity="1.000000" stroke="none" 
	d="
M336.845276,281.094910 
	C336.845276,291.053253 336.845276,300.525787 336.845276,310.391418 
	C324.436981,310.391418 312.224274,310.391418 299.611267,310.391418 
	C299.611267,298.352722 299.611267,286.145569 299.611267,273.544708 
	C311.659546,273.544708 323.867218,273.544708 336.845276,273.544708 
	C336.845276,275.783112 336.845276,278.196136 336.845276,281.094910 
z"/>
<path fill="#F7F7F7" opacity="1.000000" stroke="none" 
	d="
M196.627609,432.017700 
	C196.627594,440.138214 196.627594,447.761597 196.627594,455.609985 
	C183.998917,455.609985 171.903976,455.609985 159.455505,455.609985 
	C159.455505,443.345123 159.455505,431.115448 159.455505,418.548065 
	C171.616211,418.548065 183.830841,418.548065 196.627625,418.548065 
	C196.627625,422.949188 196.627625,427.234894 196.627609,432.017700 
z"/>
<path fill="#FBFBFB" opacity="1.000000" stroke="none" 
	d="
M459.998291,418.223694 
	C465.798401,418.223694 471.099152,418.223694 476.680878,418.223694 
	C476.680878,430.820923 476.680878,443.054108 476.680878,455.563110 
	C464.516083,455.563110 452.416504,455.563110 439.904724,455.563110 
	C439.904724,443.295685 439.904724,430.942291 439.904724,418.223694 
	C446.562317,418.223694 453.030609,418.223694 459.998291,418.223694 
z"/>
<path fill="#FBFBFB" opacity="1.000000" stroke="none" 
	d="
M346.030457,452.738708 
	C346.030029,441.140472 346.030029,430.020111 346.030029,418.562378 
	C358.441833,418.562378 370.644562,418.562378 383.177917,418.562378 
	C383.177917,430.721405 383.177917,442.935791 383.177917,455.836853 
	C372.607239,455.836853 362.061646,455.838135 351.516052,455.835175 
	C350.187592,455.834808 348.752106,456.111053 347.570557,455.688232 
	C346.854218,455.431885 346.530792,454.077576 346.030457,452.738708 
z"/>
<path fill="#FBFBFB" opacity="1.000000" stroke="none" 
	d="
M351.173737,273.163147 
	C362.086761,273.163147 372.516815,273.163147 383.223999,273.163147 
	C383.223999,285.758850 383.223999,297.974060 383.223999,310.483337 
	C370.881470,310.483337 358.703461,310.483337 346.276855,310.483337 
	C346.276855,298.130981 346.276855,285.923706 346.276855,273.398071 
	C347.806427,273.316681 349.248596,273.239929 351.173737,273.163147 
z"/>
<path fill="#FBFBFB" opacity="1.000000" stroke="none" 
	d="
M468.913025,310.776306 
	C458.966919,310.776306 449.507751,310.776306 439.774628,310.776306 
	C439.774628,298.103546 439.774628,285.855072 439.774628,273.384644 
	C452.112244,273.384644 464.208374,273.384644 476.637878,273.384644 
	C476.637878,285.665375 476.637878,297.903839 476.637878,310.776306 
	C474.273682,310.776306 471.836853,310.776306 468.913025,310.776306 
z"/>
<path fill="#FBFBFB" opacity="1.000000" stroke="none" 
	d="
M423.882935,455.835724 
	C413.448639,455.835724 403.499451,455.835724 393.218445,455.835724 
	C393.218445,443.341766 393.218445,431.124969 393.218445,418.565186 
	C405.287567,418.565186 417.468292,418.565186 429.883789,418.565186 
	C429.883789,430.907410 429.883789,443.124878 429.883789,455.835724 
	C427.927795,455.835724 426.147919,455.835724 423.882935,455.835724 
z"/>
<path fill="#FBFBFB" opacity="1.000000" stroke="none" 
	d="
M331.845276,504.033691 
	C320.881409,504.033752 310.402527,504.033752 299.574677,504.033752 
	C299.574677,491.652466 299.574677,479.457062 299.574677,466.979126 
	C311.881805,466.979126 324.103943,466.979126 336.581604,466.979126 
	C336.581604,479.205780 336.581604,491.283752 336.581604,503.749695 
	C335.186523,503.842896 333.758392,503.938293 331.845276,504.033691 
z"/>
<path fill="#FBFBFB" opacity="1.000000" stroke="none" 
	d="
M159.111938,494.951721 
	C159.111938,485.358154 159.111938,476.258911 159.111938,466.967468 
	C171.769775,466.967468 183.969788,466.967468 196.392029,466.967468 
	C196.392029,479.303009 196.392029,491.370667 196.392029,503.736969 
	C184.072586,503.736969 171.872299,503.736969 159.111938,503.736969 
	C159.111938,500.983032 159.111938,498.214539 159.111938,494.951721 
z"/>
<path fill="#FBFBFB" opacity="1.000000" stroke="none" 
	d="
M252.699692,436.999939 
	C252.699692,430.556946 252.699692,424.613739 252.699692,418.454041 
	C265.297974,418.454041 277.370239,418.454041 289.738647,418.454041 
	C289.738647,430.786102 289.738647,443.011841 289.738647,455.537811 
	C277.559631,455.537811 265.359192,455.537811 252.699692,455.537811 
	C252.699692,449.401611 252.699692,443.450684 252.699692,436.999939 
z"/>
<path fill="#FBFBFB" opacity="1.000000" stroke="none" 
	d="
M243.227783,437.000061 
	C243.227783,443.449371 243.227783,449.398865 243.227783,455.589203 
	C230.723938,455.589203 218.656036,455.589203 206.257294,455.589203 
	C206.257294,443.340942 206.257294,431.115906 206.257294,418.556641 
	C218.332153,418.556641 230.526321,418.556641 243.227783,418.556641 
	C243.227783,424.618011 243.227783,430.559143 243.227783,437.000061 
z"/>
<path fill="#FBFBFB" opacity="1.000000" stroke="none" 
	d="
M325.972900,369.966248 
	C329.760773,369.966248 333.053009,369.966248 336.587860,369.966248 
	C336.587860,382.422424 336.587860,394.491211 336.587860,406.930908 
	C324.341522,406.930908 312.130127,406.930908 299.569977,406.930908 
	C299.569977,394.819946 299.569977,382.629089 299.569977,369.966248 
	C308.264709,369.966248 316.871002,369.966248 325.972900,369.966248 
z"/>
<path fill="#FBFBFB" opacity="1.000000" stroke="none" 
	d="
M178.998993,369.965393 
	C184.974899,369.965393 190.451385,369.965393 196.270493,369.965393 
	C196.270493,382.359192 196.270493,394.543427 196.270493,407.016174 
	C183.991440,407.016174 171.792770,407.016174 159.352264,407.016174 
	C159.352264,394.802002 159.352264,382.733826 159.352264,369.965393 
	C165.692017,369.965393 172.095779,369.965393 178.998993,369.965393 
z"/>
<path fill="#FBFBFB" opacity="1.000000" stroke="none" 
	d="
M299.224915,342.996399 
	C299.224915,335.709106 299.224915,328.920746 299.224915,321.877075 
	C311.920166,321.877075 324.143982,321.877075 336.601929,321.877075 
	C336.601929,334.201294 336.601929,346.286591 336.601929,358.687805 
	C324.331085,358.687805 312.096100,358.687805 299.224915,358.687805 
	C299.224915,353.693207 299.224915,348.594299 299.224915,342.996399 
z"/>
<path fill="#FBFBFB" opacity="1.000000" stroke="none" 
	d="
M233.949402,310.775085 
	C224.499237,310.775085 215.543060,310.775085 206.258972,310.775085 
	C206.258972,298.264038 206.258972,286.041290 206.258972,273.490112 
	C218.336334,273.490112 230.530838,273.490112 242.977814,273.490112 
	C242.977814,285.830750 242.977814,298.050781 242.977814,310.775085 
	C240.009109,310.775085 237.226242,310.775085 233.949402,310.775085 
z"/>
<path fill="#FBFBFB" opacity="1.000000" stroke="none" 
	d="
M252.699692,285.013794 
	C252.699692,280.894714 252.699692,277.272583 252.699692,273.410431 
	C265.226654,273.410431 277.302521,273.410431 289.706879,273.410431 
	C289.706879,285.652771 289.706879,297.883118 289.706879,310.445496 
	C277.631989,310.445496 265.430817,310.445496 252.699692,310.445496 
	C252.699692,302.055481 252.699692,293.783112 252.699692,285.013794 
z"/>
<path fill="#FBFBFB" opacity="1.000000" stroke="none" 
	d="
M429.503723,310.421661 
	C417.199097,310.708344 405.272156,310.708344 393.117310,310.708344 
	C393.117310,298.093079 393.117310,285.874390 393.117310,273.409729 
	C405.357117,273.409729 417.415314,273.409729 429.881378,273.409729 
	C429.881378,285.689148 429.881378,297.912048 429.503723,310.421661 
z"/>
<path fill="#FBFBFB" opacity="1.000000" stroke="none" 
	d="
M196.615234,334.020386 
	C196.615234,342.472565 196.615234,350.428894 196.615234,358.692230 
	C184.097534,358.692230 171.893341,358.692230 159.399277,358.692230 
	C159.399277,346.522644 159.399277,334.323547 159.399277,321.882874 
	C171.750443,321.882874 183.953720,321.882874 196.615234,321.882874 
	C196.615234,325.940094 196.615234,329.732300 196.615234,334.020386 
z"/>
<path fill="#FFFFFF" opacity="1.000000" stroke="none" 
	d="
M422.942871,358.994995 
	C412.802124,358.994995 403.156128,358.994995 393.202393,358.994995 
	C393.202393,346.566376 393.202393,334.348907 393.202393,321.876770 
	C405.339813,321.876770 417.426758,321.876770 429.811066,321.876770 
	C429.811066,334.048157 429.811066,346.285095 429.811066,358.994995 
	C427.671631,358.994995 425.554626,358.994995 422.942871,358.994995 
z"/>
<path fill="#FFFFFF" opacity="1.000000" stroke="none" 
	d="
M252.711472,477.006409 
	C252.711472,473.392303 252.711472,470.276794 252.711472,466.944092 
	C265.210968,466.944092 277.287659,466.944092 289.695679,466.944092 
	C289.695679,479.017487 289.695679,491.221802 289.695679,503.727173 
	C277.631134,503.727173 265.438110,503.727173 252.711472,503.727173 
	C252.711472,494.978546 252.711472,486.241760 252.711472,477.006409 
z"/>
<path fill="#FFFFFF" opacity="1.000000" stroke="none" 
	d="
M226.999115,466.711487 
	C232.494370,466.711487 237.490005,466.711487 242.851135,466.711487 
	C242.851135,479.044617 242.851135,491.267334 242.851135,503.759399 
	C230.863373,503.759399 218.758545,503.759399 206.294525,503.759399 
	C206.294525,491.713287 206.294525,479.499481 206.294525,466.711487 
	C212.979263,466.711487 219.739380,466.711487 226.999115,466.711487 
z"/>
<path fill="#FFFFFF" opacity="1.000000" stroke="none" 
	d="
M205.936737,325.051758 
	C205.485565,321.996490 206.778717,321.560120 209.048920,321.580353 
	C220.182281,321.679443 231.317017,321.625336 242.834015,321.625336 
	C242.834015,333.934875 242.834015,346.143555 242.834015,358.674500 
	C230.915512,358.674500 218.708038,358.674500 205.936584,358.674500 
	C205.936584,347.683228 205.936584,336.616272 205.936737,325.051758 
z"/>
<path fill="#FFFFFF" opacity="1.000000" stroke="none" 
	d="
M476.962097,378.056213 
	C476.962097,387.991119 476.962097,397.434784 476.962097,407.019440 
	C464.327698,407.019440 452.119690,407.019440 439.714203,407.019440 
	C439.714203,394.660614 439.714203,382.570129 439.714203,370.225891 
	C451.956451,370.225891 464.195709,370.225891 476.962097,370.225891 
	C476.962097,372.692139 476.962097,375.128571 476.962097,378.056213 
z"/>
<path fill="#FFFFFF" opacity="1.000000" stroke="none" 
	d="
M430.106750,390.998627 
	C430.106750,396.621765 430.106750,401.745392 430.106750,407.073364 
	C417.612457,407.073364 405.534027,407.073364 393.173828,407.073364 
	C393.173828,394.822815 393.173828,382.607117 393.173828,370.181976 
	C405.372375,370.181976 417.455750,370.181976 430.106750,370.181976 
	C430.106750,376.984192 430.106750,383.741638 430.106750,390.998627 
z"/>
<path fill="#FFFFFF" opacity="1.000000" stroke="none" 
	d="
M351.117371,369.973267 
	C362.062134,369.973236 372.517639,369.973236 383.227844,369.973236 
	C383.227844,382.366394 383.227844,394.435089 383.227844,406.897583 
	C371.121918,406.897583 358.903412,406.897583 346.360046,406.897583 
	C346.360046,394.933350 346.360046,382.723389 346.360046,369.973267 
	C347.758026,369.973267 349.193024,369.973267 351.117371,369.973267 
z"/>
<path fill="#FFFFFF" opacity="1.000000" stroke="none" 
	d="
M252.711487,327.002014 
	C252.711487,325.043396 252.711487,323.586884 252.711487,321.880249 
	C265.193329,321.880249 277.269989,321.880249 289.686920,321.880249 
	C289.686920,333.946167 289.686920,346.156372 289.686920,358.681885 
	C277.666718,358.681885 265.465515,358.681885 252.711472,358.681885 
	C252.711472,348.303223 252.711472,337.903687 252.711487,327.002014 
z"/>
<path fill="#FFFFFF" opacity="1.000000" stroke="none" 
	d="
M271.000214,369.974152 
	C277.465973,369.974152 283.432098,369.974152 289.711548,369.974152 
	C289.711548,382.335083 289.711548,394.526764 289.711548,407.004761 
	C277.560242,407.004761 265.385468,407.004761 252.960175,407.004761 
	C252.960175,394.826721 252.960175,382.754059 252.960175,369.974152 
	C258.694031,369.974152 264.597290,369.974152 271.000214,369.974152 
z"/>
<path fill="#FFFFFF" opacity="1.000000" stroke="none" 
	d="
M234.965485,369.974152 
	C237.918747,369.974152 240.377487,369.974152 243.023087,369.974152 
	C243.023087,382.492645 243.023087,394.584747 243.023087,406.983093 
	C230.854279,406.983093 218.763031,406.983093 206.303497,406.983093 
	C206.303497,394.977295 206.303497,382.759094 206.303497,369.974152 
	C215.599258,369.974152 225.035110,369.974152 234.965485,369.974152 
z"/>
<path fill="#FFFFFF" opacity="1.000000" stroke="none" 
	d="
M439.514893,342.998596 
	C439.514862,335.718445 439.514862,328.937866 439.514862,321.894684 
	C452.051392,321.894684 464.142670,321.894684 476.598755,321.894684 
	C476.598755,333.973022 476.598755,346.175385 476.598755,358.688171 
	C464.540192,358.688171 452.319519,358.688171 439.514923,358.688171 
	C439.514923,353.656403 439.514923,348.577271 439.514893,342.998596 
z"/>
<path fill="#FFFFFF" opacity="1.000000" stroke="none" 
	d="
M346.062927,323.118958 
	C346.431335,322.323822 346.777283,321.757538 347.125366,321.756195 
	C359.064301,321.710388 371.003479,321.718079 383.211487,321.718079 
	C383.211487,334.162476 383.211487,346.251068 383.211487,358.668518 
	C371.130371,358.668518 358.906647,358.668518 346.041473,358.668518 
	C346.041473,347.093628 346.041473,335.352448 346.062927,323.118958 
z"/>
</svg>