<?xml version="1.0" standalone="yes"?>
<svg xmlns="http://www.w3.org/2000/svg" width="640" height="640">
<path style="fill:#ffffff; stroke:none;" d="M0 0L0 640L640 640L640 0L0 0z"/>
<path style="fill:#a3a3a3; stroke:none;" d="M312 76L312 77L316 77L312 76z"/>
<path style="fill:#5d5d5d; stroke:none;" d="M316 76L316 77L319 77L316 76z"/>
<path style="fill:#2c2c2c; stroke:none;" d="M319 76L319 77L333 77L319 76z"/>
<path style="fill:#5d5d5d; stroke:none;" d="M333 76L333 77L336 77L333 76z"/>
<path style="fill:#a3a3a3; stroke:none;" d="M336 76L336 77L339 77L336 76M306.667 77.3333L307.333 77.6667L306.667 77.3333z"/>
<path style="fill:#5d5d5d; stroke:none;" d="M308.667 77.3333L309.333 77.6667L308.667 77.3333z"/>
<path style="fill:#2c2c2c; stroke:none;" d="M310 77L311 78L310 77z"/>
<path style="fill:#010101; stroke:none;" d="M176 426L476 426L476 301C476 285.462 480.414 261.884 472.468 248C464.438 233.97 449.133 234 435 234C435 196.673 439.119 158.908 417.91 126C377.021 62.5543 281.999 61.0745 237.478 121C226.263 136.096 217.872 156.017 217.039 175C216.296 191.946 221.165 213.618 216.682 229.941C214.929 236.324 204.003 233.602 199 234.669C189.029 236.796 180.498 243.114 177.108 253C171.887 268.227 176 290.941 176 307L176 426z"/>
<path style="fill:#2c2c2c; stroke:none;" d="M340.667 77.3333L341.333 77.6667L340.667 77.3333z"/>
<path style="fill:#5d5d5d; stroke:none;" d="M342.667 77.3333L343.333 77.6667L342.667 77.3333z"/>
<path style="fill:#a3a3a3; stroke:none;" d="M344.667 77.3333L345.333 77.6667L344.667 77.3333M301.667 78.3333L302.333 78.6667L301.667 78.3333z"/>
<path style="fill:#5d5d5d; stroke:none;" d="M303 78L304 79L303 78z"/>
<path style="fill:#2c2c2c; stroke:none;" d="M304 78L305 79L304 78M347 78L348 79L347 78z"/>
<path style="fill:#5d5d5d; stroke:none;" d="M348 78L349 79L348 78z"/>
<path style="fill:#a3a3a3; stroke:none;" d="M349.667 78.3333L350.333 78.6667L349.667 78.3333M297.667 79.3333L298.333 79.6667L297.667 79.3333z"/>
<path style="fill:#5d5d5d; stroke:none;" d="M299 79L300 80L299 79z"/>
<path style="fill:#2c2c2c; stroke:none;" d="M300 79L301 80L300 79M351 79L352 80L351 79z"/>
<path style="fill:#5d5d5d; stroke:none;" d="M352 79L353 80L352 79z"/>
<path style="fill:#a3a3a3; stroke:none;" d="M353.667 79.3333L354.333 79.6667L353.667 79.3333M294 80L295 81L294 80z"/>
<path style="fill:#5d5d5d; stroke:none;" d="M295 80L296 81L295 80z"/>
<path style="fill:#2c2c2c; stroke:none;" d="M296 80L297 81L296 80M355 80L356 81L355 80z"/>
<path style="fill:#5d5d5d; stroke:none;" d="M356 80L357 81L356 80z"/>
<path style="fill:#a3a3a3; stroke:none;" d="M357 80L358 81L357 80M291 81L292 82L291 81z"/>
<path style="fill:#5d5d5d; stroke:none;" d="M292 81L293 82L292 81M359 81L360 82L359 81z"/>
<path style="fill:#a3a3a3; stroke:none;" d="M360 81L361 82L360 81M288 82L289 83L288 82z"/>
<path style="fill:#5d5d5d; stroke:none;" d="M289 82L290 83L289 82M362 82L363 83L362 82z"/>
<path style="fill:#a3a3a3; stroke:none;" d="M363 82L364 83L363 82M285 83L286 84L285 83z"/>
<path style="fill:#5d5d5d; stroke:none;" d="M286 83L287 84L286 83z"/>
<path style="fill:#2c2c2c; stroke:none;" d="M364 83L365 84L364 83z"/>
<path style="fill:#5d5d5d; stroke:none;" d="M365 83L366 84L365 83z"/>
<path style="fill:#a3a3a3; stroke:none;" d="M366 83L367 84L366 83M283 84L284 85L283 84z"/>
<path style="fill:#2c2c2c; stroke:none;" d="M284 84L285 85L284 84M367 84L368 85L367 84z"/>
<path style="fill:#a3a3a3; stroke:none;" d="M368 84L369 85L368 84z"/>
<path style="fill:#5d5d5d; stroke:none;" d="M281 85L282 86L281 85z"/>
<path style="fill:#2c2c2c; stroke:none;" d="M369 85L370 86L369 85z"/>
<path style="fill:#a3a3a3; stroke:none;" d="M370 85L371 86L370 85M278 86L279 87L278 86z"/>
<path style="fill:#5d5d5d; stroke:none;" d="M279 86L280 87L279 86M372 86L373 87L372 86z"/>
<path style="fill:#a3a3a3; stroke:none;" d="M276 87L277 88L276 87z"/>
<path style="fill:#5d5d5d; stroke:none;" d="M277 87L278 88L277 87M374 87L375 88L374 87z"/>
<path style="fill:#a3a3a3; stroke:none;" d="M274 88L275 89L274 88z"/>
<path style="fill:#5d5d5d; stroke:none;" d="M275 88L276 89L275 88M376 88L377 89L376 88M273 89L274 90L273 89M378 89L379 90L378 89z"/>
<path style="fill:#a3a3a3; stroke:none;" d="M271 90L272 91L271 90M380 90L381 91L380 90M269 91L270 92L269 91z"/>
<path style="fill:#2c2c2c; stroke:none;" d="M270 91L271 92L270 91M381 91L382 92L381 91z"/>
<path style="fill:#a3a3a3; stroke:none;" d="M382 91L383 92L382 91z"/>
<path style="fill:#5d5d5d; stroke:none;" d="M268 92L269 93L268 92M383 92L384 93L383 92z"/>
<path style="fill:#a3a3a3; stroke:none;" d="M266 93L267 94L266 93M385 93L386 94L385 93z"/>
<path style="fill:#2c2c2c; stroke:none;" d="M265 94L266 95L265 94z"/>
<path style="fill:#5d5d5d; stroke:none;" d="M386 94L387 95L386 94z"/>
<path style="fill:#a3a3a3; stroke:none;" d="M263 95L264 96L263 95M388 95L389 96L388 95z"/>
<path style="fill:#5d5d5d; stroke:none;" d="M262 96L263 97L262 96M389 96L390 97L389 96z"/>
<path style="fill:#a3a3a3; stroke:none;" d="M260 97L261 98L260 97z"/>
<path style="fill:#2c2c2c; stroke:none;" d="M261 97L262 98L261 97M390 97L391 98L390 97z"/>
<path style="fill:#a3a3a3; stroke:none;" d="M391 97L392 98L391 97z"/>
<path style="fill:#5d5d5d; stroke:none;" d="M259 98L260 99L259 98z"/>
<path style="fill:#a3a3a3; stroke:none;" d="M392 98L393 99L392 98z"/>
<path style="fill:#5d5d5d; stroke:none;" d="M258 99L259 100L258 99M393 99L394 100L393 99z"/>
<path style="fill:#a3a3a3; stroke:none;" d="M256 100L257 101L256 100z"/>
<path style="fill:#2c2c2c; stroke:none;" d="M257 100L258 101L257 100M394 100L395 101L394 100z"/>
<path style="fill:#a3a3a3; stroke:none;" d="M255 101L256 102L255 101M396 101L397 102L396 101M254 102L255 103L254 102M397 102L398 103L397 102z"/>
<path style="fill:#5d5d5d; stroke:none;" d="M253 103L254 104L253 103M398 103L399 104L398 103M252 104L253 105L252 104M399 104L400 105L399 104z"/>
<path style="fill:#2c2c2c; stroke:none;" d="M251 105L252 106L251 105M317.667 105.333L318.333 105.667L317.667 105.333z"/>
<path style="fill:#5d5d5d; stroke:none;" d="M319 105L319 106L325 106L319 105z"/>
<path style="fill:#a3a3a3; stroke:none;" d="M325.667 105.333L326.333 105.667L325.667 105.333z"/>
<path style="fill:#5d5d5d; stroke:none;" d="M327 105L327 106L333 106L327 105z"/>
<path style="fill:#2c2c2c; stroke:none;" d="M333.667 105.333L334.333 105.667L333.667 105.333z"/>
<path style="fill:#5d5d5d; stroke:none;" d="M400 105L401 106L400 105z"/>
<path style="fill:#2c2c2c; stroke:none;" d="M250 106L251 107L250 106M311 106L312 107L311 106z"/>
<path style="fill:#5d5d5d; stroke:none;" d="M312 106L313 107L312 106z"/>
<path style="fill:#a3a3a3; stroke:none;" d="M313 106L313 107L316 107L313 106z"/>
<path style="fill:#ffffff; stroke:none;" d="M246 233L406 233C406 201.664 410.865 167.21 391.961 140C359.44 93.1918 284.222 95.2156 256.312 146C241.76 172.479 246 203.853 246 233z"/>
<path style="fill:#a3a3a3; stroke:none;" d="M336 106L336 107L339 107L336 106z"/>
<path style="fill:#5d5d5d; stroke:none;" d="M339 106L340 107L339 106z"/>
<path style="fill:#2c2c2c; stroke:none;" d="M340 106L341 107L340 106z"/>
<path style="fill:#5d5d5d; stroke:none;" d="M401 106L402 107L401 106z"/>
<path style="fill:#2c2c2c; stroke:none;" d="M249 107L250 108L249 107M306 107L307 108L306 107z"/>
<path style="fill:#5d5d5d; stroke:none;" d="M307 107L308 108L307 107z"/>
<path style="fill:#a3a3a3; stroke:none;" d="M308.667 107.333L309.333 107.667L308.667 107.333M342.667 107.333L343.333 107.667L342.667 107.333z"/>
<path style="fill:#5d5d5d; stroke:none;" d="M344 107L345 108L344 107z"/>
<path style="fill:#2c2c2c; stroke:none;" d="M345 107L346 108L345 107M402 107L403 108L402 107M248 108L249 109L248 108z"/>
<path style="fill:#5d5d5d; stroke:none;" d="M303 108L304 109L303 108z"/>
<path style="fill:#a3a3a3; stroke:none;" d="M304 108L305 109L304 108M346.667 108.333L347.333 108.667L346.667 108.333z"/>
<path style="fill:#5d5d5d; stroke:none;" d="M348 108L349 109L348 108z"/>
<path style="fill:#2c2c2c; stroke:none;" d="M403 108L404 109L403 108M247 109L248 110L247 109M299 109L300 110L299 109z"/>
<path style="fill:#5d5d5d; stroke:none;" d="M300 109L301 110L300 109z"/>
<path style="fill:#a3a3a3; stroke:none;" d="M301 109L302 110L301 109M350 109L351 110L350 109z"/>
<path style="fill:#5d5d5d; stroke:none;" d="M351 109L352 110L351 109z"/>
<path style="fill:#2c2c2c; stroke:none;" d="M404 109L405 110L404 109M246 110L247 111L246 110z"/>
<path style="fill:#5d5d5d; stroke:none;" d="M297 110L298 111L297 110z"/>
<path style="fill:#a3a3a3; stroke:none;" d="M298 110L299 111L298 110M353 110L354 111L353 110z"/>
<path style="fill:#5d5d5d; stroke:none;" d="M354 110L355 111L354 110M405 110L406 111L405 110z"/>
<path style="fill:#2c2c2c; stroke:none;" d="M245 111L246 112L245 111M294 111L295 112L294 111z"/>
<path style="fill:#a3a3a3; stroke:none;" d="M295 111L296 112L295 111z"/>
<path style="fill:#5d5d5d; stroke:none;" d="M356 111L357 112L356 111z"/>
<path style="fill:#2c2c2c; stroke:none;" d="M357 111L358 112L357 111z"/>
<path style="fill:#5d5d5d; stroke:none;" d="M406 111L407 112L406 111M244 112L245 113L244 112z"/>
<path style="fill:#2c2c2c; stroke:none;" d="M292 112L293 113L292 112z"/>
<path style="fill:#a3a3a3; stroke:none;" d="M293 112L294 113L293 112M358 112L359 113L358 112z"/>
<path style="fill:#2c2c2c; stroke:none;" d="M359 112L360 113L359 112z"/>
<path style="fill:#5d5d5d; stroke:none;" d="M407 112L408 113L407 112M243 113L244 114L243 113M290 113L291 114L290 113z"/>
<path style="fill:#a3a3a3; stroke:none;" d="M291 113L292 114L291 113M360 113L361 114L360 113z"/>
<path style="fill:#2c2c2c; stroke:none;" d="M361 113L362 114L361 113z"/>
<path style="fill:#a3a3a3; stroke:none;" d="M408 113L409 114L408 113M242 114L243 115L242 114z"/>
<path style="fill:#2c2c2c; stroke:none;" d="M288 114L289 115L288 114z"/>
<path style="fill:#a3a3a3; stroke:none;" d="M289 114L290 115L289 114M362 114L363 115L362 114z"/>
<path style="fill:#2c2c2c; stroke:none;" d="M363 114L364 115L363 114z"/>
<path style="fill:#a3a3a3; stroke:none;" d="M409 114L410 115L409 114M241 115L242 116L241 115z"/>
<path style="fill:#2c2c2c; stroke:none;" d="M286 115L287 116L286 115z"/>
<path style="fill:#a3a3a3; stroke:none;" d="M287 115L288 116L287 115M364 115L365 116L364 115z"/>
<path style="fill:#2c2c2c; stroke:none;" d="M365 115L366 116L365 115z"/>
<path style="fill:#a3a3a3; stroke:none;" d="M410 115L411 116L410 115M285 116L286 117L285 116M366 116L367 117L366 116z"/>
<path style="fill:#2c2c2c; stroke:none;" d="M240 117L241 118L240 117z"/>
<path style="fill:#5d5d5d; stroke:none;" d="M283 117L284 118L283 117M368 117L369 118L368 117z"/>
<path style="fill:#2c2c2c; stroke:none;" d="M411 117L412 118L411 117z"/>
<path style="fill:#5d5d5d; stroke:none;" d="M239 118L240 119L239 118z"/>
<path style="fill:#2c2c2c; stroke:none;" d="M281 118L282 119L281 118z"/>
<path style="fill:#a3a3a3; stroke:none;" d="M282 118L283 119L282 118M369 118L370 119L369 118z"/>
<path style="fill:#2c2c2c; stroke:none;" d="M370 118L371 119L370 118z"/>
<path style="fill:#5d5d5d; stroke:none;" d="M412 118L413 119L412 118M238 119L239 120L238 119M280 119L281 120L280 119M371 119L372 120L371 119z"/>
<path style="fill:#a3a3a3; stroke:none;" d="M413 119L414 120L413 119M237 120L238 121L237 120M279 120L280 121L279 120M372 120L373 121L372 120z"/>
<path style="fill:#2c2c2c; stroke:none;" d="M277 121L278 122L277 121M374 121L375 122L374 121M414 121L415 122L414 121z"/>
<path style="fill:#5d5d5d; stroke:none;" d="M236 122L237 123L236 122M276 122L277 123L276 122M375 122L376 123L375 122M415 122L416 123L415 122z"/>
<path style="fill:#a3a3a3; stroke:none;" d="M235 123L236 124L235 123M275 123L276 124L275 123M376 123L377 124L376 123M416 123L417 124L416 123z"/>
<path style="fill:#2c2c2c; stroke:none;" d="M273 124L274 125L273 124z"/>
<path style="fill:#a3a3a3; stroke:none;" d="M274 124L275 125L274 124M377 124L378 125L377 124z"/>
<path style="fill:#2c2c2c; stroke:none;" d="M234 125L235 126L234 125M272 125L273 126L272 125M379 125L380 126L379 125z"/>
<path style="fill:#5d5d5d; stroke:none;" d="M417 125L418 126L417 125z"/>
<path style="fill:#a3a3a3; stroke:none;" d="M233 126L234 127L233 126z"/>
<path style="fill:#2c2c2c; stroke:none;" d="M271 126L272 127L271 126M380 126L381 127L380 126z"/>
<path style="fill:#a3a3a3; stroke:none;" d="M418 126L419 127L418 126z"/>
<path style="fill:#5d5d5d; stroke:none;" d="M270 127L271 128L270 127z"/>
<path style="fill:#2c2c2c; stroke:none;" d="M381 127L382 128L381 127z"/>
<path style="fill:#5d5d5d; stroke:none;" d="M232 128L233 129L232 128M269 128L270 129L269 128z"/>
<path style="fill:#2c2c2c; stroke:none;" d="M382 128L383 129L382 128z"/>
<path style="fill:#5d5d5d; stroke:none;" d="M419 128L420 129L419 128z"/>
<path style="fill:#a3a3a3; stroke:none;" d="M231 129L232 130L231 129z"/>
<path style="fill:#5d5d5d; stroke:none;" d="M268 129L269 130L268 129z"/>
<path style="fill:#2c2c2c; stroke:none;" d="M383 129L384 130L383 129z"/>
<path style="fill:#a3a3a3; stroke:none;" d="M420 129L421 130L420 129z"/>
<path style="fill:#2c2c2c; stroke:none;" d="M231 130L232 131L231 130z"/>
<path style="fill:#5d5d5d; stroke:none;" d="M267 130L268 131L267 130z"/>
<path style="fill:#2c2c2c; stroke:none;" d="M384 130L385 131L384 130M420 130L421 131L420 130z"/>
<path style="fill:#a3a3a3; stroke:none;" d="M230 131L231 132L230 131z"/>
<path style="fill:#2c2c2c; stroke:none;" d="M266 131L267 132L266 131M385 131L386 132L385 131z"/>
<path style="fill:#a3a3a3; stroke:none;" d="M421 131L422 132L421 131z"/>
<path style="fill:#2c2c2c; stroke:none;" d="M265 132L266 133L265 132M386 132L387 133L386 132M421 132L422 133L421 132z"/>
<path style="fill:#5d5d5d; stroke:none;" d="M229 133L230 134L229 133z"/>
<path style="fill:#a3a3a3; stroke:none;" d="M422 133L423 134L422 133M264 134L265 135L264 134M387 134L388 135L387 134z"/>
<path style="fill:#5d5d5d; stroke:none;" d="M228 135L229 136L228 135z"/>
<path style="fill:#a3a3a3; stroke:none;" d="M263 135L264 136L263 135M388 135L389 136L388 135z"/>
<path style="fill:#5d5d5d; stroke:none;" d="M423 135L424 136L423 135M262 136L263 137L262 136M389 136L390 137L389 136M227 137L228 138L227 137z"/>
<path style="fill:#2c2c2c; stroke:none;" d="M261 137L262 138L261 137M390 137L391 138L390 137z"/>
<path style="fill:#5d5d5d; stroke:none;" d="M424 137L425 138L424 137M226 139L227 140L226 139z"/>
<path style="fill:#a3a3a3; stroke:none;" d="M260 139L261 140L260 139M391 139L392 140L391 139z"/>
<path style="fill:#5d5d5d; stroke:none;" d="M425 139L426 140L425 139M259 140L260 141L259 140M392 140L393 141L392 140M225 141L226 142L225 141z"/>
<path style="fill:#2c2c2c; stroke:none;" d="M258 141L259 142L258 141z"/>
<path style="fill:#a3a3a3; stroke:none;" d="M426 141L427 142L426 141M258 142L259 143L258 142M393 142L394 143L393 142z"/>
<path style="fill:#2c2c2c; stroke:none;" d="M426 142L427 143L426 142z"/>
<path style="fill:#a3a3a3; stroke:none;" d="M224 143L225 144L224 143z"/>
<path style="fill:#5d5d5d; stroke:none;" d="M257 143L258 144L257 143z"/>
<path style="fill:#2c2c2c; stroke:none;" d="M394 143L395 144L394 143z"/>
<path style="fill:#a3a3a3; stroke:none;" d="M427 143L428 144L427 143z"/>
<path style="fill:#2c2c2c; stroke:none;" d="M224 144L225 145L224 144z"/>
<path style="fill:#5d5d5d; stroke:none;" d="M427 144L428 145L427 144z"/>
<path style="fill:#a3a3a3; stroke:none;" d="M223 145L224 146L223 145M256 145L257 146L256 145z"/>
<path style="fill:#5d5d5d; stroke:none;" d="M395 145L396 146L395 145M223 146L224 147L223 146z"/>
<path style="fill:#2c2c2c; stroke:none;" d="M255 146L256 147L255 146z"/>
<path style="fill:#a3a3a3; stroke:none;" d="M428 146L429 147L428 146M255 147L256 148L255 147M396 147L397 148L396 147z"/>
<path style="fill:#2c2c2c; stroke:none;" d="M428 147L429 148L428 147z"/>
<path style="fill:#a3a3a3; stroke:none;" d="M222 148L223 149L222 148z"/>
<path style="fill:#2c2c2c; stroke:none;" d="M254 148L255 149L254 148M397 148L398 149L397 148z"/>
<path style="fill:#a3a3a3; stroke:none;" d="M429 148L430 149L429 148z"/>
<path style="fill:#5d5d5d; stroke:none;" d="M222 149L223 150L222 149z"/>
<path style="fill:#a3a3a3; stroke:none;" d="M254 149L255 150L254 149M397 149L398 150L397 149z"/>
<path style="fill:#5d5d5d; stroke:none;" d="M429 149L430 150L429 149z"/>
<path style="fill:#2c2c2c; stroke:none;" d="M253 150L254 151L253 150M398 150L399 151L398 150z"/>
<path style="fill:#a3a3a3; stroke:none;" d="M221 151L222 152L221 151M253 151L254 152L253 151M398 151L399 152L398 151M430 151L431 152L430 151z"/>
<path style="fill:#5d5d5d; stroke:none;" d="M221 152L222 153L221 152z"/>
<path style="fill:#2c2c2c; stroke:none;" d="M252 152L253 153L252 152M399 152L400 153L399 152z"/>
<path style="fill:#5d5d5d; stroke:none;" d="M430 152L431 153L430 152z"/>
<path style="fill:#a3a3a3; stroke:none;" d="M252 153L253 154L252 153M399 153L400 154L399 153M220 154L221 155L220 154z"/>
<path style="fill:#2c2c2c; stroke:none;" d="M251 154L252 155L251 154z"/>
<path style="fill:#a3a3a3; stroke:none;" d="M431 154L432 155L431 154z"/>
<path style="fill:#5d5d5d; stroke:none;" d="M220 155L221 156L220 155z"/>
<path style="fill:#a3a3a3; stroke:none;" d="M251 155L252 156L251 155z"/>
<path style="fill:#5d5d5d; stroke:none;" d="M400 155L401 156L400 155M431 155L432 156L431 155z"/>
<path style="fill:#2c2c2c; stroke:none;" d="M220 156L221 157L220 156M431 156L432 157L431 156z"/>
<path style="fill:#a3a3a3; stroke:none;" d="M219.333 157.667L219.667 158.333L219.333 157.667z"/>
<path style="fill:#5d5d5d; stroke:none;" d="M250 157L251 158L250 157z"/>
<path style="fill:#2c2c2c; stroke:none;" d="M401 157L402 158L401 157z"/>
<path style="fill:#a3a3a3; stroke:none;" d="M250 158L251 159L250 158M401 158L402 159L401 158M432 158L433 159L432 158z"/>
<path style="fill:#5d5d5d; stroke:none;" d="M219 159L220 160L219 159M432 159L433 160L432 159M249 160L250 161L249 160M402 160L403 161L402 160z"/>
<path style="fill:#2c2c2c; stroke:none;" d="M432 160L433 161L432 160z"/>
<path style="fill:#a3a3a3; stroke:none;" d="M218.333 161.667L218.667 162.333L218.333 161.667M249 161L250 162L249 161M402 161L403 162L402 161M433 162L434 163L433 162z"/>
<path style="fill:#5d5d5d; stroke:none;" d="M218 163L219 164L218 163M248 163L249 164L248 163z"/>
<path style="fill:#2c2c2c; stroke:none;" d="M403 163L404 164L403 163z"/>
<path style="fill:#5d5d5d; stroke:none;" d="M433.333 163.667L433.667 164.333L433.333 163.667z"/>
<path style="fill:#2c2c2c; stroke:none;" d="M218 164L219 165L218 164z"/>
<path style="fill:#a3a3a3; stroke:none;" d="M248 164L249 165L248 164z"/>
<path style="fill:#5d5d5d; stroke:none;" d="M403 164L404 165L403 164z"/>
<path style="fill:#a3a3a3; stroke:none;" d="M403 165L404 166L403 165z"/>
<path style="fill:#2c2c2c; stroke:none;" d="M433 165L434 166L433 165z"/>
<path style="fill:#a3a3a3; stroke:none;" d="M217.333 166.667L217.667 167.333L217.333 166.667z"/>
<path style="fill:#2c2c2c; stroke:none;" d="M247 166L248 167L247 166z"/>
<path style="fill:#5d5d5d; stroke:none;" d="M247 167L248 168L247 167M404.333 167.667L404.667 168.333L404.333 167.667z"/>
<path style="fill:#a3a3a3; stroke:none;" d="M434.333 167.667L434.667 168.333L434.333 167.667z"/>
<path style="fill:#5d5d5d; stroke:none;" d="M217.333 168.667L217.667 169.333L217.333 168.667z"/>
<path style="fill:#a3a3a3; stroke:none;" d="M247.333 168.667L247.667 169.333L247.333 168.667M404 169L405 170L404 169z"/>
<path style="fill:#5d5d5d; stroke:none;" d="M434.333 169.667L434.667 170.333L434.333 169.667z"/>
<path style="fill:#2c2c2c; stroke:none;" d="M217 170L218 171L217 170M246 171L247 172L246 171M405 171L406 172L405 171M434 171L435 172L434 171z"/>
<path style="fill:#5d5d5d; stroke:none;" d="M246 172L247 173L246 172M405.333 172.667L405.667 173.333L405.333 172.667z"/>
<path style="fill:#a3a3a3; stroke:none;" d="M216 173L216 176L217 176L216 173M246 173L246 176L247 176L246 173M405.333 174.667L405.667 175.333L405.333 174.667M435 174L435 177L436 177L435 174z"/>
<path style="fill:#5d5d5d; stroke:none;" d="M216 176L216 180L217 180L216 176z"/>
<path style="fill:#2c2c2c; stroke:none;" d="M245.333 177.667L245.667 178.333L245.333 177.667z"/>
<path style="fill:#5d5d5d; stroke:none;" d="M435 177L435 182L436 182L435 177z"/>
<path style="fill:#2c2c2c; stroke:none;" d="M406 178L406 181L407 181L406 178z"/>
<path style="fill:#5d5d5d; stroke:none;" d="M245 179L245 184L246 184L245 179z"/>
<path style="fill:#2c2c2c; stroke:none;" d="M216 180L216 233L217 233L217 197L216 180z"/>
<path style="fill:#5d5d5d; stroke:none;" d="M406 181L406 234L407 234L407 198L406 181z"/>
<path style="fill:#2c2c2c; stroke:none;" d="M435 182L435 234L436 234L436 199L435 182z"/>
<path style="fill:#a3a3a3; stroke:none;" d="M245 184L245 219L246.028 232.397L257 234L286 234L406 234L406 233L246 233C246 219.212 250.309 196.652 245 184M201 233L201 234L216 234L201 233z"/>
<path style="fill:#5d5d5d; stroke:none;" d="M245 233L246 234L245 233z"/>
<path style="fill:#a3a3a3; stroke:none;" d="M436 233L436 234L451 234L436 233M196.667 234.333L197.333 234.667L196.667 234.333z"/>
<path style="fill:#5d5d5d; stroke:none;" d="M198 234L199 235L198 234z"/>
<path style="fill:#2c2c2c; stroke:none;" d="M199 234L200 235L199 234M452 234L453 235L452 234z"/>
<path style="fill:#5d5d5d; stroke:none;" d="M453 234L454 235L453 234z"/>
<path style="fill:#a3a3a3; stroke:none;" d="M454.667 234.333L455.333 234.667L454.667 234.333M193 235L194 236L193 235z"/>
<path style="fill:#5d5d5d; stroke:none;" d="M194 235L195 236L194 235z"/>
<path style="fill:#2c2c2c; stroke:none;" d="M195 235L196 236L195 235M456 235L457 236L456 235z"/>
<path style="fill:#5d5d5d; stroke:none;" d="M457 235L458 236L457 235z"/>
<path style="fill:#a3a3a3; stroke:none;" d="M458 235L459 236L458 235M191 236L192 237L191 236z"/>
<path style="fill:#2c2c2c; stroke:none;" d="M192 236L193 237L192 236M459 236L460 237L459 236z"/>
<path style="fill:#a3a3a3; stroke:none;" d="M460 236L461 237L460 236M189 237L190 238L189 237z"/>
<path style="fill:#2c2c2c; stroke:none;" d="M190 237L191 238L190 237M461 237L462 238L461 237z"/>
<path style="fill:#a3a3a3; stroke:none;" d="M462 237L463 238L462 237z"/>
<path style="fill:#5d5d5d; stroke:none;" d="M188 238L189 239L188 238M463 238L464 239L463 238z"/>
<path style="fill:#a3a3a3; stroke:none;" d="M186 239L187 240L186 239z"/>
<path style="fill:#2c2c2c; stroke:none;" d="M464 239L465 240L464 239z"/>
<path style="fill:#a3a3a3; stroke:none;" d="M465 239L466 240L465 239M185 240L186 241L185 240M466 240L467 241L466 240z"/>
<path style="fill:#5d5d5d; stroke:none;" d="M184 241L185 242L184 241z"/>
<path style="fill:#a3a3a3; stroke:none;" d="M467 241L468 242L467 241z"/>
<path style="fill:#5d5d5d; stroke:none;" d="M183 242L184 243L183 242M468 242L469 243L468 242M182 243L183 244L182 243z"/>
<path style="fill:#a3a3a3; stroke:none;" d="M469 243L470 244L469 243M181 244L182 245L181 244M470 244L471 245L470 244M180 245L181 246L180 245z"/>
<path style="fill:#2c2c2c; stroke:none;" d="M180 246L181 247L180 246M471 246L472 247L471 246z"/>
<path style="fill:#5d5d5d; stroke:none;" d="M179 247L180 248L179 247z"/>
<path style="fill:#a3a3a3; stroke:none;" d="M472 247L473 248L472 247z"/>
<path style="fill:#5d5d5d; stroke:none;" d="M178 249L179 250L178 249M473 249L474 250L473 249M177 251L178 252L177 251M474 251L475 252L474 251z"/>
<path style="fill:#2c2c2c; stroke:none;" d="M474 252L475 253L474 252z"/>
<path style="fill:#a3a3a3; stroke:none;" d="M176 253L177 254L176 253M475 253L476 254L475 253z"/>
<path style="fill:#5d5d5d; stroke:none;" d="M176 254L177 255L176 254M475 254L476 255L475 254z"/>
<path style="fill:#2c2c2c; stroke:none;" d="M475 255L476 256L475 255z"/>
<path style="fill:#a3a3a3; stroke:none;" d="M175.333 256.667L175.667 257.333L175.333 256.667M476.333 257.667L476.667 258.333L476.333 257.667z"/>
<path style="fill:#5d5d5d; stroke:none;" d="M175.333 258.667L175.667 259.333L175.333 258.667M476.333 259.667L476.667 260.333L476.333 259.667z"/>
<path style="fill:#2c2c2c; stroke:none;" d="M175 260L175 426L176 426L176 310C176 295.962 180.406 272.883 175 260M476 261L476 426L477 426L477 310C477 296.223 481.306 273.645 476 261M320 292L321 293L320 292z"/>
<path style="fill:#5d5d5d; stroke:none;" d="M321 292L322 293L321 292z"/>
<path style="fill:#a3a3a3; stroke:none;" d="M322 292L322 293L330 293L322 292z"/>
<path style="fill:#5d5d5d; stroke:none;" d="M330 292L331 293L330 292z"/>
<path style="fill:#2c2c2c; stroke:none;" d="M331 292L332 293L331 292z"/>
<path style="fill:#5d5d5d; stroke:none;" d="M317 293L318 294L317 293z"/>
<path style="fill:#a3a3a3; stroke:none;" d="M318 293L319 294L318 293z"/>
<path style="fill:#ffffff; stroke:none;" d="M319 293.529C304.324 296.922 296.928 314.684 302.905 328C305.355 333.459 311.348 336.722 313.397 342.039C317.046 351.515 310.941 369.248 329 365.513C341.868 362.852 335.36 350.459 338.603 342.039C341.099 335.561 348.065 332.32 350.072 325C355.403 305.552 338.216 289.087 319 293.529z"/>
<path style="fill:#a3a3a3; stroke:none;" d="M333 293L334 294L333 293z"/>
<path style="fill:#5d5d5d; stroke:none;" d="M334 293L335 294L334 293z"/>
<path style="fill:#2c2c2c; stroke:none;" d="M314 294L315 295L314 294z"/>
<path style="fill:#a3a3a3; stroke:none;" d="M315 294L316 295L315 294M336 294L337 295L336 294z"/>
<path style="fill:#2c2c2c; stroke:none;" d="M337 294L338 295L337 294z"/>
<path style="fill:#a3a3a3; stroke:none;" d="M313 295L314 296L313 295z"/>
<path style="fill:#5d5d5d; stroke:none;" d="M338 295L339 296L338 295M311 296L312 297L311 296z"/>
<path style="fill:#2c2c2c; stroke:none;" d="M340 296L341 297L340 296z"/>
<path style="fill:#a3a3a3; stroke:none;" d="M310 297L311 298L310 297z"/>
<path style="fill:#5d5d5d; stroke:none;" d="M341 297L342 298L341 297z"/>
<path style="fill:#a3a3a3; stroke:none;" d="M309 298L310 299L309 298M342 298L343 299L342 298M308 299L309 300L308 299M343 299L344 300L343 299M307 300L308 301L307 300M344 300L345 301L344 300M306 301L307 302L306 301M345 301L346 302L345 301M305 302L306 303L305 302z"/>
<path style="fill:#5d5d5d; stroke:none;" d="M346 302L347 303L346 302z"/>
<path style="fill:#2c2c2c; stroke:none;" d="M304 303L305 304L304 303M347 303L348 304L347 303z"/>
<path style="fill:#a3a3a3; stroke:none;" d="M347 304L348 305L347 304z"/>
<path style="fill:#5d5d5d; stroke:none;" d="M303 305L304 306L303 305M348 305L349 306L348 305M302 307L303 308L302 307M349 307L350 308L349 307z"/>
<path style="fill:#a3a3a3; stroke:none;" d="M349 308L350 309L349 308z"/>
<path style="fill:#2c2c2c; stroke:none;" d="M301 309L302 310L301 309M350 309L351 310L350 309z"/>
<path style="fill:#a3a3a3; stroke:none;" d="M301.333 310.667L301.667 311.333L301.333 310.667z"/>
<path style="fill:#5d5d5d; stroke:none;" d="M350 310L351 311L350 310z"/>
<path style="fill:#a3a3a3; stroke:none;" d="M350 311L351 312L350 311z"/>
<path style="fill:#2c2c2c; stroke:none;" d="M300 313L301 314L300 313M351 313L352 314L351 313z"/>
<path style="fill:#5d5d5d; stroke:none;" d="M300.333 314.667L300.667 315.333L300.333 314.667M351 314L351 321L352 321L351 314z"/>
<path style="fill:#a3a3a3; stroke:none;" d="M300 316L300 319L301 319L300 316z"/>
<path style="fill:#5d5d5d; stroke:none;" d="M300 319L300 322L301 322L300 319z"/>
<path style="fill:#2c2c2c; stroke:none;" d="M351 321L352 322L351 321M300 322L301 323L300 322z"/>
<path style="fill:#a3a3a3; stroke:none;" d="M350.333 323.667L350.667 324.333L350.333 323.667M301 324L302 325L301 324z"/>
<path style="fill:#5d5d5d; stroke:none;" d="M301 325L302 326L301 325z"/>
<path style="fill:#2c2c2c; stroke:none;" d="M350 325L351 326L350 325z"/>
<path style="fill:#a3a3a3; stroke:none;" d="M302 327L303 328L302 327z"/>
<path style="fill:#5d5d5d; stroke:none;" d="M349 327L350 328L349 327z"/>
<path style="fill:#2c2c2c; stroke:none;" d="M302 328L303 329L302 328z"/>
<path style="fill:#a3a3a3; stroke:none;" d="M303 329L304 330L303 329M348 329L349 330L348 329z"/>
<path style="fill:#2c2c2c; stroke:none;" d="M303 330L304 331L303 330z"/>
<path style="fill:#5d5d5d; stroke:none;" d="M304 331L305 332L304 331M347 331L348 332L347 331z"/>
<path style="fill:#a3a3a3; stroke:none;" d="M305 332L306 333L305 332M346 332L347 333L346 332z"/>
<path style="fill:#2c2c2c; stroke:none;" d="M305 333L306 334L305 333M306 334L307 335L306 334M345 334L346 335L345 334z"/>
<path style="fill:#5d5d5d; stroke:none;" d="M307 335L308 336L307 335z"/>
<path style="fill:#2c2c2c; stroke:none;" d="M344 335L345 336L344 335z"/>
<path style="fill:#5d5d5d; stroke:none;" d="M308 336L309 337L308 336z"/>
<path style="fill:#2c2c2c; stroke:none;" d="M343 336L344 337L343 336M309 337L310 338L309 337M342 337L343 338L342 337M310 338L311 339L310 338z"/>
<path style="fill:#a3a3a3; stroke:none;" d="M311 338L312 339L311 338M340 338L341 339L340 338z"/>
<path style="fill:#5d5d5d; stroke:none;" d="M312 339L313 340L312 339M339 339L340 340L339 339z"/>
<path style="fill:#2c2c2c; stroke:none;" d="M313 340L314 341L313 340M313 342L313 357L314 357L313 342z"/>
<path style="fill:#a3a3a3; stroke:none;" d="M337 358L338 359L337 358M314 359L315 360L314 359z"/>
<path style="fill:#5d5d5d; stroke:none;" d="M337 359L338 360L337 359z"/>
<path style="fill:#2c2c2c; stroke:none;" d="M314 360L315 361L314 360z"/>
<path style="fill:#a3a3a3; stroke:none;" d="M315 361L316 362L315 361z"/>
<path style="fill:#5d5d5d; stroke:none;" d="M336 361L337 362L336 361z"/>
<path style="fill:#a3a3a3; stroke:none;" d="M316 362L317 363L316 362M335 362L336 363L335 362M317 363L318 364L317 363M334 363L335 364L334 363M318 364L319 365L318 364z"/>
<path style="fill:#5d5d5d; stroke:none;" d="M333 364L334 365L333 364z"/>
<path style="fill:#2c2c2c; stroke:none;" d="M319 365L320 366L319 365z"/>
<path style="fill:#5d5d5d; stroke:none;" d="M320 365L321 366L320 365z"/>
<path style="fill:#a3a3a3; stroke:none;" d="M321.667 365.333L322.333 365.667L321.667 365.333M329.667 365.333L330.333 365.667L329.667 365.333z"/>
<path style="fill:#5d5d5d; stroke:none;" d="M331 365L332 366L331 365z"/>
<path style="fill:#a3a3a3; stroke:none;" d="M475 426L476 427L475 426M158 439L158 440L161 440L158 439z"/>
<path style="fill:#5d5d5d; stroke:none;" d="M161 439L161 440L491 440L461 439L394 439L161 439z"/>
<path style="fill:#a3a3a3; stroke:none;" d="M491 439L491 440L494 440L491 439M154 440L155 441L154 440z"/>
<path style="fill:#5d5d5d; stroke:none;" d="M155 440L156 441L155 440z"/>
<path style="fill:#2c2c2c; stroke:none;" d="M156 440L157 441L156 440z"/>
<path style="fill:#010101; stroke:none;" d="M157 440.518C126.834 446.954 132 479.793 132 503C132 512.722 130.366 523.93 134.519 533C138.055 540.723 145.158 546.557 153 549.532C160.829 552.502 170.752 551 179 551L231 551L410 551L470 551C479.605 551 490.899 552.649 500 549.073C525.589 539.018 520 509.008 520 487C520 477.897 521.439 467.528 517.651 459C513.745 450.204 506.287 443.674 497 441.159C484.981 437.904 470.388 440 458 440L382 440L230 440C207.081 440 179.395 435.74 157 440.518z"/>
<path style="fill:#2c2c2c; stroke:none;" d="M494.667 440.333L495.333 440.667L494.667 440.333z"/>
<path style="fill:#a3a3a3; stroke:none;" d="M496.667 440.333L497.333 440.667L496.667 440.333M151 441L152 442L151 441z"/>
<path style="fill:#5d5d5d; stroke:none;" d="M152 441L153 442L152 441z"/>
<path style="fill:#2c2c2c; stroke:none;" d="M153 441L154 442L153 441M498 441L499 442L498 441z"/>
<path style="fill:#5d5d5d; stroke:none;" d="M499 441L500 442L499 441z"/>
<path style="fill:#a3a3a3; stroke:none;" d="M149 442L150 443L149 442z"/>
<path style="fill:#5d5d5d; stroke:none;" d="M150 442L151 443L150 442M501 442L502 443L501 442z"/>
<path style="fill:#a3a3a3; stroke:none;" d="M502 442L503 443L502 442M147 443L148 444L147 443z"/>
<path style="fill:#5d5d5d; stroke:none;" d="M148 443L149 444L148 443M503 443L504 444L503 443M146 444L147 445L146 444M505 444L506 445L505 444z"/>
<path style="fill:#a3a3a3; stroke:none;" d="M144 445L145 446L144 445z"/>
<path style="fill:#2c2c2c; stroke:none;" d="M145 445L146 446L145 445M506 445L507 446L506 445z"/>
<path style="fill:#a3a3a3; stroke:none;" d="M143 446L144 447L143 446M508 446L509 447L508 446z"/>
<path style="fill:#5d5d5d; stroke:none;" d="M142 447L143 448L142 447z"/>
<path style="fill:#a3a3a3; stroke:none;" d="M509 447L510 448L509 447z"/>
<path style="fill:#5d5d5d; stroke:none;" d="M141 448L142 449L141 448M510 448L511 449L510 448M140 449L141 450L140 449M511 449L512 450L511 449M139 450L140 451L139 450M512 450L513 451L512 450z"/>
<path style="fill:#a3a3a3; stroke:none;" d="M138 451L139 452L138 451M513 451L514 452L513 451M137 452L138 453L137 452z"/>
<path style="fill:#2c2c2c; stroke:none;" d="M514 453L515 454L514 453z"/>
<path style="fill:#5d5d5d; stroke:none;" d="M136 454L137 455L136 454M515 454L516 455L515 454z"/>
<path style="fill:#a3a3a3; stroke:none;" d="M135 455L136 456L135 455z"/>
<path style="fill:#2c2c2c; stroke:none;" d="M135 456L136 457L135 456M516 456L517 457L516 456z"/>
<path style="fill:#a3a3a3; stroke:none;" d="M134 457L135 458L134 457M517 457L518 458L517 457z"/>
<path style="fill:#2c2c2c; stroke:none;" d="M134 458L135 459L134 458M517 458L518 459L517 458z"/>
<path style="fill:#a3a3a3; stroke:none;" d="M133 459L134 460L133 459z"/>
<path style="fill:#5d5d5d; stroke:none;" d="M133 460L134 461L133 460M518 460L519 461L518 460z"/>
<path style="fill:#a3a3a3; stroke:none;" d="M132 462L133 463L132 462z"/>
<path style="fill:#2c2c2c; stroke:none;" d="M223 462L223 463L226 463L223 462M292 462L292 463L295 463L292 462M362.667 462.333L363.333 462.667L362.667 462.333M431 462L431 463L434 463L431 462z"/>
<path style="fill:#a3a3a3; stroke:none;" d="M519 462L520 463L519 462z"/>
<path style="fill:#5d5d5d; stroke:none;" d="M132 463L133 464L132 463z"/>
<path style="fill:#2c2c2c; stroke:none;" d="M220 463L221 464L220 463z"/>
<path style="fill:#a3a3a3; stroke:none;" d="M221 463L222 464L221 463z"/>
<path style="fill:#ffffff; stroke:none;" d="M217 477C212.513 472.758 195.685 467.167 199.786 480C201.538 485.482 212.141 490.118 211.369 496C210.647 501.494 202.529 505.037 200.194 510C193.815 523.562 211.801 518.508 217 515C217.012 530.725 231.955 530.72 232 515C237.696 518.875 253.436 523.804 248.257 510C246.155 504.397 239.743 499.341 235 496L235 495C239.774 491.637 247.289 485.983 248.677 480C251.686 467.034 236.952 472.208 232 477C231.954 460.297 217.011 460.234 217 477z"/>
<path style="fill:#a3a3a3; stroke:none;" d="M226 463L227 464L226 463z"/>
<path style="fill:#5d5d5d; stroke:none;" d="M227 463L228 464L227 463M290 463L291 464L290 463z"/>
<path style="fill:#a3a3a3; stroke:none;" d="M291 463L292 464L291 463z"/>
<path style="fill:#ffffff; stroke:none;" d="M286 477C281.048 472.208 266.314 467.034 269.323 480C270.711 485.983 278.227 491.637 283 495L283 496C278.257 499.341 271.845 504.397 269.743 510C264.564 523.804 280.304 518.875 286 515C286.058 521.938 293.6 535.209 299.972 523.891C301.566 521.061 301 517.124 301 514C305.751 518.61 322.694 524.486 318.218 511C316.283 505.171 307.417 501.988 306.631 496C305.859 490.118 316.462 485.482 318.214 480C322.315 467.167 305.487 472.758 301 477C300.989 460.234 286.046 460.297 286 477z"/>
<path style="fill:#a3a3a3; stroke:none;" d="M296 463L297 464L296 463z"/>
<path style="fill:#2c2c2c; stroke:none;" d="M297 463L298 464L297 463M359 463L360 464L359 463z"/>
<path style="fill:#a3a3a3; stroke:none;" d="M360 463L361 464L360 463z"/>
<path style="fill:#ffffff; stroke:none;" d="M356 477C350.743 472.608 333.661 467.189 338.746 481C340.689 486.278 349.944 490.374 349.944 496C349.944 501.328 341.263 505.409 339.032 510C332.377 523.69 350.771 518.528 356 515C356.01 530.781 369.99 530.888 370 515C372.557 516.668 375.089 518.937 378 519.951C383.741 521.952 389.039 516.832 387.471 511C385.895 505.142 379.252 499.449 374 497C377.815 491.584 384.938 487.291 387.254 481C392.501 466.748 375.151 473.433 370 477C369.998 460.459 356.002 460.459 356 477z"/>
<path style="fill:#a3a3a3; stroke:none;" d="M365 463L366 464L365 463z"/>
<path style="fill:#5d5d5d; stroke:none;" d="M366 463L367 464L366 463z"/>
<path style="fill:#2c2c2c; stroke:none;" d="M428 463L429 464L428 463z"/>
<path style="fill:#a3a3a3; stroke:none;" d="M429 463L430 464L429 463z"/>
<path style="fill:#ffffff; stroke:none;" d="M425 477C420.745 472.978 405.492 466.52 407.681 479C408.787 485.299 417.098 491.547 422 495L422 496C417.05 499.487 408.867 505.673 407.677 511.999C405.177 525.302 420.532 518.36 425 514C425.01 529.892 439.952 531.615 440 515C445.087 518.461 460.68 524.521 456.873 511C455.194 505.035 447.849 499.416 443 496L443 495C447.842 491.589 456.304 485.282 457.238 479C459.098 466.492 444.349 472.792 440 477C439.989 460.282 425.011 460.213 425 477z"/>
<path style="fill:#a3a3a3; stroke:none;" d="M434 463L435 464L434 463z"/>
<path style="fill:#5d5d5d; stroke:none;" d="M435 463L436 464L435 463M519 463L520 464L519 463z"/>
<path style="fill:#2c2c2c; stroke:none;" d="M132 464L133 465L132 464z"/>
<path style="fill:#5d5d5d; stroke:none;" d="M219 464L220 465L219 464z"/>
<path style="fill:#2c2c2c; stroke:none;" d="M229 464L230 465L229 464M288 464L289 465L288 464z"/>
<path style="fill:#5d5d5d; stroke:none;" d="M298 464L299 465L298 464z"/>
<path style="fill:#a3a3a3; stroke:none;" d="M358 464L359 465L358 464M367 464L368 465L367 464z"/>
<path style="fill:#5d5d5d; stroke:none;" d="M427 464L428 465L427 464M437 464L438 465L437 464z"/>
<path style="fill:#2c2c2c; stroke:none;" d="M519 464L520 465L519 464z"/>
<path style="fill:#a3a3a3; stroke:none;" d="M131.333 465.667L131.667 466.333L131.333 465.667z"/>
<path style="fill:#5d5d5d; stroke:none;" d="M218 465L219 466L218 465z"/>
<path style="fill:#2c2c2c; stroke:none;" d="M230 465L231 466L230 465M287 465L288 466L287 465z"/>
<path style="fill:#5d5d5d; stroke:none;" d="M299 465L300 466L299 465z"/>
<path style="fill:#a3a3a3; stroke:none;" d="M357 465L358 466L357 465M368 465L369 466L368 465z"/>
<path style="fill:#5d5d5d; stroke:none;" d="M426 465L427 466L426 465z"/>
<path style="fill:#2c2c2c; stroke:none;" d="M438 465L439 466L438 465M217 466L218 467L217 466M300 466L301 467L300 466z"/>
<path style="fill:#5d5d5d; stroke:none;" d="M356 466L357 467L356 466z"/>
<path style="fill:#a3a3a3; stroke:none;" d="M369 466L370 467L369 466z"/>
<path style="fill:#2c2c2c; stroke:none;" d="M425 466L426 467L425 466z"/>
<path style="fill:#a3a3a3; stroke:none;" d="M520.333 466.667L520.667 467.333L520.333 466.667z"/>
<path style="fill:#5d5d5d; stroke:none;" d="M131.333 467.667L131.667 468.333L131.333 467.667z"/>
<path style="fill:#a3a3a3; stroke:none;" d="M217 467L218 468L217 467z"/>
<path style="fill:#5d5d5d; stroke:none;" d="M231 467L232 468L231 467M286 467L287 468L286 467z"/>
<path style="fill:#a3a3a3; stroke:none;" d="M300 467L301 468L300 467z"/>
<path style="fill:#2c2c2c; stroke:none;" d="M370 467L371 468L370 467z"/>
<path style="fill:#a3a3a3; stroke:none;" d="M425 467L426 468L425 467M439 467L440 468L439 467z"/>
<path style="fill:#2c2c2c; stroke:none;" d="M216 468L217 469L216 468z"/>
<path style="fill:#a3a3a3; stroke:none;" d="M231 468L232 469L231 468M286 468L287 469L286 468z"/>
<path style="fill:#2c2c2c; stroke:none;" d="M301 468L302 469L301 468z"/>
<path style="fill:#5d5d5d; stroke:none;" d="M355 468L356 469L355 468z"/>
<path style="fill:#a3a3a3; stroke:none;" d="M370 468L372 477L370 468z"/>
<path style="fill:#5d5d5d; stroke:none;" d="M520 468L520 471L521 471L520 468z"/>
<path style="fill:#2c2c2c; stroke:none;" d="M131 469L131 522L132 522L132 486L131 469z"/>
<path style="fill:#5d5d5d; stroke:none;" d="M216 469L216 476L217 476L216 469M301 469L301 476L302 476L301 469z"/>
<path style="fill:#a3a3a3; stroke:none;" d="M355 469L354 477L355 469z"/>
<path style="fill:#5d5d5d; stroke:none;" d="M424 469L424 475L425 475L424 469z"/>
<path style="fill:#2c2c2c; stroke:none;" d="M440 469L440 475L441 475L440 469M203 470L204 471L203 470z"/>
<path style="fill:#5d5d5d; stroke:none;" d="M204 470L205 471L204 470z"/>
<path style="fill:#a3a3a3; stroke:none;" d="M205 470L205 471L209 471L205 470z"/>
<path style="fill:#5d5d5d; stroke:none;" d="M209 470L210 471L209 470z"/>
<path style="fill:#2c2c2c; stroke:none;" d="M232 470L232 475L233 475L232 470z"/>
<path style="fill:#5d5d5d; stroke:none;" d="M239 470L240 471L239 470z"/>
<path style="fill:#a3a3a3; stroke:none;" d="M240 470L240 471L244 471L240 470z"/>
<path style="fill:#5d5d5d; stroke:none;" d="M244 470L245 471L244 470M273 470L274 471L273 470z"/>
<path style="fill:#a3a3a3; stroke:none;" d="M274 470L274 471L278 471L274 470z"/>
<path style="fill:#5d5d5d; stroke:none;" d="M278 470L279 471L278 470z"/>
<path style="fill:#2c2c2c; stroke:none;" d="M285 470L285 474L286 474L285 470z"/>
<path style="fill:#5d5d5d; stroke:none;" d="M308 470L309 471L308 470z"/>
<path style="fill:#a3a3a3; stroke:none;" d="M309 470L309 471L313 471L309 470z"/>
<path style="fill:#5d5d5d; stroke:none;" d="M313 470L314 471L313 470z"/>
<path style="fill:#2c2c2c; stroke:none;" d="M314 470L315 471L314 470M342 470L343 471L342 470z"/>
<path style="fill:#a3a3a3; stroke:none;" d="M343 470L343 471L348 471L343 470z"/>
<path style="fill:#2c2c2c; stroke:none;" d="M348 470L349 471L348 470M377 470L378 471L377 470z"/>
<path style="fill:#5d5d5d; stroke:none;" d="M378 470L379 471L378 470z"/>
<path style="fill:#a3a3a3; stroke:none;" d="M379 470L379 471L383 471L379 470z"/>
<path style="fill:#5d5d5d; stroke:none;" d="M383 470L384 471L383 470z"/>
<path style="fill:#2c2c2c; stroke:none;" d="M411 470L412 471L411 470z"/>
<path style="fill:#5d5d5d; stroke:none;" d="M412 470L413 471L412 470z"/>
<path style="fill:#a3a3a3; stroke:none;" d="M413 470L413 471L417 471L413 470z"/>
<path style="fill:#5d5d5d; stroke:none;" d="M417 470L418 471L417 470M447 470L448 471L447 470z"/>
<path style="fill:#a3a3a3; stroke:none;" d="M448 470L448 471L452 471L448 470z"/>
<path style="fill:#5d5d5d; stroke:none;" d="M452 470L453 471L452 470z"/>
<path style="fill:#a3a3a3; stroke:none;" d="M202 471L203 472L202 471M210 471L211 472L210 471z"/>
<path style="fill:#2c2c2c; stroke:none;" d="M211 471L212 472L211 471z"/>
<path style="fill:#5d5d5d; stroke:none;" d="M237 471L238 472L237 471M246 471L247 472L246 471M271 471L272 472L271 471M280 471L281 472L280 471z"/>
<path style="fill:#2c2c2c; stroke:none;" d="M306 471L307 472L306 471z"/>
<path style="fill:#a3a3a3; stroke:none;" d="M307 471L308 472L307 471M315 471L316 472L315 471z"/>
<path style="fill:#2c2c2c; stroke:none;" d="M340 471L341 472L340 471z"/>
<path style="fill:#a3a3a3; stroke:none;" d="M341 471L342 472L341 471M349 471L350 472L349 471M376 471L377 472L376 471M384 471L385 472L384 471z"/>
<path style="fill:#2c2c2c; stroke:none;" d="M385 471L386 472L385 471z"/>
<path style="fill:#a3a3a3; stroke:none;" d="M410 471L411 472L410 471M418 471L419 472L418 471z"/>
<path style="fill:#2c2c2c; stroke:none;" d="M419 471L420 472L419 471z"/>
<path style="fill:#5d5d5d; stroke:none;" d="M445 471L446 472L445 471M454 471L455 472L454 471z"/>
<path style="fill:#2c2c2c; stroke:none;" d="M520 471L520 520L521 520C521 506.212 525.309 483.652 520 471z"/>
<path style="fill:#a3a3a3; stroke:none;" d="M201 472L202 473L201 472z"/>
<path style="fill:#2c2c2c; stroke:none;" d="M212 472L213 473L212 472z"/>
<path style="fill:#a3a3a3; stroke:none;" d="M236 472L237 473L236 472z"/>
<path style="fill:#5d5d5d; stroke:none;" d="M247 472L248 473L247 472M270 472L271 473L270 472z"/>
<path style="fill:#a3a3a3; stroke:none;" d="M281 472L282 473L281 472z"/>
<path style="fill:#2c2c2c; stroke:none;" d="M305 472L306 473L305 472z"/>
<path style="fill:#a3a3a3; stroke:none;" d="M316 472L317 473L316 472z"/>
<path style="fill:#2c2c2c; stroke:none;" d="M339 472L340 473L339 472M351 472L352 473L351 472z"/>
<path style="fill:#a3a3a3; stroke:none;" d="M375 472L376 473L375 472z"/>
<path style="fill:#2c2c2c; stroke:none;" d="M386 472L387 473L386 472z"/>
<path style="fill:#a3a3a3; stroke:none;" d="M409 472L410 473L409 472z"/>
<path style="fill:#5d5d5d; stroke:none;" d="M420 472L421 473L420 472M444 472L445 473L444 472z"/>
<path style="fill:#a3a3a3; stroke:none;" d="M455 472L456 473L455 472M200 473L201 474L200 473z"/>
<path style="fill:#5d5d5d; stroke:none;" d="M213 473L214 474L213 473z"/>
<path style="fill:#a3a3a3; stroke:none;" d="M235 473L236 474L235 473z"/>
<path style="fill:#5d5d5d; stroke:none;" d="M248 473L249 474L248 473M269 473L270 474L269 473z"/>
<path style="fill:#a3a3a3; stroke:none;" d="M282 473L283 474L282 473z"/>
<path style="fill:#2c2c2c; stroke:none;" d="M304 473L305 474L304 473z"/>
<path style="fill:#a3a3a3; stroke:none;" d="M317 473L318 474L317 473M374 473L375 474L374 473z"/>
<path style="fill:#2c2c2c; stroke:none;" d="M387 473L388 474L387 473z"/>
<path style="fill:#a3a3a3; stroke:none;" d="M408 473L409 474L408 473z"/>
<path style="fill:#5d5d5d; stroke:none;" d="M421 473L422 474L421 473M443 473L444 474L443 473M456 473L457 474L456 473z"/>
<path style="fill:#2c2c2c; stroke:none;" d="M199 474L200 475L199 474z"/>
<path style="fill:#5d5d5d; stroke:none;" d="M214 474L215 475L214 474z"/>
<path style="fill:#a3a3a3; stroke:none;" d="M234 474L235 475L234 474M283 474L284 475L283 474z"/>
<path style="fill:#2c2c2c; stroke:none;" d="M303 474L304 475L303 474z"/>
<path style="fill:#5d5d5d; stroke:none;" d="M318 474L319 475L318 474z"/>
<path style="fill:#a3a3a3; stroke:none;" d="M338 474L339 475L338 474M373 474L374 475L373 474M387 474L388 475L387 474z"/>
<path style="fill:#2c2c2c; stroke:none;" d="M407 474L408 475L407 474z"/>
<path style="fill:#5d5d5d; stroke:none;" d="M422 474L423 475L422 474M442 474L443 475L442 474z"/>
<path style="fill:#a3a3a3; stroke:none;" d="M199 475L200 476L199 475z"/>
<path style="fill:#2c2c2c; stroke:none;" d="M215 475L216 476L215 475z"/>
<path style="fill:#010101; stroke:none;" d="M232 475L233 476L232 475z"/>
<path style="fill:#5d5d5d; stroke:none;" d="M233 475L234 476L233 475M249 475L250 476L249 475M268 475L269 476L268 475M284 475L285 476L284 475z"/>
<path style="fill:#2c2c2c; stroke:none;" d="M302 475L303 476L302 475z"/>
<path style="fill:#a3a3a3; stroke:none;" d="M318 475L319 476L318 475M372 475L373 476L372 475z"/>
<path style="fill:#2c2c2c; stroke:none;" d="M388 475L389 476L388 475z"/>
<path style="fill:#a3a3a3; stroke:none;" d="M407 475L408 476L407 475z"/>
<path style="fill:#2c2c2c; stroke:none;" d="M423.667 475.333L424.333 475.667L423.667 475.333z"/>
<path style="fill:#010101; stroke:none;" d="M440 475L441 476L440 475z"/>
<path style="fill:#5d5d5d; stroke:none;" d="M441 475L442 476L441 475M457 475L458 476L457 475z"/>
<path style="fill:#a3a3a3; stroke:none;" d="M216 476L217 477L216 476M232 476L233 477L232 476M249 476L249 480L250 480L249 476M268 476L268 480L269 480L268 476M285 476L286 477L285 476M301 476L302 477L301 476z"/>
<path style="fill:#2c2c2c; stroke:none;" d="M337 476L338 477L337 476z"/>
<path style="fill:#5d5d5d; stroke:none;" d="M388 476L388 480L389 480L388 476z"/>
<path style="fill:#a3a3a3; stroke:none;" d="M424 476L425 477L424 476M440 476L441 477L440 476M457 476L458 477L457 476z"/>
<path style="fill:#2c2c2c; stroke:none;" d="M198.333 477.667L198.667 478.333L198.333 477.667M319.333 477.667L319.667 478.333L319.333 477.667z"/>
<path style="fill:#5d5d5d; stroke:none;" d="M337.333 477.667L337.667 478.333L337.333 477.667z"/>
<path style="fill:#2c2c2c; stroke:none;" d="M337 479L338 480L337 479z"/>
<path style="fill:#a3a3a3; stroke:none;" d="M407.333 479.667L407.667 480.333L407.333 479.667M457 479L458 480L457 479M199 480L200 481L199 480z"/>
<path style="fill:#5d5d5d; stroke:none;" d="M249 480L250 481L249 480M268 480L269 481L268 480z"/>
<path style="fill:#a3a3a3; stroke:none;" d="M318 480L319 481L318 480z"/>
<path style="fill:#5d5d5d; stroke:none;" d="M457 480L458 481L457 480z"/>
<path style="fill:#2c2c2c; stroke:none;" d="M199 481L200 482L199 481M318 481L319 482L318 481z"/>
<path style="fill:#5d5d5d; stroke:none;" d="M338 481L339 482L338 481z"/>
<path style="fill:#a3a3a3; stroke:none;" d="M387 481L388 482L387 481z"/>
<path style="fill:#2c2c2c; stroke:none;" d="M407 481L408 482L407 481z"/>
<path style="fill:#a3a3a3; stroke:none;" d="M200 482L201 483L200 482z"/>
<path style="fill:#2c2c2c; stroke:none;" d="M248 482L249 483L248 482M269 482L270 483L269 482z"/>
<path style="fill:#a3a3a3; stroke:none;" d="M317 482L318 483L317 482z"/>
<path style="fill:#5d5d5d; stroke:none;" d="M408 482L409 483L408 482M456 482L457 483L456 482z"/>
<path style="fill:#a3a3a3; stroke:none;" d="M201 483L202 484L201 483z"/>
<path style="fill:#5d5d5d; stroke:none;" d="M247 483L248 484L247 483M270 483L271 484L270 483z"/>
<path style="fill:#a3a3a3; stroke:none;" d="M316 483L317 484L316 483z"/>
<path style="fill:#2c2c2c; stroke:none;" d="M339 483L340 484L339 483M386 483L387 484L386 483z"/>
<path style="fill:#a3a3a3; stroke:none;" d="M409 483L410 484L409 483M455 483L456 484L455 483M202 484L203 485L202 484z"/>
<path style="fill:#5d5d5d; stroke:none;" d="M246 484L247 485L246 484M271 484L272 485L271 484z"/>
<path style="fill:#a3a3a3; stroke:none;" d="M315 484L316 485L315 484z"/>
<path style="fill:#2c2c2c; stroke:none;" d="M340 484L341 485L340 484M385 484L386 485L385 484z"/>
<path style="fill:#a3a3a3; stroke:none;" d="M410 484L411 485L410 484M454 484L455 485L454 484M203 485L204 486L203 485z"/>
<path style="fill:#5d5d5d; stroke:none;" d="M245 485L246 486L245 485M272 485L273 486L272 485z"/>
<path style="fill:#a3a3a3; stroke:none;" d="M314 485L315 486L314 485z"/>
<path style="fill:#2c2c2c; stroke:none;" d="M341 485L342 486L341 485M384 485L385 486L384 485z"/>
<path style="fill:#a3a3a3; stroke:none;" d="M411 485L412 486L411 485M453 485L454 486L453 485M204 486L205 487L204 486z"/>
<path style="fill:#5d5d5d; stroke:none;" d="M244 486L245 487L244 486M273 486L274 487L273 486z"/>
<path style="fill:#a3a3a3; stroke:none;" d="M313 486L314 487L313 486z"/>
<path style="fill:#2c2c2c; stroke:none;" d="M342 486L343 487L342 486M383 486L384 487L383 486z"/>
<path style="fill:#a3a3a3; stroke:none;" d="M412 486L413 487L412 486M452 486L453 487L452 486M205 487L206 488L205 487z"/>
<path style="fill:#5d5d5d; stroke:none;" d="M243 487L244 488L243 487M274 487L275 488L274 487z"/>
<path style="fill:#a3a3a3; stroke:none;" d="M312 487L313 488L312 487z"/>
<path style="fill:#2c2c2c; stroke:none;" d="M343 487L344 488L343 487M382 487L383 488L382 487z"/>
<path style="fill:#a3a3a3; stroke:none;" d="M413 487L414 488L413 487M451 487L452 488L451 487M206 488L207 489L206 488z"/>
<path style="fill:#5d5d5d; stroke:none;" d="M242 488L243 489L242 488M275 488L276 489L275 488z"/>
<path style="fill:#a3a3a3; stroke:none;" d="M311 488L312 489L311 488z"/>
<path style="fill:#2c2c2c; stroke:none;" d="M344 488L345 489L344 488M381 488L382 489L381 488z"/>
<path style="fill:#a3a3a3; stroke:none;" d="M414 488L415 489L414 488M450 488L451 489L450 488M207 489L208 490L207 489z"/>
<path style="fill:#5d5d5d; stroke:none;" d="M241 489L242 490L241 489M276 489L277 490L276 489z"/>
<path style="fill:#a3a3a3; stroke:none;" d="M310 489L311 490L310 489z"/>
<path style="fill:#2c2c2c; stroke:none;" d="M345 489L346 490L345 489M380 489L381 490L380 489z"/>
<path style="fill:#a3a3a3; stroke:none;" d="M415 489L416 490L415 489M449 489L450 490L449 489M208 490L209 491L208 490z"/>
<path style="fill:#5d5d5d; stroke:none;" d="M240 490L241 491L240 490M277 490L278 491L277 490z"/>
<path style="fill:#a3a3a3; stroke:none;" d="M309 490L310 491L309 490z"/>
<path style="fill:#2c2c2c; stroke:none;" d="M346 490L347 491L346 490M379 490L380 491L379 490z"/>
<path style="fill:#a3a3a3; stroke:none;" d="M416 490L417 491L416 490M448 490L449 491L448 490M209 491L210 492L209 491z"/>
<path style="fill:#5d5d5d; stroke:none;" d="M239 491L240 492L239 491M278 491L279 492L278 491z"/>
<path style="fill:#a3a3a3; stroke:none;" d="M308 491L309 492L308 491z"/>
<path style="fill:#2c2c2c; stroke:none;" d="M347 491L348 492L347 491M378 491L379 492L378 491z"/>
<path style="fill:#a3a3a3; stroke:none;" d="M417 491L418 492L417 491M447 491L448 492L447 491M210 492L211 493L210 492z"/>
<path style="fill:#5d5d5d; stroke:none;" d="M238 492L239 493L238 492M279 492L280 493L279 492z"/>
<path style="fill:#a3a3a3; stroke:none;" d="M307 492L308 493L307 492z"/>
<path style="fill:#2c2c2c; stroke:none;" d="M348 492L349 493L348 492M377 492L378 493L377 492z"/>
<path style="fill:#a3a3a3; stroke:none;" d="M418 492L419 493L418 492M446 492L447 493L446 492M211 493L212 494L211 493z"/>
<path style="fill:#5d5d5d; stroke:none;" d="M237 493L238 494L237 493M280 493L281 494L280 493z"/>
<path style="fill:#a3a3a3; stroke:none;" d="M306 493L307 494L306 493z"/>
<path style="fill:#2c2c2c; stroke:none;" d="M349 493L350 494L349 493M376 493L377 494L376 493z"/>
<path style="fill:#a3a3a3; stroke:none;" d="M419 493L420 494L419 493M445 493L446 494L445 493M212 494L213 495L212 494z"/>
<path style="fill:#5d5d5d; stroke:none;" d="M236 494L237 495L236 494M281 494L282 495L281 494z"/>
<path style="fill:#a3a3a3; stroke:none;" d="M305 494L306 495L305 494z"/>
<path style="fill:#2c2c2c; stroke:none;" d="M350 494L351 495L350 494M375 494L376 495L375 494z"/>
<path style="fill:#a3a3a3; stroke:none;" d="M420 494L421 495L420 494M444 494L445 495L444 494M235 495L236 496L235 495M282 495L283 496L282 495z"/>
<path style="fill:#2c2c2c; stroke:none;" d="M351 495L352 496L351 495z"/>
<path style="fill:#5d5d5d; stroke:none;" d="M374 495L375 496L374 495z"/>
<path style="fill:#a3a3a3; stroke:none;" d="M421 495L422 496L421 495M443 495L444 496L443 495z"/>
<path style="fill:#5d5d5d; stroke:none;" d="M212 496L213 497L212 496z"/>
<path style="fill:#2c2c2c; stroke:none;" d="M236 496L237 497L236 496M281 496L282 497L281 496z"/>
<path style="fill:#a3a3a3; stroke:none;" d="M305 496L306 497L305 496M351 496L352 497L351 496M374 496L375 497L374 496z"/>
<path style="fill:#5d5d5d; stroke:none;" d="M420 496L421 497L420 496M444 496L445 497L444 496z"/>
<path style="fill:#a3a3a3; stroke:none;" d="M211 497L212 498L211 497z"/>
<path style="fill:#2c2c2c; stroke:none;" d="M237 497L238 498L237 497M280 497L281 498L280 497z"/>
<path style="fill:#a3a3a3; stroke:none;" d="M306 497L307 498L306 497M350 497L351 498L350 497z"/>
<path style="fill:#5d5d5d; stroke:none;" d="M419 497L420 498L419 497M445 497L446 498L445 497z"/>
<path style="fill:#a3a3a3; stroke:none;" d="M210 498L211 499L210 498z"/>
<path style="fill:#2c2c2c; stroke:none;" d="M238 498L239 499L238 498M279 498L280 499L279 498z"/>
<path style="fill:#a3a3a3; stroke:none;" d="M307 498L308 499L307 498M349 498L350 499L349 498z"/>
<path style="fill:#5d5d5d; stroke:none;" d="M418 498L419 499L418 498M446 498L447 499L446 498z"/>
<path style="fill:#a3a3a3; stroke:none;" d="M209 499L210 500L209 499z"/>
<path style="fill:#2c2c2c; stroke:none;" d="M239 499L240 500L239 499M278 499L279 500L278 499z"/>
<path style="fill:#a3a3a3; stroke:none;" d="M308 499L309 500L308 499M348 499L349 500L348 499z"/>
<path style="fill:#5d5d5d; stroke:none;" d="M417 499L418 500L417 499M447 499L448 500L447 499z"/>
<path style="fill:#a3a3a3; stroke:none;" d="M208 500L209 501L208 500z"/>
<path style="fill:#2c2c2c; stroke:none;" d="M240 500L241 501L240 500M277 500L278 501L277 500z"/>
<path style="fill:#a3a3a3; stroke:none;" d="M309 500L310 501L309 500M347 500L348 501L347 500z"/>
<path style="fill:#5d5d5d; stroke:none;" d="M416 500L417 501L416 500M448 500L449 501L448 500z"/>
<path style="fill:#a3a3a3; stroke:none;" d="M207 501L208 502L207 501z"/>
<path style="fill:#2c2c2c; stroke:none;" d="M241 501L242 502L241 501M276 501L277 502L276 501z"/>
<path style="fill:#a3a3a3; stroke:none;" d="M310 501L311 502L310 501M346 501L347 502L346 501z"/>
<path style="fill:#5d5d5d; stroke:none;" d="M415 501L416 502L415 501M449 501L450 502L449 501z"/>
<path style="fill:#a3a3a3; stroke:none;" d="M206 502L207 503L206 502z"/>
<path style="fill:#2c2c2c; stroke:none;" d="M242 502L243 503L242 502M275 502L276 503L275 502z"/>
<path style="fill:#a3a3a3; stroke:none;" d="M311 502L312 503L311 502M345 502L346 503L345 502z"/>
<path style="fill:#5d5d5d; stroke:none;" d="M414 502L415 503L414 502M450 502L451 503L450 502z"/>
<path style="fill:#a3a3a3; stroke:none;" d="M205 503L206 504L205 503z"/>
<path style="fill:#2c2c2c; stroke:none;" d="M243 503L244 504L243 503M274 503L275 504L274 503z"/>
<path style="fill:#a3a3a3; stroke:none;" d="M312 503L313 504L312 503M344 503L345 504L344 503z"/>
<path style="fill:#5d5d5d; stroke:none;" d="M413 503L414 504L413 503M451 503L452 504L451 503z"/>
<path style="fill:#a3a3a3; stroke:none;" d="M204 504L205 505L204 504z"/>
<path style="fill:#2c2c2c; stroke:none;" d="M244 504L245 505L244 504M273 504L274 505L273 504z"/>
<path style="fill:#a3a3a3; stroke:none;" d="M313 504L314 505L313 504M343 504L344 505L343 504z"/>
<path style="fill:#5d5d5d; stroke:none;" d="M412 504L413 505L412 504M452 504L453 505L452 504z"/>
<path style="fill:#a3a3a3; stroke:none;" d="M203 505L204 506L203 505z"/>
<path style="fill:#2c2c2c; stroke:none;" d="M245 505L246 506L245 505M272 505L273 506L272 505z"/>
<path style="fill:#a3a3a3; stroke:none;" d="M314 505L315 506L314 505M342 505L343 506L342 505z"/>
<path style="fill:#5d5d5d; stroke:none;" d="M411 505L412 506L411 505M453 505L454 506L453 505z"/>
<path style="fill:#a3a3a3; stroke:none;" d="M202 506L203 507L202 506z"/>
<path style="fill:#2c2c2c; stroke:none;" d="M246 506L247 507L246 506M271 506L272 507L271 506z"/>
<path style="fill:#a3a3a3; stroke:none;" d="M315 506L316 507L315 506M341 506L342 507L341 506z"/>
<path style="fill:#5d5d5d; stroke:none;" d="M410 506L411 507L410 506M454 506L455 507L454 506z"/>
<path style="fill:#a3a3a3; stroke:none;" d="M201 507L202 508L201 507z"/>
<path style="fill:#2c2c2c; stroke:none;" d="M247 507L248 508L247 507M270 507L271 508L270 507z"/>
<path style="fill:#a3a3a3; stroke:none;" d="M316 507L317 508L316 507M340 507L341 508L340 507z"/>
<path style="fill:#5d5d5d; stroke:none;" d="M409 507L410 508L409 507M455 507L456 508L455 507M200 508L201 509L200 508z"/>
<path style="fill:#2c2c2c; stroke:none;" d="M248 508L249 509L248 508M269 508L270 509L269 508z"/>
<path style="fill:#5d5d5d; stroke:none;" d="M317 508L318 509L317 508z"/>
<path style="fill:#a3a3a3; stroke:none;" d="M339 508L340 509L339 508M386 508L387 509L386 508z"/>
<path style="fill:#5d5d5d; stroke:none;" d="M408 508L409 509L408 508z"/>
<path style="fill:#2c2c2c; stroke:none;" d="M456 508L457 509L456 508M199 509L200 510L199 509z"/>
<path style="fill:#a3a3a3; stroke:none;" d="M248 509L249 510L248 509M269 509L270 510L269 509z"/>
<path style="fill:#2c2c2c; stroke:none;" d="M318 509L319 510L318 509z"/>
<path style="fill:#5d5d5d; stroke:none;" d="M338 509L339 510L338 509M387 509L388 510L387 509z"/>
<path style="fill:#a3a3a3; stroke:none;" d="M199 510L200 511L199 510z"/>
<path style="fill:#2c2c2c; stroke:none;" d="M249 510L250 511L249 510M268 510L269 511L268 510z"/>
<path style="fill:#a3a3a3; stroke:none;" d="M318 510L319 511L318 510z"/>
<path style="fill:#5d5d5d; stroke:none;" d="M407 510L408 511L407 510M457 510L458 511L457 510z"/>
<path style="fill:#a3a3a3; stroke:none;" d="M249 511L249 515L250 515L249 511M268 511L268 515L269 515L268 511z"/>
<path style="fill:#2c2c2c; stroke:none;" d="M337 511L338 512L337 511z"/>
<path style="fill:#5d5d5d; stroke:none;" d="M388.333 511.667L388.667 512.333L388.333 511.667z"/>
<path style="fill:#a3a3a3; stroke:none;" d="M407 511L408 512L407 511M457.333 511.667L457.667 512.333L457.333 511.667z"/>
<path style="fill:#2c2c2c; stroke:none;" d="M198.333 512.667L198.667 513.333L198.333 512.667M319.333 512.667L319.667 513.333L319.333 512.667z"/>
<path style="fill:#5d5d5d; stroke:none;" d="M337 512L337 515L338 515L337 512z"/>
<path style="fill:#a3a3a3; stroke:none;" d="M388 513L389 514L388 513M301 514L302 515L301 514z"/>
<path style="fill:#5d5d5d; stroke:none;" d="M388 514L389 515L388 514z"/>
<path style="fill:#a3a3a3; stroke:none;" d="M424 514L425 515L424 514M457.333 514.667L457.667 515.333L457.333 514.667M199 515L200 516L199 515z"/>
<path style="fill:#5d5d5d; stroke:none;" d="M215 515L216 522L217 522L215 515z"/>
<path style="fill:#a3a3a3; stroke:none;" d="M233 515L234 516L233 515z"/>
<path style="fill:#5d5d5d; stroke:none;" d="M249 515L250 516L249 515M268 515L269 516L268 515z"/>
<path style="fill:#a3a3a3; stroke:none;" d="M284 515L285 516L284 515z"/>
<path style="fill:#5d5d5d; stroke:none;" d="M301 515L301 522L302 522L301 515z"/>
<path style="fill:#2c2c2c; stroke:none;" d="M302 515L303 516L302 515z"/>
<path style="fill:#a3a3a3; stroke:none;" d="M318 515L319 516L318 515z"/>
<path style="fill:#2c2c2c; stroke:none;" d="M354 515L355 516L354 515z"/>
<path style="fill:#a3a3a3; stroke:none;" d="M355 515L355 522L356 522L355 515M370 515L370 523L371 523L370 515z"/>
<path style="fill:#2c2c2c; stroke:none;" d="M371 515L372 516L371 515M388 515L389 516L388 515z"/>
<path style="fill:#a3a3a3; stroke:none;" d="M407 515L408 516L407 515z"/>
<path style="fill:#5d5d5d; stroke:none;" d="M423 515L424 522L425 522L423 515z"/>
<path style="fill:#2c2c2c; stroke:none;" d="M424 515L425 516L424 515M440 515L440 522L441 522L440 515z"/>
<path style="fill:#a3a3a3; stroke:none;" d="M441 515L442 516L441 515z"/>
<path style="fill:#5d5d5d; stroke:none;" d="M199 516L200 517L199 516M214 516L215 517L214 516z"/>
<path style="fill:#a3a3a3; stroke:none;" d="M234 516L235 517L234 516M283 516L284 517L283 516z"/>
<path style="fill:#5d5d5d; stroke:none;" d="M303 516L304 517L303 516M318 516L319 517L318 516z"/>
<path style="fill:#a3a3a3; stroke:none;" d="M338 516L339 517L338 516z"/>
<path style="fill:#2c2c2c; stroke:none;" d="M353 516L354 517L353 516M372 516L373 517L372 516z"/>
<path style="fill:#a3a3a3; stroke:none;" d="M387 516L388 517L387 516z"/>
<path style="fill:#2c2c2c; stroke:none;" d="M407 516L408 517L407 516z"/>
<path style="fill:#a3a3a3; stroke:none;" d="M422 516L423 517L422 516M442 516L443 517L442 516z"/>
<path style="fill:#2c2c2c; stroke:none;" d="M457 516L458 517L457 516z"/>
<path style="fill:#a3a3a3; stroke:none;" d="M200 517L201 518L200 517z"/>
<path style="fill:#5d5d5d; stroke:none;" d="M213 517L214 518L213 517z"/>
<path style="fill:#2c2c2c; stroke:none;" d="M232 517L232 522L233 522L232 517z"/>
<path style="fill:#a3a3a3; stroke:none;" d="M235 517L236 518L235 517z"/>
<path style="fill:#5d5d5d; stroke:none;" d="M248 517L249 518L248 517M269 517L270 518L269 517z"/>
<path style="fill:#a3a3a3; stroke:none;" d="M282 517L283 518L282 517z"/>
<path style="fill:#2c2c2c; stroke:none;" d="M285 517L285 521L286 521L285 517z"/>
<path style="fill:#5d5d5d; stroke:none;" d="M304 517L305 518L304 517z"/>
<path style="fill:#2c2c2c; stroke:none;" d="M338 517L339 518L338 517M352 517L353 518L352 517M373 517L374 518L373 517M387 517L388 518L387 517z"/>
<path style="fill:#a3a3a3; stroke:none;" d="M408 517L409 518L408 517M421 517L422 518L421 517M443 517L444 518L443 517M456 517L457 518L456 517z"/>
<path style="fill:#2c2c2c; stroke:none;" d="M200 518L201 519L200 518z"/>
<path style="fill:#5d5d5d; stroke:none;" d="M212 518L213 519L212 518z"/>
<path style="fill:#a3a3a3; stroke:none;" d="M236 518L237 519L236 518M247 518L248 519L247 518M270 518L271 519L270 518M281 518L282 519L281 518z"/>
<path style="fill:#5d5d5d; stroke:none;" d="M305 518L306 519L305 518z"/>
<path style="fill:#2c2c2c; stroke:none;" d="M317 518L318 519L317 518z"/>
<path style="fill:#5d5d5d; stroke:none;" d="M339 518L340 519L339 518z"/>
<path style="fill:#2c2c2c; stroke:none;" d="M351 518L352 519L351 518M374 518L375 519L374 518z"/>
<path style="fill:#5d5d5d; stroke:none;" d="M386 518L387 519L386 518z"/>
<path style="fill:#a3a3a3; stroke:none;" d="M420 518L421 519L420 518M444 518L445 519L444 518M455 518L456 519L455 518z"/>
<path style="fill:#2c2c2c; stroke:none;" d="M201 519L202 520L201 519z"/>
<path style="fill:#a3a3a3; stroke:none;" d="M202 519L203 520L202 519z"/>
<path style="fill:#5d5d5d; stroke:none;" d="M211 519L212 520L211 519z"/>
<path style="fill:#a3a3a3; stroke:none;" d="M237 519L238 520L237 519M246 519L247 520L246 519M271 519L272 520L271 519M280 519L281 520L280 519z"/>
<path style="fill:#5d5d5d; stroke:none;" d="M306 519L307 520L306 519z"/>
<path style="fill:#a3a3a3; stroke:none;" d="M315 519L316 520L315 519z"/>
<path style="fill:#2c2c2c; stroke:none;" d="M316 519L317 520L316 519z"/>
<path style="fill:#5d5d5d; stroke:none;" d="M340 519L341 520L340 519z"/>
<path style="fill:#2c2c2c; stroke:none;" d="M350 519L351 520L350 519M375 519L376 520L375 519z"/>
<path style="fill:#a3a3a3; stroke:none;" d="M376 519L377 520L376 519z"/>
<path style="fill:#5d5d5d; stroke:none;" d="M385 519L386 520L385 519z"/>
<path style="fill:#a3a3a3; stroke:none;" d="M410 519L411 520L410 519z"/>
<path style="fill:#5d5d5d; stroke:none;" d="M419 519L420 520L419 519z"/>
<path style="fill:#a3a3a3; stroke:none;" d="M445 519L446 520L445 519M454 519L455 520L454 519z"/>
<path style="fill:#5d5d5d; stroke:none;" d="M203 520L204 521L203 520z"/>
<path style="fill:#a3a3a3; stroke:none;" d="M204 520L205 521L204 520M208.667 520.333L209.333 520.667L208.667 520.333z"/>
<path style="fill:#2c2c2c; stroke:none;" d="M210 520L211 521L210 520M238 520L239 521L238 520z"/>
<path style="fill:#a3a3a3; stroke:none;" d="M239 520L240 521L239 520M244 520L245 521L244 520z"/>
<path style="fill:#2c2c2c; stroke:none;" d="M245 520L246 521L245 520M272 520L273 521L272 520z"/>
<path style="fill:#a3a3a3; stroke:none;" d="M273 520L274 521L273 520M278 520L279 521L278 520z"/>
<path style="fill:#2c2c2c; stroke:none;" d="M279 520L280 521L279 520z"/>
<path style="fill:#5d5d5d; stroke:none;" d="M308 520L309 521L308 520z"/>
<path style="fill:#a3a3a3; stroke:none;" d="M309 520L310 521L309 520M313 520L314 521L313 520z"/>
<path style="fill:#5d5d5d; stroke:none;" d="M314 520L315 521L314 520M342 520L343 521L342 520z"/>
<path style="fill:#a3a3a3; stroke:none;" d="M343 520L344 521L343 520M347 520L348 521L347 520z"/>
<path style="fill:#5d5d5d; stroke:none;" d="M348 520L349 521L348 520M377 520L378 521L377 520z"/>
<path style="fill:#a3a3a3; stroke:none;" d="M378 520L379 521L378 520M382.667 520.333L383.333 520.667L382.667 520.333z"/>
<path style="fill:#2c2c2c; stroke:none;" d="M384 520L385 521L384 520z"/>
<path style="fill:#5d5d5d; stroke:none;" d="M411 520L412 521L411 520z"/>
<path style="fill:#a3a3a3; stroke:none;" d="M412 520L413 521L412 520M417 520L418 521L417 520z"/>
<path style="fill:#2c2c2c; stroke:none;" d="M418 520L419 521L418 520M446 520L447 521L446 520z"/>
<path style="fill:#a3a3a3; stroke:none;" d="M447 520L448 521L447 520M452 520L453 521L452 520z"/>
<path style="fill:#5d5d5d; stroke:none;" d="M453 520L454 521L453 520M520 520L520 523L521 523L520 520z"/>
<path style="fill:#2c2c2c; stroke:none;" d="M206 521L207 522L206 521M241.667 521.333L242.333 521.667L241.667 521.333M275.667 521.333L276.333 521.667L275.667 521.333M311 521L312 522L311 521M345 521L346 522L345 521M380 521L381 522L380 521M414.667 521.333L415.333 521.667L414.667 521.333M449.667 521.333L450.333 521.667L449.667 521.333z"/>
<path style="fill:#5d5d5d; stroke:none;" d="M131.333 522.667L131.667 523.333L131.333 522.667z"/>
<path style="fill:#2c2c2c; stroke:none;" d="M216 522L217 523L216 522z"/>
<path style="fill:#a3a3a3; stroke:none;" d="M286 522L287 523L286 522z"/>
<path style="fill:#2c2c2c; stroke:none;" d="M301 522L302 523L301 522z"/>
<path style="fill:#5d5d5d; stroke:none;" d="M355 522L356 523L355 522z"/>
<path style="fill:#2c2c2c; stroke:none;" d="M424 522L425 523L424 522z"/>
<path style="fill:#a3a3a3; stroke:none;" d="M231 523L232 524L231 523z"/>
<path style="fill:#5d5d5d; stroke:none;" d="M286 523L287 524L286 523z"/>
<path style="fill:#2c2c2c; stroke:none;" d="M355 523L356 524L355 523M370 523L371 524L370 523z"/>
<path style="fill:#a3a3a3; stroke:none;" d="M425 523L426 524L425 523M439 523L440 524L439 523M520.333 523.667L520.667 524.333L520.333 523.667M131.333 524.667L131.667 525.333L131.333 524.667z"/>
<path style="fill:#5d5d5d; stroke:none;" d="M217 524L218 525L217 524M300 524L301 525L300 524z"/>
<path style="fill:#a3a3a3; stroke:none;" d="M356 524L357 525L356 524M369 524L370 525L369 524z"/>
<path style="fill:#2c2c2c; stroke:none;" d="M425 524L426 525L425 524M439 524L440 525L439 524z"/>
<path style="fill:#a3a3a3; stroke:none;" d="M218 525L219 526L218 525z"/>
<path style="fill:#5d5d5d; stroke:none;" d="M230 525L231 526L230 525M287 525L288 526L287 525z"/>
<path style="fill:#a3a3a3; stroke:none;" d="M299 525L300 526L299 525z"/>
<path style="fill:#2c2c2c; stroke:none;" d="M369 525L370 526L369 525z"/>
<path style="fill:#a3a3a3; stroke:none;" d="M426 525L427 526L426 525z"/>
<path style="fill:#5d5d5d; stroke:none;" d="M438 525L439 526L438 525z"/>
<path style="fill:#a3a3a3; stroke:none;" d="M219 526L220 527L219 526z"/>
<path style="fill:#5d5d5d; stroke:none;" d="M229 526L230 527L229 526M288 526L289 527L288 526z"/>
<path style="fill:#a3a3a3; stroke:none;" d="M298 526L299 527L298 526z"/>
<path style="fill:#2c2c2c; stroke:none;" d="M357 526L358 527L357 526z"/>
<path style="fill:#a3a3a3; stroke:none;" d="M358 526L359 527L358 526z"/>
<path style="fill:#2c2c2c; stroke:none;" d="M368 526L369 527L368 526z"/>
<path style="fill:#a3a3a3; stroke:none;" d="M427 526L428 527L427 526z"/>
<path style="fill:#5d5d5d; stroke:none;" d="M437 526L438 527L437 526z"/>
<path style="fill:#2c2c2c; stroke:none;" d="M519 526L520 527L519 526z"/>
<path style="fill:#5d5d5d; stroke:none;" d="M132 527L133 528L132 527M220 527L221 528L220 527z"/>
<path style="fill:#a3a3a3; stroke:none;" d="M221 527L222 528L221 527M227 527L228 528L227 527z"/>
<path style="fill:#2c2c2c; stroke:none;" d="M228 527L229 528L228 527M289 527L290 528L289 527z"/>
<path style="fill:#a3a3a3; stroke:none;" d="M290 527L291 528L290 527M296 527L297 528L296 527z"/>
<path style="fill:#5d5d5d; stroke:none;" d="M297 527L298 528L297 527M359 527L360 528L359 527z"/>
<path style="fill:#a3a3a3; stroke:none;" d="M366 527L367 528L366 527z"/>
<path style="fill:#5d5d5d; stroke:none;" d="M428 527L429 528L428 527z"/>
<path style="fill:#a3a3a3; stroke:none;" d="M429 527L430 528L429 527M435 527L436 528L435 527z"/>
<path style="fill:#2c2c2c; stroke:none;" d="M436 527L437 528L436 527z"/>
<path style="fill:#5d5d5d; stroke:none;" d="M519 527L520 528L519 527z"/>
<path style="fill:#a3a3a3; stroke:none;" d="M132 528L133 529L132 528z"/>
<path style="fill:#2c2c2c; stroke:none;" d="M222 528L223 529L222 528z"/>
<path style="fill:#5d5d5d; stroke:none;" d="M223 528L223 529L226 529L223 528z"/>
<path style="fill:#2c2c2c; stroke:none;" d="M226 528L227 529L226 528M291 528L292 529L291 528z"/>
<path style="fill:#5d5d5d; stroke:none;" d="M292 528L292 529L295 529L292 528z"/>
<path style="fill:#2c2c2c; stroke:none;" d="M295 528L296 529L295 528M361 528L362 529L361 528z"/>
<path style="fill:#5d5d5d; stroke:none;" d="M362.667 528.333L363.333 528.667L362.667 528.333z"/>
<path style="fill:#2c2c2c; stroke:none;" d="M364 528L365 529L364 528M430 528L431 529L430 528z"/>
<path style="fill:#5d5d5d; stroke:none;" d="M431 528L431 529L434 529L431 528z"/>
<path style="fill:#2c2c2c; stroke:none;" d="M434 528L435 529L434 528z"/>
<path style="fill:#a3a3a3; stroke:none;" d="M519 528L520 529L519 528z"/>
<path style="fill:#2c2c2c; stroke:none;" d="M133 530L134 531L133 530z"/>
<path style="fill:#5d5d5d; stroke:none;" d="M518 530L519 531L518 530z"/>
<path style="fill:#a3a3a3; stroke:none;" d="M133 531L134 532L133 531M518 531L519 532L518 531z"/>
<path style="fill:#2c2c2c; stroke:none;" d="M517 532L518 533L517 532z"/>
<path style="fill:#a3a3a3; stroke:none;" d="M134 533L135 534L134 533M517 533L518 534L517 533z"/>
<path style="fill:#2c2c2c; stroke:none;" d="M516 534L517 535L516 534z"/>
<path style="fill:#a3a3a3; stroke:none;" d="M135 535L136 536L135 535M516 535L517 536L516 535z"/>
<path style="fill:#2c2c2c; stroke:none;" d="M136 536L137 537L136 536z"/>
<path style="fill:#5d5d5d; stroke:none;" d="M515 536L516 537L515 536z"/>
<path style="fill:#a3a3a3; stroke:none;" d="M137 538L138 539L137 538M514 538L515 539L514 538z"/>
<path style="fill:#5d5d5d; stroke:none;" d="M138 539L139 540L138 539M513 539L514 540L513 539z"/>
<path style="fill:#2c2c2c; stroke:none;" d="M139 540L140 541L139 540z"/>
<path style="fill:#5d5d5d; stroke:none;" d="M512 540L513 541L512 540z"/>
<path style="fill:#2c2c2c; stroke:none;" d="M140 541L141 542L140 541M511 541L512 542L511 541M141 542L142 543L141 542M510 542L511 543L510 542M142 543L143 544L142 543z"/>
<path style="fill:#5d5d5d; stroke:none;" d="M509 543L510 544L509 543M143 544L144 545L143 544M508 544L509 545L508 544z"/>
<path style="fill:#a3a3a3; stroke:none;" d="M144 545L145 546L144 545M507 545L508 546L507 545M145 546L146 547L145 546z"/>
<path style="fill:#2c2c2c; stroke:none;" d="M146 546L147 547L146 546z"/>
<path style="fill:#5d5d5d; stroke:none;" d="M505 546L506 547L505 546z"/>
<path style="fill:#a3a3a3; stroke:none;" d="M147 547L148 548L147 547z"/>
<path style="fill:#2c2c2c; stroke:none;" d="M148 547L149 548L148 547M503 547L504 548L503 547z"/>
<path style="fill:#a3a3a3; stroke:none;" d="M504 547L505 548L504 547M149 548L150 549L149 548z"/>
<path style="fill:#2c2c2c; stroke:none;" d="M150 548L151 549L150 548M501 548L502 549L501 548z"/>
<path style="fill:#a3a3a3; stroke:none;" d="M502 548L503 549L502 548M151 549L152 550L151 549z"/>
<path style="fill:#2c2c2c; stroke:none;" d="M152 549L153 550L152 549M499 549L500 550L499 549z"/>
<path style="fill:#a3a3a3; stroke:none;" d="M500 549L501 550L500 549M153.667 550.333L154.333 550.667L153.667 550.333z"/>
<path style="fill:#2c2c2c; stroke:none;" d="M155 550L156 551L155 550M495 550L496 551L495 550z"/>
<path style="fill:#5d5d5d; stroke:none;" d="M496 550L497 551L496 550z"/>
<path style="fill:#a3a3a3; stroke:none;" d="M497 550L498 551L497 550M157.667 551.333L158.333 551.667L157.667 551.333z"/>
<path style="fill:#5d5d5d; stroke:none;" d="M159.667 551.333L160.333 551.667L159.667 551.333z"/>
<path style="fill:#2c2c2c; stroke:none;" d="M161 551L161 552L491 552L461 551L394 551L161 551z"/>
<path style="fill:#5d5d5d; stroke:none;" d="M491.667 551.333L492.333 551.667L491.667 551.333z"/>
<path style="fill:#a3a3a3; stroke:none;" d="M493.667 551.333L494.333 551.667L493.667 551.333z"/>
</svg>
