<?xml version="1.0" encoding="UTF-8"?>
<svg id="Layer_1" data-name="Layer 1" xmlns="http://www.w3.org/2000/svg" viewBox="0 0 3304.93 2633.61">
  <defs>
    <style>
      .cls-1 {
        fill-rule: evenodd;
      }
    </style>
  </defs>
  <g>
    <path class="cls-1" d="m2898.27,2633.61H406.66c-223.99,0-406.66-182.68-406.66-406.66V406.66c0-106.51,41.95-207.85,118.77-285.31C196.23,43.24,298.22,0,406.66,0h2491.61c108.44,0,210.43,43.25,287.89,121.35,76.81,77.46,118.77,178.81,118.77,285.31v1820.29c0,223.99-182.68,406.66-406.66,406.66h0ZM406.66,90.37c-171.7,0-316.3,144.59-316.3,316.3v1820.29c0,174.28,142.01,316.3,316.3,316.3h2491.61c174.28,0,316.3-142.02,316.3-316.31V406.66c0-171.7-144.59-316.3-316.3-316.3H406.66Z"/>
    <path class="cls-1" d="m3259.75,755.23H45.19c-25.17,0-45.19-20.01-45.19-45.19s20.01-45.19,45.19-45.19h3214.56c25.17,0,45.19,20.02,45.19,45.2s-20.01,45.18-45.19,45.18Z"/>
    <g>
      <path class="cls-1" d="m2788.54,516.4c-73.59,0-135.55-61.97-135.55-135.55s59.38-135.55,135.55-135.55,135.55,59.38,135.55,135.55-61.97,135.55-135.55,135.55h0Zm0-180.74c-26.46,0-45.19,18.72-45.19,45.19,0,21.3,19.36,45.19,45.19,45.19s45.19-23.89,45.19-45.19c0-26.47-18.72-45.19-45.19-45.19Z"/>
      <path class="cls-1" d="m2433.51,516.4c-69.71,0-135.55-65.84-135.55-135.55,0-73.59,61.97-135.55,135.55-135.55s135.55,59.38,135.55,135.55-61.97,135.55-135.55,135.55h0Zm0-180.74c-21.3,0-45.19,19.36-45.19,45.19,0,20.01,25.17,45.19,45.19,45.19,25.82,0,45.19-23.89,45.19-45.19,0-26.47-18.72-45.19-45.19-45.19Z"/>
    </g>
    <g>
      <path class="cls-1" d="m1148.98,426.02h-251.74c-25.17,0-45.19-20.01-45.19-45.19s20.01-45.19,45.19-45.19h251.74c25.17,0,45.19,20.02,45.19,45.2s-20.01,45.18-45.19,45.18Z"/>
      <path class="cls-1" d="m1691.19,426.02h-251.74c-25.17,0-45.19-20.01-45.19-45.19s20.01-45.19,45.19-45.19h251.74c25.17,0,45.19,20.02,45.19,45.2s-20.01,45.18-45.19,45.18Z"/>
      <path class="cls-1" d="m613.22,426.02h-251.74c-25.17,0-45.19-20.01-45.19-45.19s20.01-45.19,45.19-45.19h251.74c25.17,0,45.19,20.02,45.19,45.2s-20.01,45.18-45.19,45.18Z"/>
    </g>
  </g>
  <g>
    <g>
      <path class="cls-1" d="m1433,1077.97H374.39c-25.17,0-45.19-20.01-45.19-45.19s20.01-45.19,45.19-45.19h1058.61c25.17,0,45.19,20.02,45.19,45.2s-20.01,45.18-45.19,45.18Z"/>
      <path class="cls-1" d="m1433,1491.09H374.39c-25.17,0-45.19-20.01-45.19-45.19s20.01-45.19,45.19-45.19h1058.61c25.17,0,45.19,20.02,45.19,45.2s-20.01,45.18-45.19,45.18Z"/>
      <path class="cls-1" d="m1433,1904.2H374.39c-25.17,0-45.19-20.01-45.19-45.19s20.01-45.19,45.19-45.19h1058.61c25.17,0,45.19,20.02,45.19,45.2s-20.01,45.18-45.19,45.18Z"/>
      <path class="cls-1" d="m1433,2317.32H374.39c-25.17,0-45.19-20.01-45.19-45.19s20.01-45.19,45.19-45.19h1058.61c25.17,0,45.19,20.02,45.19,45.2s-20.01,45.18-45.19,45.18Z"/>
    </g>
    <g>
      <path class="cls-1" d="m2297.96,2259.23c-146.53,0-282.73-56.16-384.71-157.5-101.34-101.99-157.5-238.19-157.5-384.71,0-298.87,243.35-542.21,542.22-542.21,25.17,0,45.19,20.01,45.19,45.19v451.84h451.84c25.17,0,45.19,20.02,45.19,45.2,0,298.86-243.36,542.21-542.23,542.21h0Zm-45.18-992.12c-227.86,22.59-406.66,215.59-406.66,449.9,0,253.68,198.17,451.84,451.84,451.84,233.67,0,426.67-178.81,449.91-406.66h-449.91c-25.17,0-45.19-20.01-45.19-45.18v-449.9Z"/>
      <path class="cls-1" d="m2930.54,1633.1h-497.03c-25.17,0-45.19-20.01-45.19-45.19v-497.02c0-25.17,20.01-45.19,45.19-45.19,143.3,0,282.08,56.81,380.2,155.57,103.27,102.63,162.02,243.34,162.02,386.64,0,25.17-20.01,45.19-45.19,45.19h0Zm-451.84-90.38h404.08c-10.97-103.28-58.09-202.68-132.97-278.2-71.65-71.65-168.48-116.19-271.76-126.52v404.72h.65Z"/>
      <path class="cls-1" d="m2297.96,1762.19h-497.03c-25.17,0-45.19-20.01-45.19-45.19s20.01-45.19,45.19-45.19h497.03c25.17,0,45.19,20.02,45.19,45.2s-20.01,45.18-45.19,45.18Z"/>
    </g>
  </g>
</svg>