<?xml version="1.0" encoding="UTF-8"?>
<svg id="Layer_2" data-name="Layer 2" xmlns="http://www.w3.org/2000/svg" viewBox="0 0 1038.66 550.68">
  <g id="Layer_2-2" data-name="Layer 2">
    <g>
      <path d="m1022.19,261.13C865.36,87.82,696.09,0,518.93,0c-2.69,0-5.38.02-8.08.06C224.31,4.37,24,235.33,15.61,245.16l-15.61,18.29,15.68,18.22c153.55,178.52,321.32,269.01,498.74,269.01h2.02c289.99-1.12,497.64-242.32,506.34-252.59l15.88-18.75-16.47-18.21Zm-949.69,2.82c42.38-43.11,163.03-153.14,325.22-193.54-71.53,39.69-120.24,117.49-120.24,206.77,0,84.65,43.78,158.97,109.28,200.28-109.19-31.12-214.44-102.57-314.26-213.52Zm433.23,192.76c-96.25,0-174.55-80.53-174.55-179.52s78.3-179.52,174.55-179.52,174.55,80.53,174.55,179.52-78.3,179.52-174.55,179.52Zm105.2,28.78c73.06-39.19,123.06-117.86,123.06-208.31,0-96.56-56.97-179.68-138.15-215.69,127.95,20.89,251.86,94.07,369.59,218.42-45.51,46.67-179.21,169.7-354.49,205.58Z"/>
      <path d="m503.05,152.9c-65.26,0-118.16,55.64-118.16,124.28s52.9,124.28,118.16,124.28c10.66,0,20.99-1.51,30.81-4.3-18.12-8.05-30.81-26.58-30.81-48.18,0-28.98,22.84-52.48,51.02-52.48,25.53,0,46.62,19.31,50.37,44.49,10.64-18.66,16.76-40.48,16.76-63.82,0-68.64-52.9-124.28-118.16-124.28Z"/>
    </g>
  </g>
</svg>