<?xml version="1.0" encoding="UTF-8"?>
<svg id="Layer_2" data-name="Layer 2" xmlns="http://www.w3.org/2000/svg" viewBox="0 0 3304.93 2943.47">
  <defs>
    <style>
      .cls-1 {
        fill-rule: evenodd;
      }
    </style>
  </defs>
  <g id="Layer_1-2" data-name="Layer 1">
    <path class="cls-1" d="m1981.65,2943.47c-8.38,0-16.76-1.92-23.87-5.8l-658.41-348.57c-16.78-9.04-27.76-26.45-27.76-45.83v-673.63S309.22,548.68,309.22,548.68h-31.66c-73.6,0-142.66-28.41-194.94-79.4C29.68,417,0,346.64,0,271.11,0,121.36,124.58,0,277.56,0h2749.82c152.97,0,277.55,121.36,277.55,271.11,0,75.53-29.05,145.89-82.6,198.17-52.29,50.99-121.37,79.4-194.94,79.4h-31.68l-962.42,1320.95v1022.2c0,18.07-9.67,34.85-25.16,44.55-7.75,4.52-17.44,7.09-26.48,7.09h0Zm-51.64-329.18h-129.09c-28.39,0-51.64-23.25-51.64-51.64s23.24-51.64,51.64-51.64l129.09-.03v-135.56h-309.83c-28.39,0-51.64-23.22-51.64-51.64s23.25-51.64,51.64-51.64h309.83v-135.56h-129.09c-28.39,0-51.64-23.22-51.64-51.64s23.24-51.64,51.64-51.64h129.09v-129.09h-309.83c-28.39,0-51.64-23.25-51.64-51.64s23.25-51.64,51.64-51.64h335.04l912.35-1252.27H437.34l927.88,1273.57c7.54,10.43,10.65,22.72,9.68,34.59v655.43l555.12,293.7v-191.68h0ZM331.48,445.39c2.78-.21,5.57-.21,8.33,0h2625.33c2.76-.21,5.54-.22,8.33,0h53.92c97.47,0,174.27-76.81,174.27-174.28,0-92.3-78.11-167.82-174.27-167.82H277.56c-96.18,0-174.28,75.53-174.28,167.82,0,97.47,76.8,174.28,174.28,174.28h53.92Z"/>
  </g>
</svg>