<?xml version="1.0" encoding="UTF-8"?>
<svg id="Layer_2" data-name="Layer 2" xmlns="http://www.w3.org/2000/svg" viewBox="0 0 405.03 160.89">
  <defs>
    <style>
      .cls-1 {
        fill: #f9bc15;
      }

      .cls-2 {
        fill: #ea4535;
      }

      .cls-3 {
        fill: #36a852;
      }

      .cls-4 {
        fill: #557ebf;
      }

      .cls-5 {
        fill: #262626;
      }
    </style>
  </defs>
  <g id="Layer_1-2" data-name="Layer 1">
    <g>
      <path class="cls-5" d="m191.57,78.59v47.19h-14.96V9.29h39.66c9.57-.19,18.76,3.44,25.73,10.13,6.97,6.22,10.87,15.23,10.68,24.52.19,9.38-3.72,18.39-10.68,24.71-6.97,6.6-15.51,9.94-25.64,9.94h-24.8Zm0-54.99v40.69h25.08c5.57.19,10.96-2.04,14.77-6.04,7.9-7.62,7.99-20.16.37-28.05l-.37-.37c-3.81-4.09-9.2-6.32-14.77-6.13l-25.08-.09Zm95.59,19.88c11.05,0,19.79,2.97,26.2,8.82,6.41,5.95,9.57,14.03,9.57,24.34v49.05h-14.31v-11.05h-.65c-6.22,9.1-14.4,13.65-24.71,13.65-8.73,0-16.16-2.6-22.02-7.8-5.76-4.83-9.01-11.98-8.82-19.51,0-8.27,3.16-14.77,9.38-19.69,6.22-4.92,14.58-7.34,24.99-7.34,8.92,0,16.16,1.67,21.92,4.83v-3.44c0-5.11-2.23-9.94-6.13-13.19-3.99-3.53-9.1-5.48-14.4-5.48-8.36,0-14.96,3.53-19.88,10.59l-13.19-8.27c7.15-10.31,17.84-15.51,32.05-15.51h0Zm-19.32,57.87c0,3.9,1.86,7.52,4.92,9.75,3.34,2.6,7.43,3.99,11.61,3.9,6.32,0,12.35-2.51,16.81-6.97,4.92-4.64,7.43-10.13,7.43-16.44-4.64-3.72-11.15-5.57-19.51-5.57-6.04,0-11.15,1.49-15.23,4.37-3.99,2.97-6.04,6.6-6.04,10.96Zm137.2-55.27l-49.98,114.81h-15.42l18.58-40.13-32.88-74.59h16.26l23.69,57.22h.37l23.13-57.22,16.26-.09Z"/>
      <path class="cls-4" d="m131.09,68.37c0-4.55-.37-9.1-1.11-13.56h-63.07v25.73h36.13c-1.49,8.27-6.32,15.7-13.38,20.34v16.72h21.55c12.63-11.61,19.88-28.8,19.88-49.23h0Z"/>
      <path class="cls-3" d="m66.91,133.77c18.02,0,33.26-5.95,44.31-16.16l-21.55-16.72c-6.04,4.09-13.75,6.41-22.76,6.41-17.46,0-32.23-11.8-37.53-27.59H7.18v17.28c11.33,22.48,34.46,36.79,59.73,36.79Z"/>
      <path class="cls-1" d="m29.38,79.71c-2.79-8.27-2.79-17.28,0-25.64v-17.19H7.18c-9.57,18.86-9.57,41.15,0,60.01l22.2-17.18Z"/>
      <path class="cls-2" d="m66.91,26.48c9.57-.19,18.76,3.44,25.64,10.03l19.04-19.04C99.51,6.04,83.53-.18,66.91,0,41.64,0,18.51,14.31,7.18,36.88l22.2,17.28c5.29-15.88,20.06-27.68,37.53-27.68Z"/>
    </g>
  </g>
</svg>