<?xml version="1.0" encoding="UTF-8"?>
<svg id="Layer_2" data-name="Layer 2" xmlns="http://www.w3.org/2000/svg" viewBox="0 0 273.32 211.78">
  <defs>
    <style>
      .cls-1 {
        fill: #010101;
      }

      .cls-2 {
        fill: #f26122;
      }

      .cls-3 {
        fill: #f69e1e;
      }

      .cls-4 {
        fill: #ea1d25;
      }
    </style>
  </defs>
  <g id="Layer_1-2" data-name="Layer 1">
    <g>
      <path class="cls-1" d="m49.6,211.29v-14.07c0-5.4-3.28-8.91-8.67-8.91-2.83,0-5.86.94-7.97,3.96-1.64-2.58-3.96-3.96-7.5-3.96-2.67-.12-5.22,1.12-6.79,3.28v-2.83h-4.46v22.51h4.46v-12.88c0-3.96,2.34-5.86,5.63-5.86s5.16,2.11,5.16,5.86v12.9h4.46v-12.9c0-3.96,2.34-5.86,5.63-5.86s5.16,2.11,5.16,5.86v12.9h4.91Zm73.16-22.28h-8.21v-6.79h-4.44v6.79h-4.69v3.96h4.69v10.58c0,5.16,1.87,8.21,7.5,8.21,2.13-.04,4.22-.61,6.09-1.64l-1.41-3.96c-1.27.79-2.73,1.2-4.22,1.17-2.34,0-3.52-1.41-3.52-3.75v-10.78h8.21v-3.78Zm41.74-.7c-2.47-.06-4.79,1.19-6.1,3.28v-2.83h-4.46v22.51h4.46v-12.64c0-3.75,1.87-6.1,4.93-6.1,1.03.04,2.05.2,3.05.47l1.41-4.22c-1.08-.27-2.18-.43-3.28-.47h0Zm-63.08,2.34c-2.34-1.64-5.63-2.34-9.14-2.34-5.63,0-9.14,2.58-9.14,7.04,0,3.75,2.58,5.86,7.5,6.57l2.34.23c2.58.47,4.22,1.41,4.22,2.58,0,1.64-1.87,2.83-5.4,2.83-2.69.06-5.32-.77-7.5-2.34l-2.34,3.52c3.28,2.34,7.27,2.83,9.63,2.83,6.57,0,10.08-3.05,10.08-7.27,0-3.96-2.83-5.86-7.74-6.57l-2.34-.23c-2.11-.23-3.96-.94-3.96-2.34,0-1.64,1.87-2.83,4.46-2.83,2.83,0,5.63,1.17,7.04,1.87l2.3-3.54Zm68.01,9.38c0,6.79,4.46,11.73,11.73,11.73,3.28,0,5.63-.7,7.97-2.58l-2.34-3.52c-1.66,1.34-3.72,2.09-5.86,2.11-3.96,0-7.04-3.05-7.04-7.5s3.03-7.48,7.04-7.48c2.14.02,4.2.77,5.86,2.11l2.34-3.52c-2.34-1.87-4.69-2.58-7.97-2.58-7.04-.47-11.73,4.46-11.73,11.26h0v-.03Zm-31.42-11.73c-6.57,0-11.02,4.69-11.02,11.73s4.69,11.73,11.49,11.73c3.31.07,6.54-1.01,9.14-3.05l-2.34-3.28c-1.88,1.46-4.18,2.28-6.57,2.34-3.05,0-6.33-1.87-6.79-5.86h16.65v-1.87c0-7.04-4.22-11.73-10.55-11.73h0Zm-.23,4.22c3.28,0,5.63,2.11,5.86,5.63h-12.19c.7-3.28,2.83-5.63,6.33-5.63h0Zm-60.74,7.5v-11.26h-4.46v2.83c-1.64-2.11-3.96-3.28-7.27-3.28-6.33,0-11.02,4.93-11.02,11.73s4.69,11.73,11.02,11.73c3.28,0,5.63-1.17,7.27-3.28v2.83h4.46v-11.29Zm-18.06,0c0-4.22,2.58-7.5,7.04-7.5,4.22,0,6.79,3.28,6.79,7.5,0,4.46-2.83,7.5-6.79,7.5-4.46.23-7.04-3.28-7.04-7.5h0Zm173.3-11.73c-2.47-.06-4.79,1.19-6.1,3.28v-2.83h-4.46v22.51h4.45v-12.64c0-3.75,1.87-6.1,4.93-6.1,1.03.04,2.05.2,3.05.47l1.41-4.22c-1.08-.27-2.18-.43-3.28-.47h0Zm-17.35,11.73v-11.26h-4.46v2.83c-1.64-2.11-3.96-3.28-7.27-3.28-6.33,0-11.02,4.93-11.02,11.73s4.69,11.73,11.02,11.73c3.28,0,5.63-1.17,7.27-3.28v2.83h4.46v-11.29Zm-18.06,0c0-4.22,2.58-7.5,7.04-7.5,4.22,0,6.79,3.28,6.79,7.5,0,4.46-2.83,7.5-6.79,7.5-4.46.23-7.04-3.28-7.04-7.5Zm63.32,0v-20.17h-4.46v11.73c-1.64-2.11-3.96-3.28-7.27-3.28-6.33,0-11.02,4.93-11.02,11.73s4.69,11.73,11.02,11.73c3.28,0,5.63-1.17,7.27-3.28v2.83h4.46v-11.27Zm-18.06,0c0-4.22,2.58-7.5,7.04-7.5,4.22,0,6.79,3.28,6.79,7.5,0,4.46-2.83,7.5-6.79,7.5-4.46.24-7.04-3.28-7.04-7.5h0Z"/>
      <g>
        <rect class="cls-2" x="96.27" y="18.06" width="81.37" height="132.73"/>
        <path class="cls-4" d="m104.48,84.42c0-25.87,11.84-50.31,32.13-66.36C99.95-10.76,46.88-4.41,18.06,32.25c-28.82,36.65-22.47,89.73,14.19,118.54,30.62,24.08,73.74,24.08,104.36,0-20.29-16.05-32.12-40.5-32.13-66.36Z"/>
        <path class="cls-3" d="m273.32,84.42c.03,46.58-37.7,84.36-84.27,84.4-18.92.01-37.3-6.34-52.18-18.03,36.65-28.98,42.87-82.19,13.88-118.85-4.07-5.15-8.73-9.81-13.88-13.88,36.62-28.78,89.64-22.43,118.42,14.18,11.69,14.88,18.05,33.26,18.03,52.18Z"/>
      </g>
    </g>
  </g>
</svg>