<?xml version="1.0" encoding="UTF-8"?>
<svg id="Layer_2" data-name="Layer 2" xmlns="http://www.w3.org/2000/svg" viewBox="0 0 584 790.55">
  <defs>
    <style>
      .cls-1 {
        fill: #231f20;
      }
    </style>
  </defs>
  <g id="Layer_5" data-name="Layer 5">
    <path class="cls-1" d="m519.35,300.26v-108.42C519.35,86.06,435.3,0,331.99,0h-82.13C146.54,0,62.49,86.06,62.49,191.84v108.8C27.05,307.13,0,337.71,0,374.19v341.52c0,41.16,34.43,74.84,76.5,74.84h431c42.08,0,76.5-33.68,76.5-74.84v-341.52c0-37.22-28.15-68.31-64.65-73.93Zm-191.79,255.31v85.3c0,13.91-11.64,25.3-25.86,25.3h-6.46c-14.22,0-25.86-11.38-25.86-25.3v-84.01c-28.98-10.83-49.56-38.26-49.56-70.41,0-41.62,34.49-75.37,77.04-75.37s77.04,33.74,77.04,75.37c0,30.94-19.07,57.52-46.33,69.12Zm129.18-256.22H125.11v-107.51c0-70.91,55.96-128.6,124.74-128.6h82.13c68.78,0,124.74,57.69,124.74,128.6v107.51Z"/>
  </g>
</svg>