<?xml version="1.0" standalone="no"?>
<!DOCTYPE svg PUBLIC "-//W3C//DTD SVG 20010904//EN"
 "http://www.w3.org/TR/2001/REC-SVG-20010904/DTD/svg10.dtd">
<svg version="1.0" xmlns="http://www.w3.org/2000/svg"
 width="640.000000pt" height="640.000000pt" viewBox="0 0 640.000000 640.000000"
 preserveAspectRatio="xMidYMid meet">

<g transform="translate(0.000000,640.000000) scale(0.100000,-0.100000)"
fill="#000000" stroke="none">
<path d="M3426 5578 c-38 -35 -39 -86 -1 -123 20 -21 34 -25 83 -25 181 0 414
-79 577 -195 71 -51 191 -170 241 -240 109 -152 176 -346 191 -549 5 -76 10
-94 29 -113 33 -32 87 -31 121 3 26 26 26 27 20 133 -26 439 -296 833 -700
1021 -141 66 -330 110 -468 110 -56 0 -72 -4 -93 -22z"/>
<path d="M3439 5305 c-29 -16 -47 -57 -41 -91 7 -45 41 -61 148 -73 192 -20
328 -85 464 -221 137 -137 202 -275 220 -468 7 -76 13 -99 31 -118 32 -34 87
-33 120 2 22 23 24 33 21 107 -12 392 -313 755 -703 846 -121 29 -227 35 -260
16z"/>
<path d="M3439 5016 c-14 -9 -32 -29 -39 -46 -11 -27 -11 -37 3 -66 19 -38 49
-54 105 -54 95 0 217 -56 298 -135 81 -80 114 -161 140 -343 10 -64 93 -87
142 -38 24 24 27 33 25 92 -10 308 -265 572 -580 599 -50 4 -75 2 -94 -9z"/>
<path d="M1460 4666 c-96 -26 -185 -107 -217 -199 -16 -47 -18 -94 -18 -502
l0 -450 27 -57 c35 -75 104 -141 174 -167 54 -21 72 -21 814 -21 l760 0 0 85
0 85 -745 0 c-808 0 -771 -2 -825 55 l-25 27 -3 441 c-2 430 -2 443 18 475 12
20 38 41 65 53 43 19 71 19 1032 17 929 -3 990 -4 1021 -21 18 -10 42 -32 52
-50 19 -30 20 -53 20 -462 -1 -354 -3 -434 -15 -455 -16 -27 -22 -230 -7 -230
21 0 107 72 137 114 55 78 56 88 53 591 -3 458 -3 460 -26 503 -35 66 -88 119
-150 149 l-57 28 -1020 2 c-785 1 -1030 -1 -1065 -11z"/>
<path d="M1730 3976 l0 -296 60 0 60 0 0 105 0 105 78 0 c43 0 101 7 129 15
156 46 180 256 38 337 -36 21 -55 23 -202 26 l-163 4 0 -296z m305 169 c31
-30 34 -92 6 -126 -17 -21 -29 -24 -105 -28 l-86 -3 0 91 0 91 80 0 c73 0 83
-3 105 -25z"/>
<path d="M2288 3980 c-76 -209 -102 -293 -93 -296 7 -3 34 -4 61 -2 l49 3 25
70 25 70 112 3 111 3 24 -73 25 -73 61 -3 c34 -2 62 1 62 6 0 4 -47 136 -104
293 l-104 284 -74 3 -74 3 -106 -291z m222 56 l39 -116 -80 0 c-43 0 -79 3
-79 7 0 13 74 232 77 229 2 -2 21 -55 43 -120z"/>
<path d="M2700 4263 c0 -3 45 -86 100 -183 l100 -177 0 -112 0 -111 60 0 60 0
0 110 0 111 81 142 c45 78 92 161 106 185 l24 43 -67 -3 -67 -3 -67 -129 -68
-128 -68 131 -69 131 -62 0 c-35 0 -63 -3 -63 -7z"/>
<path d="M3220 3702 c-19 -10 -45 -34 -57 -52 l-23 -33 0 -753 0 -754 -114
118 c-186 192 -281 232 -365 156 -48 -43 -65 -90 -58 -156 13 -111 153 -314
352 -513 77 -77 157 -161 177 -185 50 -61 95 -161 104 -226 l6 -54 598 0 597
0 6 68 c9 93 30 166 88 310 88 219 93 248 93 617 1 290 -1 323 -17 353 -20 37
-67 69 -112 78 -45 8 -112 -22 -139 -63 l-23 -34 -7 52 c-12 89 -95 148 -181
129 -41 -9 -69 -31 -96 -75 l-19 -30 0 43 c0 85 -52 143 -133 150 -67 5 -110
-15 -140 -66 l-22 -37 -5 55 c-8 90 -59 140 -143 140 -59 0 -102 -21 -127 -62
-19 -32 -19 -31 -22 354 -3 372 -4 388 -24 414 -51 69 -130 91 -194 56z"/>
<path d="M3118 1134 c-54 -29 -58 -51 -58 -309 0 -191 3 -242 15 -265 32 -62
7 -60 767 -60 669 0 694 1 725 20 56 34 58 43 58 307 0 230 -1 243 -21 270
-11 15 -32 34 -45 40 -18 10 -187 13 -719 12 -595 0 -699 -2 -722 -15z"/>
</g>
</svg>
