<?xml version="1.0" standalone="no"?>
<!DOCTYPE svg PUBLIC "-//W3C//DTD SVG 20010904//EN"
 "http://www.w3.org/TR/2001/REC-SVG-20010904/DTD/svg10.dtd">
<svg version="1.0" xmlns="http://www.w3.org/2000/svg"
 width="640.000000pt" height="640.000000pt" viewBox="0 0 640.000000 640.000000"
 preserveAspectRatio="xMidYMid meet">

<g transform="translate(0.000000,640.000000) scale(0.100000,-0.100000)"
fill="#000000" stroke="none">
<path d="M3067 3796 c-51 -19 -76 -42 -99 -95 -23 -49 -26 -140 -9 -194 13
-39 64 -91 104 -106 16 -6 46 -11 69 -11 41 0 108 25 108 41 0 5 5 9 10 9 6 0
10 -9 10 -20 0 -16 7 -20 30 -20 l30 0 0 105 0 105 -90 0 -90 0 0 -30 c0 -30
1 -30 55 -30 43 0 55 -3 55 -16 0 -70 -115 -107 -174 -55 -63 54 -60 199 5
245 13 9 43 16 67 16 36 0 49 -6 71 -29 26 -27 29 -28 59 -15 41 17 40 29 -2
69 -49 46 -131 58 -209 31z"/>
<path d="M1870 3600 l0 -200 40 0 40 0 0 70 0 70 53 0 c102 0 159 32 177 101
14 52 -5 107 -49 136 -30 21 -46 23 -147 23 l-114 0 0 -200z m210 120 c11 -11
20 -33 20 -48 0 -42 -31 -65 -95 -70 l-55 -4 0 71 0 71 55 0 c42 0 60 -5 75
-20z"/>
<path d="M2329 3773 c-6 -15 -38 -102 -71 -193 -33 -91 -62 -168 -65 -172 -2
-5 15 -8 39 -8 43 0 43 0 61 50 l18 50 79 0 78 0 17 -50 c16 -50 17 -50 59
-50 l43 0 -72 198 -72 197 -51 3 c-49 3 -53 1 -63 -25z m94 -135 c14 -43 23
-78 19 -79 -13 -1 -107 3 -109 5 -1 1 10 39 24 84 15 45 30 78 34 74 3 -4 18
-42 32 -84z"/>
<path d="M2562 3778 c8 -13 41 -69 73 -126 57 -102 58 -104 56 -178 l-2 -74
40 0 41 0 0 68 c0 65 2 71 74 200 l74 133 -45 -3 -45 -3 -44 -85 c-24 -47 -46
-85 -49 -85 -3 0 -25 38 -49 85 l-43 85 -48 3 c-48 3 -48 3 -33 -20z"/>
<path d="M3515 3788 c-3 -7 -29 -82 -60 -166 -30 -84 -62 -168 -70 -187 l-14
-35 44 0 c43 0 43 0 60 50 l17 50 78 0 79 0 18 -50 c17 -49 18 -50 60 -50 l42
0 -31 83 c-17 45 -49 134 -72 197 l-41 115 -53 3 c-36 2 -54 -1 -57 -10z m87
-140 c15 -44 26 -84 24 -87 -2 -3 -29 -4 -59 -3 l-54 4 26 84 c14 46 28 84 31
84 3 0 18 -37 32 -82z"/>
<path d="M3740 3770 l0 -30 70 0 70 0 0 -170 0 -170 40 0 40 0 0 170 0 170 70
0 70 0 0 30 0 30 -180 0 -180 0 0 -30z"/>
<path d="M4180 3600 l0 -200 158 0 157 0 0 30 0 30 -118 0 -118 0 3 53 3 52
88 3 87 3 0 29 0 29 -87 3 -88 3 0 50 0 50 110 5 c109 5 110 5 110 30 l0 25
-152 3 -153 3 0 -201z"/>
<path d="M1148 3403 l-328 -328 -125 125 -125 125 0 -165 0 -165 125 -125 125
-125 330 330 331 331 -3 162 -3 162 -327 -327z"/>
<path d="M5200 3386 c-116 -25 -230 -109 -293 -216 -41 -71 -57 -150 -57 -287
l0 -123 75 0 75 0 -2 128 c-1 121 0 131 26 182 37 74 80 117 151 151 114 55
246 30 336 -62 70 -72 89 -131 89 -279 l0 -120 75 0 75 0 0 108 c0 190 -38
299 -135 398 -79 80 -214 136 -324 133 -20 0 -61 -6 -91 -13z"/>
</g>
</svg>
