<?xml version="1.0" standalone="no"?>
<!DOCTYPE svg PUBLIC "-//W3C//DTD SVG 20010904//EN"
 "http://www.w3.org/TR/2001/REC-SVG-20010904/DTD/svg10.dtd">
<svg version="1.0" xmlns="http://www.w3.org/2000/svg"
 width="640.000000pt" height="640.000000pt" viewBox="0 0 640.000000 640.000000"
 preserveAspectRatio="xMidYMid meet">

<g transform="translate(0.000000,640.000000) scale(0.100000,-0.100000)"
fill="#000000" stroke="none">
<path d="M2916 4955 c-103 -42 -183 -135 -207 -241 l-12 -53 -51 -12 c-135
-32 -353 -123 -467 -195 l-37 -23 -72 37 c-68 35 -78 37 -164 37 -79 0 -98 -4
-148 -28 -73 -36 -150 -119 -177 -192 -39 -103 -21 -252 39 -328 l20 -25 -43
-74 c-76 -127 -161 -339 -182 -450 -6 -33 -10 -35 -80 -56 -96 -28 -178 -100
-220 -194 -37 -82 -39 -184 -5 -271 39 -103 152 -196 258 -213 38 -6 39 -6 55
-75 32 -133 117 -334 190 -453 l25 -40 -28 -45 c-39 -63 -53 -128 -48 -214 16
-247 283 -396 506 -283 28 14 53 30 57 36 4 6 22 1 48 -15 132 -81 436 -204
504 -205 17 0 23 -8 28 -40 10 -61 61 -154 107 -195 70 -63 139 -90 238 -90
99 0 168 27 238 90 46 41 97 133 107 193 6 38 8 39 63 52 135 30 337 114 469
195 26 16 44 21 48 15 12 -20 101 -58 157 -69 148 -27 295 45 369 181 32 60
34 68 34 163 0 102 -7 129 -57 205 -16 24 -15 28 38 120 62 108 126 264 157
385 l21 83 39 6 c105 17 218 110 258 213 33 86 31 188 -6 271 -42 94 -124 166
-220 194 -68 20 -75 24 -80 52 -13 61 -58 195 -65 191 -4 -2 -77 -91 -163
-198 l-156 -193 6 -130 c11 -276 -59 -526 -212 -753 -86 -130 -167 -217 -283
-304 -224 -168 -440 -244 -717 -254 -241 -8 -418 31 -624 137 -338 174 -574
487 -657 870 -26 118 -26 371 -1 490 110 514 495 896 1005 997 107 21 336 23
442 4 170 -30 362 -109 503 -205 l66 -45 187 232 c103 128 194 241 203 251 16
18 14 19 -53 13 -52 -4 -86 -14 -138 -40 l-69 -36 -49 30 c-115 71 -352 167
-476 193 -28 6 -32 12 -43 60 -23 104 -114 207 -215 245 -80 30 -182 28 -260
-4z"/>
<path d="M4832 4889 c-52 -26 43 88 -941 -1129 -452 -558 -825 -1015 -830
-1015 -4 0 -128 111 -274 247 -146 136 -284 256 -306 267 -53 28 -147 28 -200
2 -117 -60 -164 -198 -103 -310 38 -73 759 -741 826 -766 64 -25 152 -17 203
17 43 28 1900 2314 1932 2378 57 111 13 248 -98 307 -59 31 -149 32 -209 2z"/>
</g>
</svg>
