<?xml version="1.0" standalone="no"?>
<!DOCTYPE svg PUBLIC "-//W3C//DTD SVG 20010904//EN"
 "http://www.w3.org/TR/2001/REC-SVG-20010904/DTD/svg10.dtd">
<svg version="1.0" xmlns="http://www.w3.org/2000/svg"
 width="640.000000pt" height="640.000000pt" viewBox="0 0 640.000000 640.000000"
 preserveAspectRatio="xMidYMid meet">

<g transform="translate(0.000000,640.000000) scale(0.100000,-0.100000)"
fill="#000000" stroke="none">
<path d="M2890 5179 c-455 -46 -910 -256 -1238 -573 -329 -316 -532 -690 -619
-1136 -30 -156 -42 -453 -24 -606 59 -509 282 -958 648 -1305 353 -335 794
-528 1302 -570 341 -29 752 54 1074 215 939 470 1389 1554 1058 2545 -48 144
-138 339 -150 325 -29 -31 -324 -400 -328 -410 -2 -6 9 -56 25 -110 49 -164
66 -281 66 -459 1 -186 -13 -295 -60 -458 -145 -508 -552 -924 -1061 -1087
-229 -73 -518 -93 -757 -51 -361 64 -704 256 -937 526 -261 303 -399 670 -399
1061 2 1017 931 1778 1927 1579 161 -32 348 -104 493 -189 52 -31 65 -35 76
-24 24 25 294 363 294 368 0 8 -172 111 -245 148 -349 174 -761 250 -1145 211z"/>
<path d="M4748 4938 c-20 -5 -55 -25 -78 -45 -22 -19 -192 -223 -377 -452
-186 -229 -434 -536 -553 -682 -118 -146 -327 -406 -465 -577 -137 -171 -255
-310 -262 -309 -6 1 -123 105 -259 230 -135 125 -265 238 -288 250 -56 29
-155 30 -211 0 -52 -28 -100 -78 -120 -127 -24 -56 -21 -147 6 -201 28 -56
714 -696 790 -737 67 -37 142 -38 215 -4 56 26 33 -1 689 811 474 586 1005
1244 1100 1361 101 124 126 174 126 248 0 73 -25 129 -82 180 -67 60 -141 78
-231 54z"/>
</g>
</svg>
