<?xml version="1.0" standalone="no"?>
<!DOCTYPE svg PUBLIC "-//W3C//DTD SVG 20010904//EN"
 "http://www.w3.org/TR/2001/REC-SVG-20010904/DTD/svg10.dtd">
<svg version="1.0" xmlns="http://www.w3.org/2000/svg"
 width="640.000000pt" height="640.000000pt" viewBox="0 0 640.000000 640.000000"
 preserveAspectRatio="xMidYMid meet">

<g transform="translate(0.000000,640.000000) scale(0.100000,-0.100000)"
fill="#000000" stroke="none">
<path d="M3010 5624 c-492 -59 -1030 -186 -1400 -331 -236 -92 -525 -253 -535
-297 -2 -11 -11 -111 -19 -221 -81 -1082 -18 -1953 168 -2323 82 -163 259
-439 412 -642 427 -568 916 -920 1433 -1030 97 -21 102 -21 183 -5 133 27 343
101 473 168 l120 62 5 455 5 455 27 51 c29 54 72 97 124 121 l31 15 6 112 c3
75 12 132 27 176 63 190 210 336 418 416 l22 9 -36 55 c-140 210 -350 395
-581 513 -107 55 -297 127 -334 127 -30 0 -22 13 26 43 76 49 171 160 221 261
52 107 74 198 74 316 0 119 -22 209 -76 319 -83 169 -233 296 -422 359 -67 23
-94 26 -212 26 -118 0 -145 -3 -212 -26 -121 -40 -204 -92 -294 -183 -135
-136 -204 -302 -204 -495 0 -118 22 -209 74 -316 50 -101 145 -212 221 -261
48 -30 56 -43 26 -43 -33 0 -221 -70 -315 -117 -379 -190 -667 -525 -795 -926
-17 -53 -31 -104 -31 -112 0 -8 -3 -15 -7 -15 -8 1 -113 179 -157 267 -57 114
-101 316 -133 611 -30 275 -21 1447 13 1609 13 66 487 258 869 352 322 80 799
161 945 161 81 0 436 -51 635 -91 331 -66 666 -163 885 -256 160 -68 281 -135
291 -160 17 -45 39 -579 39 -944 0 -477 -23 -778 -76 -1032 -8 -38 -14 -70
-14 -72 0 -2 28 -19 62 -37 34 -18 89 -58 122 -90 42 -40 62 -54 68 -45 4 6
19 59 33 117 88 367 123 962 95 1597 -11 244 -37 634 -45 669 -8 38 -205 155
-415 247 -390 171 -982 318 -1532 381 -157 18 -154 18 -308 0z"/>
<path d="M4585 2690 c-161 -33 -291 -136 -363 -287 l-37 -78 -5 -170 -5 -170
-51 -6 c-64 -8 -90 -22 -114 -62 -19 -31 -20 -54 -20 -516 l0 -483 39 -39 39
-39 603 0 c573 0 606 1 635 19 64 39 64 40 64 548 0 416 -2 461 -18 493 -24
48 -75 80 -128 80 l-44 0 0 138 c0 155 -12 217 -61 314 -94 186 -329 300 -534
258z m221 -151 c79 -30 151 -92 191 -165 39 -71 56 -172 51 -304 l-3 -85 -368
-3 -369 -2 4 152 c3 143 5 157 31 213 30 63 90 132 145 167 84 52 220 63 318
27z m-50 -863 c29 -29 34 -41 34 -80 0 -36 -6 -52 -30 -79 -22 -26 -30 -45
-30 -74 0 -48 -14 -63 -57 -63 -38 0 -53 21 -53 77 0 27 -7 45 -25 61 -50 48
-41 137 19 173 50 31 102 25 142 -15z"/>
</g>
</svg>
