<?xml version="1.0" encoding="UTF-8"?>
<svg id="Layer_1" data-name="Layer 1" xmlns="http://www.w3.org/2000/svg" viewBox="0 0 3479.4 3286.5">
  <defs>
    <style>
      .cls-1 {
        fill: #7e9dac;
      }

      .cls-2 {
        fill: #467480;
      }
    </style>
  </defs>
  <path class="cls-2" d="m2481.2,3286.5H602.9c-133.8,0-242.5-108.6-242.5-242.5v-1828.6c0-22,17.3-39.4,39.4-39.4s39.4,17.3,39.4,39.4v1828.6c0,90.5,73.2,163.7,163.7,163.7h1878.2c90.5,0,163.7-73.2,163.7-163.7V555.7c0-90.5-73.2-163.7-163.7-163.7h-1290.1c-22,0-39.4-17.3-39.4-39.4s17.3-39.4,39.4-39.4h1290.2c133.8,0,242.5,108.6,242.5,242.5v2488.3c.7,133.8-108.7,242.5-242.5,242.5Z"/>
  <path class="cls-2" d="m2505.6,694.2h-1025.7c-22,0-39.4-17.3-39.4-39.4s17.3-39.4,39.4-39.4h1026.5c22,0,39.4,17.3,39.4,39.4s-18.2,39.4-40.2,39.4Z"/>
  <path class="cls-2" d="m2505.6,980.8h-1058.8c-22,0-39.4-17.3-39.4-39.4s17.3-39.4,39.4-39.4h1059.6c22,0,39.4,17.3,39.4,39.4s-18.2,39.4-40.2,39.4Z"/>
  <path class="cls-2" d="m2505.6,1266.5h-1279.2c-22,0-39.4-17.3-39.4-39.4s17.3-39.4,39.4-39.4h1280c22,0,39.4,17.3,39.4,39.4s-18.2,39.4-40.2,39.4Z"/>
  <path class="cls-2" d="m2505.6,1553.1H578.6c-22,0-39.4-17.3-39.4-39.4s17.3-39.4,39.4-39.4h1927.8c22,0,39.4,17.3,39.4,39.4s-18.2,39.4-40.2,39.4Z"/>
  <path class="cls-2" d="m2505.6,1838.8H578.6c-22,0-39.4-17.3-39.4-39.4s17.3-39.4,39.4-39.4h1927.8c22,0,39.4,17.3,39.4,39.4s-18.2,39.4-40.2,39.4Z"/>
  <path class="cls-2" d="m2505.6,2125.4H578.6c-22,0-39.4-17.3-39.4-39.4s17.3-39.4,39.4-39.4h1927.8c22,0,39.4,17.3,39.4,39.4s-18.2,39.4-40.2,39.4Z"/>
  <path class="cls-2" d="m2505.6,2411.9H578.6c-22,0-39.4-17.3-39.4-39.4s17.3-39.4,39.4-39.4h1927.8c22,0,39.4,17.3,39.4,39.4s-18.2,39.4-40.2,39.4Z"/>
  <path class="cls-2" d="m2505.6,2697.6H578.6c-22,0-39.4-17.3-39.4-39.4s17.3-39.4,39.4-39.4h1927.8c22,0,39.4,17.3,39.4,39.4s-18.2,39.4-40.2,39.4Z"/>
  <path class="cls-2" d="m2505.6,2984.2H578.6c-22,0-39.4-17.3-39.4-39.4s17.3-39.4,39.4-39.4h1927.8c22,0,39.4,17.3,39.4,39.4s-18.2,39.4-40.2,39.4Z"/>
  <path class="cls-2" d="m3207,2776.4c-22,0-39.4-17.3-39.4-39.4V862.7c0-22,17.3-39.4,39.4-39.4s39.4,17.3,39.4,39.4v1875.1c-.1,21.2-17.4,38.6-39.4,38.6Zm-344.8,0c-22,0-39.4-17.3-39.4-39.4V862.7c0-22,17.3-39.4,39.4-39.4s39.4,17.3,39.4,39.4v1875.1c-.1,21.2-17.4,38.6-39.4,38.6Z"/>
  <path class="cls-2" d="m3207,2941.7h-344.8c-22,0-39.4-17.3-39.4-39.4v-165.3c0-22,17.3-39.4,39.4-39.4h344.8c22,0,39.4,17.3,39.4,39.4v165.3c-.1,21.3-17.4,39.4-39.4,39.4Zm-305.5-78.8h266.1v-86.6h-266.1v86.6Z"/>
  <path class="cls-2" d="m3207,902.1h-344.8c-22,0-39.4-17.3-39.4-39.4v-329.8c0-116.5,95.3-211.8,211.8-211.8s211.8,95.3,211.8,211.8v329.8c-.1,21.2-17.4,39.4-39.4,39.4Zm-305.5-78.8h266.1v-290.4c0-73.2-59.8-133-133-133s-133,59.8-133,133v290.4h-.1Z"/>
  <path class="cls-2" d="m3440,1598.7c-22,0-39.4-17.3-39.4-39.4v-658.1h-192.8c-22,0-39.4-17.3-39.4-39.4s17.3-39.4,39.4-39.4h232.2c22,0,39.4,17.3,39.4,39.4v697.5c-.1,22.1-18.2,39.4-39.4,39.4Z"/>
  <path class="cls-2" d="m3034.6,3278.6h0c-15,0-28.3-7.9-35.4-21.3l-172.4-336.9c-10.2-19.7-2.4-43.3,17.3-52.7,19.7-9.4,43.3-2.4,52.7,17.3l137.8,269.2,137.8-269.2c10.2-19.7,33.8-26.8,52.7-17.3,19.7,10.2,26.8,33.8,17.3,52.7l-172.4,337.7c-7.1,12.6-20.5,20.5-35.4,20.5Z"/>
  <path class="cls-1" d="m654.9,1309.8C293.6,1309.8,0,1016.2,0,654.9S293.6,0,654.9,0s654.9,293.6,654.9,654.9-293.6,654.9-654.9,654.9Zm0-1231.9c-318,0-576.2,259-576.2,576.2s259,576.2,576.2,576.2,576.2-259,576.2-576.2S972.9,77.9,654.9,77.9Z"/>
  <path class="cls-1" d="m654.9,1043c-3.9,0-7.9-.8-11.8-1.6-212.5-68.5-355-272.4-355-507.7,0-85.8,19.7-170.8,56.7-245.6,9.4-18.9,32.3-26.8,51.2-18.1,181.1,81.1,336.1,81.1,517.2,0,18.9-8.7,41.7-.8,51.2,18.1,37,75.6,56.7,159.8,56.7,245.6,0,235.4-142.5,439.3-355,507.7-3.3,1.6-7.3,1.6-11.2,1.6Zm-254.3-685.7c-22,55.9-33.8,116.5-33.8,177.1,0,193.6,118.1,367.6,288.1,428.2,170-60.6,288.1-235.4,288.1-428.2,0-60.6-11.8-121.2-33.8-177.1-176.4,70.9-332.2,70.9-508.6,0Z"/>
</svg>