<?xml version="1.0" encoding="UTF-8"?>
<svg id="Layer_1" data-name="Layer 1" xmlns="http://www.w3.org/2000/svg" viewBox="0 0 2494.95 3180.7">
  <defs>
    <style>
      .cls-1 {
        fill: #231f20;
      }
    </style>
  </defs>
  <path class="cls-1" d="m1868.69,1581.81c-169.12,138.87-385.42,222.2-621.12,222.2s-452.19-83.32-621.12-222.2C252.06,1797.16,0,2201.22,0,2664.07c0,688.84,2494.95,688.84,2494.95,0,0-462.85-252.06-866.91-626.26-1082.25Zm-1085.49-75.9c132.22,90.36,292.2,143.06,464.37,143.06s331.96-52.7,464.17-143.06c217.44-148.38,360.12-398.35,360.12-681.43C2071.86,369.06,1702.8,0,1247.57,0S423.08,369.06,423.08,824.48c0,283.07,142.68,532.85,360.12,681.43Z"/>
</svg>