<?xml version="1.0" encoding="UTF-8"?>
<svg id="Layer_2" data-name="Layer 2" xmlns="http://www.w3.org/2000/svg" viewBox="0 0 1487.35 1524">
  <g id="Layer_1-2" data-name="Layer 1">
    <g>
      <path d="m743.67,1524H18c-9.94,0-18-8.06-18-18V18C0,8.06,8.06,0,18,0h725.67c9.94,0,18,8.06,18,18v1488c0,9.94-8.06,18-18,18Zm-707.67-36h689.67V36H36v1452Z"/>
      <g>
        <g>
          <path d="m298.75,572.32h-156.37c-9.94,0-18-8.06-18-18v-156.37c0-9.94,8.06-18,18-18h156.37c9.94,0,18,8.06,18,18v156.37c0,9.94-8.06,18-18,18Zm-138.37-36h120.37v-120.37h-120.37v120.37Z"/>
          <path d="m619.3,572.32h-156.37c-9.94,0-18-8.06-18-18v-156.37c0-9.94,8.06-18,18-18h156.37c9.94,0,18,8.06,18,18v156.37c0,9.94-8.06,18-18,18Zm-138.37-36h120.37v-120.37h-120.37v120.37Z"/>
        </g>
        <g>
          <path d="m298.75,323.09h-156.37c-9.94,0-18-8.06-18-18v-156.37c0-9.94,8.06-18,18-18h156.37c9.94,0,18,8.06,18,18v156.37c0,9.94-8.06,18-18,18Zm-138.37-36h120.37v-120.37h-120.37v120.37Z"/>
          <path d="m619.3,323.09h-156.37c-9.94,0-18-8.06-18-18v-156.37c0-9.94,8.06-18,18-18h156.37c9.94,0,18,8.06,18,18v156.37c0,9.94-8.06,18-18,18Zm-138.37-36h120.37v-120.37h-120.37v120.37Z"/>
        </g>
        <g>
          <path d="m298.75,821.54h-156.37c-9.94,0-18-8.06-18-18v-156.37c0-9.94,8.06-18,18-18h156.37c9.94,0,18,8.06,18,18v156.37c0,9.94-8.06,18-18,18Zm-138.37-36h120.37v-120.37h-120.37v120.37Z"/>
          <path d="m619.3,821.54h-156.37c-9.94,0-18-8.06-18-18v-156.37c0-9.94,8.06-18,18-18h156.37c9.94,0,18,8.06,18,18v156.37c0,9.94-8.06,18-18,18Zm-138.37-36h120.37v-120.37h-120.37v120.37Z"/>
        </g>
        <g>
          <path d="m298.75,1070.76h-156.37c-9.94,0-18-8.06-18-18v-156.38c0-9.94,8.06-18,18-18h156.37c9.94,0,18,8.06,18,18v156.38c0,9.94-8.06,18-18,18Zm-138.37-36h120.37v-120.38h-120.37v120.38Z"/>
          <path d="m619.3,1070.76h-156.37c-9.94,0-18-8.06-18-18v-156.38c0-9.94,8.06-18,18-18h156.37c9.94,0,18,8.06,18,18v156.38c0,9.94-8.06,18-18,18Zm-138.37-36h120.37v-120.38h-120.37v120.38Z"/>
        </g>
      </g>
      <path d="m495.67,1524c-9.94,0-18-8.06-18-18v-204.02c0-25.87-10.07-50.19-28.36-68.48-18.29-18.29-42.61-28.36-68.48-28.36-53.4,0-96.84,43.44-96.84,96.84v204.02c0,9.94-8.06,18-18,18s-18-8.06-18-18v-204.02c0-73.25,59.59-132.84,132.84-132.84,35.48,0,68.84,13.82,93.93,38.9,25.09,25.09,38.91,58.45,38.91,93.93v204.02c0,9.94-8.06,18-18,18Z"/>
      <path d="m1469.35,1524h-725.67c-9.94,0-18-8.06-18-18V281.88c0-9.94,8.06-18,18-18h725.67c9.94,0,18,8.06,18,18v1224.12c0,9.94-8.06,18-18,18Zm-707.67-36h689.67V299.88h-689.67v1188.12Z"/>
      <g>
        <g>
          <path d="m1024.42,586.98h-156.37c-9.94,0-18-8.06-18-18v-156.37c0-9.94,8.06-18,18-18h156.37c9.94,0,18,8.06,18,18v156.37c0,9.94-8.06,18-18,18Zm-138.37-36h120.37v-120.37h-120.37v120.37Z"/>
          <path d="m1344.97,586.98h-156.37c-9.94,0-18-8.06-18-18v-156.37c0-9.94,8.06-18,18-18h156.37c9.94,0,18,8.06,18,18v156.37c0,9.94-8.06,18-18,18Zm-138.37-36h120.37v-120.37h-120.37v120.37Z"/>
        </g>
        <g>
          <path d="m1024.42,836.2h-156.37c-9.94,0-18-8.06-18-18v-156.37c0-9.94,8.06-18,18-18h156.37c9.94,0,18,8.06,18,18v156.37c0,9.94-8.06,18-18,18Zm-138.37-36h120.37v-120.37h-120.37v120.37Z"/>
          <path d="m1344.97,836.2h-156.37c-9.94,0-18-8.06-18-18v-156.37c0-9.94,8.06-18,18-18h156.37c9.94,0,18,8.06,18,18v156.37c0,9.94-8.06,18-18,18Zm-138.37-36h120.37v-120.37h-120.37v120.37Z"/>
        </g>
        <g>
          <path d="m1024.42,1085.42h-156.37c-9.94,0-18-8.06-18-18v-156.38c0-9.94,8.06-18,18-18h156.37c9.94,0,18,8.06,18,18v156.38c0,9.94-8.06,18-18,18Zm-138.37-36h120.37v-120.38h-120.37v120.38Z"/>
          <path d="m1344.97,1085.42h-156.37c-9.94,0-18-8.06-18-18v-156.38c0-9.94,8.06-18,18-18h156.37c9.94,0,18,8.06,18,18v156.38c0,9.94-8.06,18-18,18Zm-138.37-36h120.37v-120.38h-120.37v120.38Z"/>
        </g>
      </g>
      <path d="m1221.35,1524c-9.94,0-18-8.06-18-18v-204.02c0-25.87-10.07-50.19-28.36-68.48-18.29-18.29-42.61-28.36-68.48-28.36-53.4,0-96.84,43.44-96.84,96.84v204.02c0,9.94-8.06,18-18,18s-18-8.06-18-18v-204.02c0-73.25,59.59-132.84,132.84-132.84,35.48,0,68.84,13.82,93.93,38.91,25.09,25.09,38.91,58.45,38.91,93.93v204.02c0,9.94-8.06,18-18,18Z"/>
    </g>
  </g>
</svg>