<?xml version="1.0" standalone="no"?>
<!DOCTYPE svg PUBLIC "-//W3C//DTD SVG 20010904//EN"
 "http://www.w3.org/TR/2001/REC-SVG-20010904/DTD/svg10.dtd">
<svg version="1.0" xmlns="http://www.w3.org/2000/svg"
 width="640.000000pt" height="640.000000pt" viewBox="0 0 640.000000 640.000000"
 preserveAspectRatio="xMidYMid meet">

<g transform="translate(0.000000,640.000000) scale(0.100000,-0.100000)"
fill="#000000" stroke="none">
<path d="M2755 5528 c-4 -14 -35 -445 -35 -490 0 -22 -6 -28 -32 -33 -134 -28
-405 -138 -530 -215 l-49 -31 -195 168 c-107 92 -198 169 -202 171 -4 1 -137
-128 -296 -287 l-289 -289 159 -184 c87 -101 165 -190 171 -199 11 -13 5 -29
-32 -94 -64 -113 -130 -268 -171 -403 -19 -64 -38 -120 -42 -123 -4 -3 -119
-14 -257 -23 -137 -10 -253 -21 -258 -25 -4 -4 -6 -189 -5 -412 l3 -404 260
-19 c143 -10 261 -19 263 -20 1 -2 15 -50 31 -107 37 -130 106 -297 172 -412
l50 -88 -23 -27 c-13 -15 -90 -105 -172 -200 l-149 -174 290 -290 291 -291
183 158 c101 87 191 165 200 172 15 12 29 7 115 -41 117 -65 288 -136 416
-170 50 -14 92 -27 93 -28 1 -2 11 -120 21 -263 l19 -260 410 0 410 0 19 260
c11 143 20 261 21 263 1 1 43 14 93 28 127 34 299 105 416 170 83 47 100 53
115 42 9 -7 99 -84 199 -172 l184 -159 289 289 c159 159 288 292 287 296 -2 4
-78 95 -171 202 l-167 194 55 100 c66 118 133 280 171 415 l28 97 35 1 c20 0
137 8 261 17 l225 17 3 413 c2 326 0 412 -10 412 -7 0 -125 7 -262 17 -233 16
-249 18 -256 37 -4 12 -26 80 -49 151 -41 128 -121 307 -175 393 -24 38 -26
46 -13 60 7 10 85 100 172 200 l158 184 -291 291 -290 290 -169 -145 c-92 -80
-182 -157 -200 -172 l-32 -27 -49 30 c-120 74 -302 149 -532 219 l-25 7 -20
260 -20 260 -408 3 c-321 2 -408 0 -412 -10z m645 -1617 c244 -70 443 -238
551 -466 70 -149 84 -212 83 -385 0 -128 -4 -155 -27 -233 -92 -301 -303 -512
-604 -604 -79 -24 -104 -26 -238 -26 -134 0 -159 2 -238 26 -301 92 -512 303
-604 604 -23 78 -27 105 -27 233 -1 167 13 235 74 366 121 262 336 436 615
498 101 22 314 15 415 -13z"/>
</g>
</svg>
