<?xml version="1.0" standalone="no"?>
<!DOCTYPE svg PUBLIC "-//W3C//DTD SVG 20010904//EN"
 "http://www.w3.org/TR/2001/REC-SVG-20010904/DTD/svg10.dtd">
<svg version="1.0" xmlns="http://www.w3.org/2000/svg"
 width="640.000000pt" height="640.000000pt" viewBox="0 0 640.000000 640.000000"
 preserveAspectRatio="xMidYMid meet">

<g transform="translate(0.000000,640.000000) scale(0.100000,-0.100000)"
fill="#000000" stroke="none">
<path d="M1910 5061 c-75 -23 -136 -78 -169 -151 -17 -36 -21 -66 -21 -152 l0
-108 -61 0 c-126 0 -211 -46 -264 -141 l-30 -54 0 -1755 0 -1755 22 -41 c30
-56 79 -103 133 -128 45 -21 50 -21 1374 -24 1459 -3 1387 -5 1472 57 22 17
53 54 69 83 27 48 30 64 33 166 l4 112 57 0 c124 0 227 61 269 158 20 46 21
68 22 302 l1 254 -43 11 c-25 6 -58 21 -75 33 -17 12 -33 22 -35 22 -1 0 -2
-114 0 -252 4 -285 -1 -318 -51 -348 -31 -19 -61 -20 -1344 -20 -970 0 -1319
3 -1337 12 -14 6 -34 23 -43 37 -17 25 -18 120 -21 1720 -1 1171 1 1705 8
1732 8 28 21 46 43 59 31 20 61 20 1347 20 1031 0 1320 -3 1340 -13 14 -7 33
-28 42 -47 17 -32 18 -94 18 -842 0 -642 3 -806 13 -803 6 3 40 54 75 114 l62
108 0 713 c0 517 -3 723 -12 752 -15 50 -78 122 -132 151 l-41 22 -1350 2
c-742 1 -1361 -2 -1375 -6z m-190 -2128 l0 -1558 24 -50 c25 -55 79 -108 135
-134 33 -14 153 -16 1234 -19 l1197 -2 0 -95 c0 -90 -1 -96 -29 -127 l-29 -33
-1337 0 -1337 0 -29 33 -29 32 0 1721 0 1721 34 34 c32 32 38 34 100 34 l66 0
0 -1557z"/>
<path d="M2260 4056 l0 -626 160 0 160 0 2 283 3 282 30 -3 c63 -7 65 -16 65
-303 l0 -260 151 3 150 3 -1 253 c0 139 -5 263 -9 275 -16 42 -61 85 -107 103
l-44 17 52 18 c93 31 112 80 106 269 -5 141 -24 198 -82 247 -64 54 -80 57
-368 61 l-268 4 0 -626z m383 403 c34 -18 37 -28 37 -130 0 -109 -8 -127 -63
-136 l-37 -6 0 142 c0 136 1 141 21 141 11 0 30 -5 42 -11z"/>
<path d="M3282 4558 c-7 -7 -12 -21 -12 -33 0 -45 -2 -45 522 -45 497 0 497 0
509 21 8 16 8 28 0 45 l-11 24 -498 0 c-374 0 -501 -3 -510 -12z"/>
<path d="M3286 4077 c-12 -9 -17 -23 -14 -42 l3 -30 504 -3 c364 -1 508 1 517
9 19 15 18 44 -2 63 -14 14 -73 16 -503 16 -384 0 -491 -3 -505 -13z"/>
<path d="M5205 3796 c-16 -7 -38 -23 -48 -34 -20 -22 -547 -931 -547 -943 0
-4 24 -14 53 -24 28 -9 98 -38 154 -65 93 -44 103 -47 116 -32 7 10 127 215
266 456 l253 439 -4 53 c-6 66 -28 92 -112 134 -65 33 -86 36 -131 16z"/>
<path d="M3282 3588 c-7 -7 -12 -21 -12 -33 0 -45 -2 -45 522 -45 497 0 497 0
509 21 8 16 8 28 0 45 l-11 24 -498 0 c-374 0 -501 -3 -510 -12z"/>
<path d="M5142 2912 c-144 -247 -149 -258 -131 -274 29 -25 181 -76 277 -93
91 -16 117 -30 106 -58 -9 -26 -34 -28 -125 -12 -119 21 -199 51 -399 149
-178 88 -278 126 -332 126 -73 0 -135 -76 -125 -153 8 -61 44 -90 164 -132
182 -62 272 -114 503 -285 246 -183 270 -191 595 -197 204 -4 243 -3 253 10 9
11 12 115 10 437 l-3 424 -74 18 c-85 21 -122 40 -246 133 -86 63 -240 146
-297 159 -25 6 -31 -3 -176 -252z"/>
<path d="M2296 3107 c-12 -9 -17 -23 -14 -42 l3 -30 1000 -3 c931 -2 1001 -1
1013 15 16 22 15 38 -4 57 -14 14 -118 16 -998 16 -790 0 -986 -3 -1000 -13z"/>
<path d="M4520 2969 c-63 -44 -127 -92 -142 -106 -37 -35 -74 -108 -163 -322
-63 -149 -76 -189 -71 -216 7 -33 40 -85 49 -75 2 3 38 64 80 136 l76 132 -6
69 c-5 56 -2 78 15 115 22 50 69 91 128 111 34 12 46 26 101 118 62 104 69
120 56 118 -5 0 -60 -37 -123 -80z"/>
<path d="M6047 2909 c-46 -27 -47 -42 -47 -504 0 -465 1 -479 49 -505 11 -6
91 -10 185 -10 l166 0 0 515 0 515 -167 0 c-96 0 -176 -5 -186 -11z"/>
<path d="M2292 2618 c-17 -17 -15 -44 4 -62 14 -14 110 -16 904 -16 l888 0 10
28 c5 15 13 35 17 45 7 16 -40 17 -902 17 -694 0 -912 -3 -921 -12z"/>
<path d="M4386 2438 c-7 -13 -36 -62 -64 -110 -47 -79 -49 -87 -34 -101 9 -7
75 -47 145 -87 108 -61 131 -70 142 -59 26 28 144 244 137 250 -4 4 -59 25
-122 48 -63 23 -130 51 -148 62 -41 24 -39 24 -56 -3z"/>
<path d="M4762 2254 c-42 -65 -38 -187 7 -228 30 -27 88 -23 120 8 24 24 26
34 26 103 l0 77 -55 38 c-30 20 -59 37 -65 37 -5 1 -20 -15 -33 -35z"/>
<path d="M2296 2137 c-12 -9 -17 -23 -14 -42 l3 -30 504 -3 c364 -1 508 1 517
9 19 15 18 44 -2 63 -14 14 -73 16 -503 16 -384 0 -491 -3 -505 -13z"/>
<path d="M4259 2143 c-1 -5 0 -52 1 -105 l2 -97 -61 -88 c-91 -133 -185 -223
-233 -223 -40 0 -71 63 -129 262 -24 85 -47 118 -84 118 -37 0 -63 -37 -91
-130 -14 -47 -28 -92 -31 -100 -3 -8 -16 45 -29 119 -17 103 -27 138 -43 155
-17 16 -25 18 -39 10 -29 -18 -42 -59 -60 -179 -15 -107 -15 -116 0 -132 14
-13 20 -14 32 -4 15 13 19 28 32 116 l7 50 18 -98 c20 -111 38 -147 74 -147
34 0 50 29 91 159 19 62 38 111 40 108 3 -3 18 -53 35 -112 55 -196 97 -255
185 -255 76 0 179 93 292 262 40 60 56 74 133 119 49 28 91 54 94 59 5 7 -211
140 -228 140 -4 0 -8 -3 -8 -7z"/>
<path d="M4990 2109 c0 -53 14 -78 55 -95 36 -15 95 -3 95 20 0 10 -132 116
-145 116 -3 0 -5 -18 -5 -41z"/>
<path d="M2292 1648 c-7 -7 -12 -21 -12 -33 0 -45 -2 -45 522 -45 497 0 497 0
509 21 8 16 8 28 0 45 l-11 24 -498 0 c-374 0 -501 -3 -510 -12z"/>
</g>
</svg>
