<?xml version="1.0" encoding="UTF-8"?>
<svg id="Layer_2" data-name="Layer 2" xmlns="http://www.w3.org/2000/svg" viewBox="0 0 4225.5 3608.59">
  <g id="_Layer_" data-name="&amp;lt;Layer&amp;gt;">
    <path d="m1881.31,1896.21c-292.19,0-529.95-237.7-529.95-530s237.76-529.88,529.95-529.88,529.93,237.69,529.93,529.88-237.75,530-529.93,530Zm0-948.07c-230.55,0-418.14,187.58-418.14,418.07s187.59,418.19,418.14,418.19,418.13-187.59,418.13-418.19-187.58-418.07-418.13-418.07Z"/>
    <path d="m1881.31,1625.42c-142.92,0-259.16-116.29-259.16-259.21s116.24-259.1,259.16-259.1,259.16,116.29,259.16,259.1-116.23,259.21-259.16,259.21Zm0-406.51c-81.24,0-147.35,66.07-147.35,147.3s66.11,147.41,147.35,147.41,147.35-66.17,147.35-147.41-66.12-147.3-147.35-147.3Z"/>
    <path d="m1881.31,1899.04c-391.76,0-757.6-181.69-1003.76-498.54-15.66-20.2-15.66-48.38,0-68.57,246.22-316.86,612.1-498.55,1003.76-498.55s757.54,181.69,1003.75,498.55c15.68,20.19,15.68,48.37,0,68.57-246.16,316.85-611.99,498.54-1003.75,498.54Zm-887.81-532.83c224.01,268.17,545.17,421.02,887.81,421.02s663.8-152.85,887.8-421.02c-224.11-268.16-545.23-421.02-887.8-421.02s-663.7,152.86-887.81,421.02Z"/>
    <path d="m2736.74,2227.15h-1710.86c-30.9,0-55.9-25-55.9-55.9s25-55.9,55.9-55.9h1710.86c30.89,0,55.9,25,55.9,55.9s-25.01,55.9-55.9,55.9Z"/>
    <path d="m2736.74,2553.51h-1710.86c-30.9,0-55.9-25.01-55.9-55.9s25-55.9,55.9-55.9h1710.86c30.89,0,55.9,25,55.9,55.9s-25.01,55.9-55.9,55.9Z"/>
    <path d="m2736.74,2879.76h-1710.86c-30.9,0-55.9-25-55.9-55.9s25-55.9,55.9-55.9h1710.86c30.89,0,55.9,25.01,55.9,55.9s-25.01,55.9-55.9,55.9Z"/>
    <path d="m2587.7,3206.12h-803.67c-30.9,0-55.9-25.01-55.9-55.9s25-55.9,55.9-55.9h803.67c30.89,0,55.9,25,55.9,55.9s-25.01,55.9-55.9,55.9Z"/>
    <path d="m3111.95,3608.59H650.65c-30.89,0-55.9-25.01-55.9-55.9V566.85c0-30.9,25.01-55.9,55.9-55.9h2461.3c30.9,0,55.9,25,55.9,55.9v2985.83c0,30.89-25,55.9-55.9,55.9Zm-2405.4-111.81h2349.49V622.75H706.56v2874.03Z"/>
    <path d="m650.65,3142.36c-5.57-.34-600.36-60.16-600.36-60.16-30.68-3.06-53.06-30.47-50.01-61.15L298.86,50.29c3.05-30.24,29.04-52.42,60.11-50.12l2449.01,196.44c14.79,1.2,28.54,8.18,38.16,19.54,9.6,11.35,14.3,25.98,13.05,40.83l-26.59,314.57c-2.4,28.94-26.64,51.21-55.69,51.21H706.56v2463.7c0,15.83-6.65,30.89-18.39,41.49-10.32,9.28-23.69,14.41-37.51,14.41Zm-533.53-165.76l477.63,48.04V566.85c0-30.9,25.01-55.9,55.9-55.9h2074.89l17.52-207.46L404.61,115.91,117.12,2976.6Z"/>
    <path d="m3936.48,3047.03h-484.79c-30.9,0-55.9-25-55.9-55.9V612.93c0-91.28,74.3-165.63,165.58-165.63h265.44c91.28,0,165.58,74.35,165.58,165.63v299.06c0,30.9-25,55.9-55.9,55.9s-55.9-25-55.9-55.9v-299.06c0-29.7-24.13-53.82-53.77-53.82h-265.44c-29.64,0-53.77,24.13-53.77,53.82v2322.3h372.98v-1756.05c0-30.9,25.01-55.9,55.9-55.9s55.9,25,55.9,55.9v1811.95c0,30.9-25,55.9-55.9,55.9Z"/>
    <path d="m4169.6,1600.09c-30.9,0-55.9-25-55.9-55.9v-576.29h-335.7c-30.89,0-55.9-25-55.9-55.9s25.01-55.9,55.9-55.9h391.61c30.9,0,55.9,25,55.9,55.9v632.19c0,30.9-25,55.9-55.9,55.9Z"/>
    <path d="m3694.09,3422.96c-19.01,0-36.7-9.6-47.02-25.66l-242.39-375.93c-16.7-25.87-9.22-60.49,16.7-77.19,25.87-16.93,60.54-9.39,77.3,16.7l195.4,303,195.38-303c16.7-25.98,51.32-33.63,77.3-16.7,25.94,16.7,33.42,51.32,16.7,77.19l-242.39,375.93c-10.32,16.05-28.01,25.66-47,25.66Z"/>
    <path d="m3694.09,3541.87c-30.9,0-55.9-25-55.9-55.9v-118.91c0-30.89,25-55.9,55.9-55.9s55.9,25.01,55.9,55.9v118.91c0,30.9-25.01,55.9-55.9,55.9Z"/>
  </g>
</svg>