<?xml version="1.0" standalone="no"?>
<!DOCTYPE svg PUBLIC "-//W3C//DTD SVG 20010904//EN"
 "http://www.w3.org/TR/2001/REC-SVG-20010904/DTD/svg10.dtd">
<svg version="1.0" xmlns="http://www.w3.org/2000/svg"
 width="640.000000pt" height="640.000000pt" viewBox="0 0 640.000000 640.000000"
 preserveAspectRatio="xMidYMid meet">

<g transform="translate(0.000000,640.000000) scale(0.100000,-0.100000)"
fill="#000000" stroke="none">
<path d="M2949 5527 c-123 -46 -186 -131 -196 -262 l-6 -73 -176 -4 c-144 -2
-180 -6 -199 -20 -40 -28 -57 -61 -62 -123 l-5 -60 -235 -5 -235 -5 -55 -31
c-66 -37 -124 -109 -145 -178 -23 -75 -23 -3207 0 -3283 19 -64 62 -123 119
-162 89 -62 80 -61 961 -61 441 0 804 3 807 6 4 3 0 20 -7 38 -15 34 -40 164
-50 258 l-6 57 -627 3 -627 3 -67 33 c-72 35 -113 77 -150 152 l-23 45 0 1280
0 1280 26 56 c50 106 149 175 259 180 l55 3 6 -72 c5 -65 9 -76 37 -105 l32
-32 638 -3 c625 -2 638 -2 670 18 41 25 62 73 62 140 l0 50 48 0 c79 0 140
-27 203 -89 101 -101 94 -21 97 -1071 1 -503 6 -914 11 -913 33 8 290 42 306
40 20 -2 20 4 20 1063 l0 1065 -24 53 c-30 66 -113 144 -177 166 -38 13 -92
16 -266 16 l-218 0 0 54 c0 64 -28 112 -80 138 -29 15 -63 18 -200 18 l-165 0
-2 69 c-2 84 -25 143 -78 196 -70 69 -195 102 -276 72z"/>
<path d="M2543 4140 c-45 -18 -57 -84 -22 -116 20 -18 43 -19 511 -19 l490 0
19 24 c24 30 24 62 0 92 l-19 24 -479 2 c-263 1 -488 -2 -500 -7z"/>
<path d="M2319 3799 c-57 -21 -59 -108 -4 -129 16 -6 289 -10 716 -10 692 0
719 1 741 34 15 22 8 73 -13 92 -20 18 -48 19 -718 21 -435 1 -706 -2 -722 -8z"/>
<path d="M2295 3545 c-30 -30 -31 -54 -4 -89 l20 -26 713 0 c799 0 756 -4 756
70 0 74 42 70 -753 70 l-708 0 -24 -25z"/>
<path d="M2314 3328 c-52 -25 -51 -103 2 -127 18 -8 224 -11 718 -11 686 0
694 0 720 21 36 28 36 80 0 108 -26 21 -33 21 -723 20 -457 0 -703 -4 -717
-11z"/>
<path d="M2291 3074 c-27 -35 -26 -59 4 -89 l24 -25 708 0 c795 0 753 -4 753
70 0 74 43 70 -756 70 l-713 0 -20 -26z"/>
<path d="M2312 2860 c-52 -21 -48 -107 6 -129 19 -8 232 -11 724 -9 668 3 697
4 717 22 31 28 28 79 -5 105 -26 21 -33 21 -723 20 -393 0 -706 -4 -719 -9z"/>
<path d="M2291 2604 c-27 -35 -26 -59 4 -89 l24 -25 711 0 c697 0 710 0 730
20 12 12 20 33 20 54 0 69 37 66 -756 66 l-713 0 -20 -26z"/>
<path d="M4238 2495 c-210 -34 -407 -93 -538 -161 -47 -25 -93 -51 -103 -58
-44 -34 -49 -654 -7 -850 24 -114 52 -173 149 -318 173 -259 372 -418 590
-474 59 -15 69 -15 130 1 235 58 447 241 638 548 91 148 117 255 129 530 8
191 -11 535 -31 557 -28 31 -175 101 -292 139 -247 81 -497 114 -665 86z m379
-194 c142 -29 264 -66 348 -105 l72 -33 6 -114 c15 -248 3 -504 -28 -624 -31
-117 -208 -367 -334 -472 -82 -68 -136 -100 -218 -130 -75 -27 -104 -23 -208
29 -147 75 -283 213 -410 420 -87 140 -96 187 -102 513 -2 149 -1 295 4 325 8
52 10 56 53 77 92 46 319 108 495 137 58 9 221 -3 322 -23z"/>
<path d="M4544 1688 c-92 -84 -185 -169 -208 -190 l-41 -36 -112 110 c-102
100 -115 110 -140 104 -36 -9 -53 -32 -53 -70 0 -24 23 -52 137 -168 160 -161
166 -163 241 -95 282 258 432 402 433 415 4 50 -21 82 -63 82 -23 0 -61 -30
-194 -152z"/>
</g>
</svg>
