<?xml version="1.0" encoding="utf-8"?>
<!-- Svg Vector Icons : http://www.onlinewebfonts.com/icon -->
<!DOCTYPE svg PUBLIC "-//W3C//DTD SVG 1.1//EN" "http://www.w3.org/Graphics/SVG/1.1/DTD/svg11.dtd">
<svg version="1.1" xmlns="http://www.w3.org/2000/svg" xmlns:xlink="http://www.w3.org/1999/xlink" x="0px" y="0px" viewBox="0 0 1000 1000" enable-background="new 0 0 1000 1000" xml:space="preserve">
<metadata> Svg Vector Icons : http://www.onlinewebfonts.com/icon </metadata>
<g><g><g><path d="M139.4,370.6C68.1,370.6,10,428.6,10,500c0,71.4,58.1,129.4,129.4,129.4c71.4,0,129.4-58.1,129.4-129.4C268.9,428.6,210.8,370.6,139.4,370.6z M139.4,594.2c-51.9,0-94.2-42.3-94.2-94.2c0-51.9,42.3-94.1,94.2-94.1c51.9,0,94.1,42.2,94.1,94.1C233.6,551.9,191.3,594.2,139.4,594.2z"/><path d="M506.3,370.6c-71.4,0-129.5,58.1-129.5,129.4c0,71.4,58.1,129.4,129.5,129.4c71.4,0,129.4-58.1,129.4-129.4C635.8,428.6,577.7,370.6,506.3,370.6z M506.3,594.2c-51.9,0-94.1-42.3-94.1-94.2c0-51.9,42.3-94.1,94.1-94.1c51.9,0,94.1,42.2,94.1,94.1C600.5,551.9,558.3,594.2,506.3,594.2z"/><path d="M860.6,370.6c-71.4,0-129.5,58.1-129.5,129.4c0,71.4,58.1,129.4,129.5,129.4c71.4,0,129.4-58.1,129.4-129.4C990,428.6,931.9,370.6,860.6,370.6z M860.6,594.2c-51.9,0-94.1-42.3-94.1-94.2c0-51.9,42.2-94.1,94.1-94.1s94.1,42.2,94.1,94.1C954.7,551.9,912.5,594.2,860.6,594.2z"/></g></g><g></g><g></g><g></g><g></g><g></g><g></g><g></g><g></g><g></g><g></g><g></g><g></g><g></g><g></g><g></g></g>
</svg>