<?xml version="1.0" standalone="no"?>
<!DOCTYPE svg PUBLIC "-//W3C//DTD SVG 20010904//EN"
 "http://www.w3.org/TR/2001/REC-SVG-20010904/DTD/svg10.dtd">
<svg version="1.0" xmlns="http://www.w3.org/2000/svg"
 width="640.000000pt" height="640.000000pt" viewBox="0 0 640.000000 640.000000"
 preserveAspectRatio="xMidYMid meet">

<g transform="translate(0.000000,640.000000) scale(0.100000,-0.100000)"
fill="#000000" stroke="none">
<path d="M2489 5571 l-29 -29 0 -201 0 -200 -822 -3 -823 -3 -48 -22 c-67 -32
-142 -106 -174 -172 -23 -48 -27 -70 -27 -151 l-1 -95 2564 -3 2563 -2 -4 97
c-3 79 -9 109 -30 154 -33 72 -94 134 -167 168 l-56 26 -822 3 -823 3 0 200 0
201 -29 29 -29 29 -607 0 -607 0 -29 -29z m1101 -306 l0 -125 -460 0 -460 0 0
125 0 125 460 0 460 0 0 -125z"/>
<path d="M955 4538 c4 -27 415 -3937 415 -3953 0 -3 789 -5 1754 -5 l1754 0 6
38 c3 20 96 899 206 1952 110 1053 203 1934 206 1958 l6 42 -2176 0 -2177 0 6
-32z m834 -404 c63 -18 121 -73 145 -135 25 -68 189 -2893 171 -2961 -16 -64
-55 -111 -117 -142 -87 -43 -180 -31 -250 32 -77 69 -66 -20 -198 1527 -66
775 -120 1433 -120 1462 0 110 69 198 175 224 52 12 140 10 194 -7z m957 1
c63 -19 116 -63 144 -120 l22 -46 16 -1454 c17 -1642 23 -1505 -63 -1584 -75
-69 -180 -79 -270 -27 -55 33 -100 99 -108 159 -4 23 -30 682 -59 1463 -58
1593 -60 1472 19 1551 67 68 188 91 299 58z m999 -13 c93 -47 125 -110 125
-243 0 -133 -98 -2767 -105 -2812 -21 -142 -158 -227 -299 -185 -57 17 -131
93 -146 149 -9 33 -8 382 4 1489 l16 1445 26 53 c47 95 126 134 259 128 56 -2
93 -10 120 -24z m961 0 c86 -44 127 -115 125 -216 0 -39 -55 -700 -121 -1470
l-119 -1398 -29 -52 c-71 -125 -238 -154 -343 -59 -60 54 -79 99 -79 185 0 86
157 2784 165 2845 11 80 88 161 172 183 60 15 184 5 229 -18z"/>
</g>
</svg>
