<?xml version="1.0" standalone="no"?>
<!DOCTYPE svg PUBLIC "-//W3C//DTD SVG 20010904//EN"
 "http://www.w3.org/TR/2001/REC-SVG-20010904/DTD/svg10.dtd">
<svg version="1.0" xmlns="http://www.w3.org/2000/svg"
 width="640.000000pt" height="640.000000pt" viewBox="0 0 640.000000 640.000000"
 preserveAspectRatio="xMidYMid meet">

<g transform="translate(0.000000,640.000000) scale(0.100000,-0.100000)"
fill="#000000" stroke="none">
<path d="M1440 5091 c-77 -24 -148 -90 -168 -160 -18 -57 -17 -3957 0 -4015 8
-26 31 -60 63 -92 42 -43 61 -54 106 -63 40 -9 476 -11 1714 -9 l1660 3 41 22
c55 29 109 93 123 146 9 31 11 551 9 2022 -3 1910 -4 1981 -22 2015 -58 110
-166 159 -277 126 -67 -19 -121 -63 -148 -119 l-21 -44 0 -1846 0 -1847 -1395
0 -1395 0 0 1848 0 1847 -30 52 c-34 59 -72 90 -137 109 -50 15 -84 16 -123 5z"/>
<path d="M3045 4528 c-16 -6 -42 -19 -57 -29 -58 -41 -994 -1021 -1018 -1067
-82 -153 38 -342 216 -342 86 0 122 29 414 332 l275 286 5 -947 c5 -1035 2
-974 64 -1048 86 -102 269 -100 356 5 62 75 60 46 60 1060 l0 925 88 -94 c320
-341 451 -474 486 -492 128 -66 289 4 331 145 19 66 12 120 -23 181 -42 70
-972 1050 -1019 1072 -45 22 -136 29 -178 13z"/>
</g>
</svg>
