<?xml version="1.0" standalone="no"?>
<!DOCTYPE svg PUBLIC "-//W3C//DTD SVG 20010904//EN"
 "http://www.w3.org/TR/2001/REC-SVG-20010904/DTD/svg10.dtd">
<svg version="1.0" xmlns="http://www.w3.org/2000/svg"
 width="640.000000pt" height="640.000000pt" viewBox="0 0 640.000000 640.000000"
 preserveAspectRatio="xMidYMid meet">

<g transform="translate(0.000000,640.000000) scale(0.100000,-0.100000)"
fill="#000000" stroke="none">
<path d="M2295 4879 c-104 -14 -209 -45 -312 -94 -314 -148 -535 -428 -605
-765 -17 -80 -19 -120 -15 -250 3 -85 8 -165 12 -177 6 -18 2 -22 -25 -28
-118 -26 -274 -119 -372 -223 -419 -444 -200 -1169 395 -1312 75 -18 119 -20
495 -20 l412 0 0 -495 c0 -540 0 -544 56 -565 15 -6 325 -10 784 -10 l758 0
31 26 31 26 0 509 0 509 403 0 c365 0 409 2 484 20 465 111 728 599 563 1045
-38 102 -99 195 -184 281 -142 142 -314 220 -511 231 l-104 6 -6 46 c-37 272
-199 498 -442 617 -203 100 -424 109 -637 26 -44 -17 -81 -30 -81 -29 -1 1
-17 29 -35 62 -222 401 -648 620 -1095 564z m262 -170 c344 -47 632 -285 742
-614 16 -49 35 -128 40 -175 9 -72 15 -89 36 -107 35 -31 85 -30 115 2 19 20
22 34 21 82 -1 32 -7 86 -15 121 -14 71 -14 71 55 100 360 154 775 -63 855
-447 8 -41 14 -83 12 -93 -2 -13 -25 -29 -73 -49 -38 -16 -78 -38 -88 -50 -36
-45 -10 -120 47 -135 14 -3 47 5 85 20 236 100 491 62 671 -101 129 -117 196
-255 206 -428 12 -184 -47 -336 -181 -470 -92 -92 -167 -136 -281 -165 -70
-18 -112 -20 -471 -20 l-393 0 0 167 0 168 -363 362 -362 363 -441 0 -441 0
-24 -26 -24 -26 -3 -504 -3 -504 -403 0 c-450 0 -491 5 -619 72 -92 48 -213
173 -260 269 -88 180 -88 378 0 558 52 105 168 222 273 273 143 71 290 86 436
47 126 -35 149 -35 178 -5 52 51 25 118 -60 149 -66 23 -180 47 -230 47 -34 0
-43 4 -49 23 -14 47 -18 279 -5 351 75 426 449 745 882 755 31 0 92 -4 135
-10z m535 -1954 c3 -312 3 -315 26 -337 22 -23 25 -23 337 -26 l315 -3 0 -639
0 -640 -657 2 -658 3 -3 978 -2 977 320 0 319 0 3 -315z m368 0 l195 -195
-198 0 -197 0 0 195 c0 107 1 195 3 195 1 0 90 -88 197 -195z"/>
<path d="M2628 2780 c-25 -26 -29 -36 -24 -63 3 -18 17 -42 32 -54 23 -22 34
-23 165 -23 180 0 209 13 209 91 0 18 -10 39 -25 54 -23 24 -28 25 -175 25
l-152 0 -30 -30z"/>
<path d="M2626 2529 c-30 -35 -32 -49 -11 -90 22 -42 49 -49 196 -49 165 0
198 15 199 92 0 28 -6 41 -26 57 -24 19 -40 21 -179 21 l-153 0 -26 -31z"/>
<path d="M2649 2275 c-31 -17 -54 -65 -44 -95 4 -11 16 -30 28 -40 20 -19 37
-20 469 -20 l449 0 24 25 c32 31 32 75 1 112 l-24 28 -439 2 c-365 2 -442 0
-464 -12z"/>
<path d="M2639 1980 c-9 -5 -22 -23 -29 -40 -15 -35 0 -84 31 -100 10 -6 199
-10 468 -10 l450 0 20 26 c12 15 21 39 21 54 0 15 -9 39 -21 54 l-20 26 -452
0 c-266 0 -459 -5 -468 -10z"/>
<path d="M2632 1680 c-30 -28 -36 -62 -18 -98 27 -52 35 -53 505 -50 l433 3
24 28 c31 37 31 81 -1 112 l-24 25 -449 0 c-436 0 -449 -1 -470 -20z"/>
<path d="M2625 1378 c-31 -36 -29 -79 6 -113 19 -19 35 -20 465 -23 l445 -3
29 30 c38 38 40 82 5 116 l-24 25 -450 0 -449 0 -27 -32z"/>
</g>
</svg>
