<?xml version="1.0" encoding="UTF-8"?>
<svg id="Layer_2" data-name="Layer 2" xmlns="http://www.w3.org/2000/svg" viewBox="0 0 405.03 130.81">
  <defs>
    <style>
      .cls-1 {
        fill: #282766;
      }
    </style>
  </defs>
  <g id="Layer_1-2" data-name="Layer 1">
    <path class="cls-1" d="m153.78,2.31l-53.03,126.51h-34.59L40.06,27.86c-1.58-6.22-2.96-8.5-7.78-11.11C24.42,12.48,11.43,8.47,0,5.98l.77-3.67h55.69c7.09,0,13.48,4.72,15.09,12.9l13.78,73.21L119.4,2.31h34.38Zm135.56,85.21c.15-33.39-46.17-35.23-45.85-50.15.1-4.54,4.42-9.36,13.88-10.6,4.68-.61,17.61-1.08,32.27,5.66l5.75-26.82c-7.88-2.86-18.01-5.61-30.62-5.61-32.35,0-55.12,17.2-55.3,41.82-.22,18.22,16.25,28.38,28.66,34.43,12.75,6.2,17.02,10.18,16.97,15.72-.1,8.49-10.17,12.24-19.59,12.38-16.45.26-26-4.45-33.61-7.99l-5.93,27.72c7.64,3.51,21.76,6.57,36.39,6.72,34.38,0,56.87-16.98,56.98-43.29m85.43,41.31h30.27L378.61,2.31h-27.93c-6.28,0-11.58,3.65-13.93,9.28l-49.11,117.24h34.36l6.83-18.9h41.99l3.96,18.9Zm-36.52-44.83l17.23-47.5,9.92,47.5h-27.15ZM200.54,2.31l-27.06,126.51h-32.73L167.82,2.31h32.72Z"/>
  </g>
</svg>