<?xml version="1.0" standalone="no"?>
<!DOCTYPE svg PUBLIC "-//W3C//DTD SVG 20010904//EN"
 "http://www.w3.org/TR/2001/REC-SVG-20010904/DTD/svg10.dtd">
<svg version="1.0" xmlns="http://www.w3.org/2000/svg"
 width="640.000000pt" height="640.000000pt" viewBox="0 0 640.000000 640.000000"
 preserveAspectRatio="xMidYMid meet">

<g transform="translate(0.000000,640.000000) scale(0.100000,-0.100000)"
fill="#000000" stroke="none">
<path d="M3164 5011 c-22 -13 -339 -485 -1135 -1691 -607 -920 -1112 -1687
-1121 -1704 -35 -63 -11 -144 53 -178 32 -17 123 -18 2264 -18 2141 0 2232 1
2264 18 59 31 87 112 60 165 -7 12 -512 780 -1123 1706 -786 1191 -1120 1690
-1141 1703 -38 23 -82 23 -121 -1z m1055 -1849 c534 -810 971 -1475 971 -1477
0 -3 -884 -5 -1965 -5 -1081 0 -1965 2 -1965 5 0 5 1767 2687 1913 2904 41 60
51 71 62 60 7 -8 450 -677 984 -1487z"/>
<path d="M3155 3906 c-45 -20 -91 -73 -104 -119 -9 -30 -11 -200 -9 -598 l3
-556 29 -41 c81 -117 247 -105 311 22 l25 50 0 550 c0 515 -2 554 -19 591 -45
97 -147 140 -236 101z"/>
<path d="M3150 2367 c-19 -6 -55 -32 -80 -57 -70 -70 -88 -155 -49 -240 41
-90 108 -134 204 -134 129 0 219 90 219 219 0 156 -144 259 -294 212z"/>
</g>
</svg>
