<?xml version="1.0" encoding="utf-8"?>
<!-- Svg Vector Icons : http://www.onlinewebfonts.com/icon -->
<!DOCTYPE svg PUBLIC "-//W3C//DTD SVG 1.1//EN" "http://www.w3.org/Graphics/SVG/1.1/DTD/svg11.dtd">
<svg version="1.1" xmlns="http://www.w3.org/2000/svg" xmlns:xlink="http://www.w3.org/1999/xlink" x="0px" y="0px" viewBox="0 0 1000 1000" enable-background="new 0 0 1000 1000" xml:space="preserve">
<metadata> Svg Vector Icons : http://www.onlinewebfonts.com/icon </metadata>
<g><g transform="translate(0.000000,511.000000) scale(0.100000,-0.100000)"><path d="M2639.6,4952.6c-315.2-110.5-487.1-446.2-393-765.5c45-151.4,319.3-442.1,2001.7-2128.6L6200.9,101.9L4248.3-1850.6C2565.9-3541.2,2291.6-3831.9,2246.6-3983.3c-135.1-466.7,311.1-908.7,794.1-785.9c151.5,40.9,421.6,298.8,2411.1,2284.1C7396.2-540.7,7695-221.4,7740-70c106.5,372.5,167.9,298.8-2247.3,2726.2C3339.6,4817.6,3118.5,5014,2885.2,5009.9C2840.1,5009.9,2729.6,4985.4,2639.6,4952.6z"/></g></g>
</svg>